<ttFont>
          <CharString index="0">
            -10 callsubr
            -18 -25 -38 -15 -27 hhcurveto
            -46 -16 24 44 hvcurveto
            362 -29 callgsubr
            -58 30 -57 97 58 69 29 33 37 vhcurveto
            -37 7 48 -20 45 hhcurveto
            37 25 5 12 47 hvcurveto
            return
          </CharString>
          <CharString index="1">
            rmoveto
            7 27 rlineto
            1 10 10 1 8 hhcurveto
            26 12 -8 -14 -17 -16 -13 -50 hvcurveto
            4 -44 rlineto
            54 hlineto
            6 23 rlineto
            51 8 25 18 28 vvcurveto
            34 -37 20 -64 -29 callsubr
            vhcurveto
            6 -53 rlineto
            return
          </CharString>
          <CharString index="2">
            15 callsubr
            -104 -41 -78 -100 -114 -16 87 115 vhcurveto
            281 -86 callgsubr
            -281 vlineto
            -148 38 -126 207 return
          </CharString>
          <CharString index="3">
            rmoveto
            28 85 rlineto
            192 hlineto
            29 -88 -65 -20 rlineto
            -45 278 45 vlineto
            -71 24 -15 callsubr
            52 378 rmoveto
            80 -216 rlineto
            -153 hlineto
            return
          </CharString>
          <CharString index="4">
            rmoveto
            -177 -68 -115 -143 -138 70 -116 175 179 70 116 138 143 -68 115 -181 hvcurveto
            104 -256 rmoveto
            -106 -16 -82 -84 -85 -19 82 106 109 18 80 80 86 20 -80 -109 vhcurveto
            return
          </CharString>
          <CharString index="5">
            rmoveto
            45 -37 39 -45 0 callsubr
            vhcurveto
            return
          </CharString>
          <CharString index="6">
            rmoveto
            -48 34 -54 117 109 58 52 74 60 -44 24 -51 26 vhcurveto
            71 34 14 49 32 vvcurveto
            50 -48 45 -98 -107 -46 -52 -58 -50 28 -39 44 -25 vhcurveto
            -60 -34 -21 -37 -49 vvcurveto
            113 240 rmoveto
            36 24 15 25 27 15 -23 -32 -24 -14 -32 -27 -16 vhcurveto
            -31 17 -19 33 26 vvcurveto
            22 -152 rmoveto
            38 -17 rlineto
            13 -8 19 -30 -26 vvcurveto
            -39 -25 -18 -30 -27 -23 14 49 31 17 25 18 19 vhcurveto
            endchar
          </CharString>
          <CharString index="7">
            rmoveto
            -89 callgsubr
            1 callsubr
            -56 vlineto
            -26 -93 rlineto
            -181 205 104 hlineto
            19 -69 rlineto
            53 191 hlineto
            return
          </CharString>
          <CharString index="8">
            -104 callsubr
            endchar
          </CharString>
          <CharString index="9">
            -39 rlineto
            -48 vlineto
            78 -11 rlineto
            return
          </CharString>
          <CharString index="10">
            -17 -66 rlineto
            -106 216 165 -26 callsubr
            146 -68 callgsubr
            return
          </CharString>
          <CharString index="11">
            rmoveto
            23 25 -109 135 rlineto
            -85 hlineto
            -110 -135 26 -25 126 77 rlineto
            return
          </CharString>
          <CharString index="12">
            208 85 111 131 hvcurveto
            472 -28 callsubr
            -297 -62 callsubr
            -354 vlineto
            -36 -22 -36 -34 -67 hhcurveto
            -114 -15 93 117 hvcurveto
            214 -86 callgsubr
            -214 vlineto
            -174 38 -107 201 65 52 20 36 34 vhcurveto
            -38 vlineto
            -115 -43 -50 -132 -18 -51 5 10 -28 vhcurveto
            return
          </CharString>
          <CharString index="13">
            -95 callgsubr
            -21 hlineto
            27 -44 -57 16 -72 hhcurveto
            -216 -87 -144 -173 -175 90 -145 213 216 84 145 175 89 -22 81 -51 58 hvcurveto
            65 15 56 38 57 vvcurveto
            -344 -587 rmoveto
            -139 -23 139 110 101 19 146 133 139 22 -146 -101 -104 -17 -145 -134 hvcurveto
            return
          </CharString>
          <CharString index="14">
            rmoveto
            32 18 -6 -8 19 hvcurveto
            20 -74 rlineto
            56 hlineto
            14 126 rlineto
            20 -49 -59 9 -49 hhcurveto
            -135 -61 -63 -95 -74 34 -40 62 -21 hvcurveto
            109 -37 rlineto
            41 -14 14 -9 -30 vvcurveto
            -41 -35 -20 -63 -34 -21 6 6 -17 vhcurveto
            -21 84 rlineto
            -58 hlineto
            -12 -139 rlineto
            -16 48 70 -9 49 hhcurveto
            133 75 62 94 82 -34 38 -67 21 hvcurveto
            -114 36 rlineto
            -36 12 -11 19 27 vvcurveto
            34 32 20 50 vhcurveto
            return
          </CharString>
          <CharString index="15">
            85 -88 callgsubr
            return
          </CharString>
          <CharString index="16">
            -95 callgsubr
            -6 hlineto
            19 -35 -44 10 -55 20 callsubr
            179 70 116 138 74 -18 66 -43 47 hvcurveto
            58 17 48 36 53 vvcurveto
            -290 -479 rmoveto
            -85 -19 82 106 109 18 80 80 86 20 -80 -109 -106 -16 -82 -84 hvcurveto
            return
          </CharString>
          <CharString index="17">
            -67 callsubr
            -98 callsubr
            return
          </CharString>
          <CharString index="18">
            -45 hlineto
            -92 callsubr
            return
          </CharString>
          <CharString index="19">
            rmoveto
            -99 60 -50 48 -21 vhcurveto
            92 -40 rlineto
            58 -26 28 -21 -48 vvcurveto
            -51 -45 -26 -69 -39 -36 9 6 -21 vhcurveto
            -11 callsubr
            -21 55 74 -10 56 hhcurveto
            156 79 74 114 74 -32 54 -84 35 hvcurveto
            -91 38 rlineto
            -53 22 -35 27 49 vvcurveto
            62 52 18 59 21 39 -5 -6 17 vhcurveto
            22 -91 rlineto
            53 hlineto
            11 145 rlineto
            18 -56 -59 9 -60 hhcurveto
            -135 -78 -67 -116 hvcurveto
            return
          </CharString>
          <CharString index="20">
            rmoveto
            103 22 65 70 hvcurveto
            -56 2 rlineto
            -27 -12 -34 -53 -50 -13 34 27 vhcurveto
            -59 -2 rlineto
            -70 16 -65 102 vhcurveto
            return
          </CharString>
          <CharString index="21">
            166 75 116 141 hvcurveto
            413 -46 vlineto
            -167 -14 callsubr
            -15 -26 -48 -16 -26 hhcurveto
            -44 -8 24 42 hvcurveto
            316 -90 callsubr
            -253 vlineto
            -58 29 -58 97 55 73 31 31 37 vhcurveto
            return
          </CharString>
          <CharString index="22">
            -8 141 rlineto
            -53 hlineto
            -25 -86 rlineto
            -9 -31 -29 -4 -27 hhcurveto
            -137 -36 129 120 125 30 121 147 25 35 -4 -9 23 hvcurveto
            25 -98 rlineto
            50 21 callgsubr
            14 -49 -53 15 -86 hhcurveto
            -217 -83 -144 -173 return
          </CharString>
          <CharString index="23">
            -65 callgsubr
            -305 -62 callsubr
            return
          </CharString>
          <CharString index="24">
            -78 20 rlineto
            -80 callsubr
            return
          </CharString>
          <CharString index="25">
            rmoveto
            228 109 rlineto
            10 callgsubr
            rlineto
            return
          </CharString>
          <CharString index="26">
            -107 callsubr
            43 vlineto
            return
          </CharString>
          <CharString index="27">
            432 -44 vlineto
            -169 -26 callgsubr
            return
          </CharString>
          <CharString index="28">
            rmoveto
            31 23 -92 160 rlineto
            -92 -22 hlineto
            314 -161 rmoveto
            31 23 -92 160 rlineto
            -92 -22 hlineto
            return
          </CharString>
          <CharString index="29">
            rmoveto
            21 -92 rlineto
            73 hlineto
            19 179 rlineto
            1 -6 -15 0 -8 hhcurveto
            -46 -59 -20 -29 -44 hvcurveto
            46 27 callsubr
            -23 callsubr
            329 50 vlineto
            -116 20 rlineto
            331 vlineto
            11 18 25 5 22 hhcurveto
            return
          </CharString>
          <CharString index="30">
            -61 callgsubr
            -45 304 45 vlineto
            -86 24 rlineto
            187 vlineto
            142 289 71 25 rlineto
            44 return
          </CharString>
          <CharString index="31">
            rmoveto
            180 98 83 81 87 -70 29 -104 hvcurveto
            -135 hlineto
            -25 -4 17 16 6 4 14 5 12 hvcurveto
            -4 12 33 -4 26 hhcurveto
            144 56 76 99 33 -15 40 -21 22 hvcurveto
            94 86 hlineto
            -135 -40 rlineto
            16 -29 -39 13 -55 hhcurveto
            -129 -69 -72 -98 -60 19 -57 53 -31 hvcurveto
            -33 -32 -36 -36 -39 vvcurveto
            -23 13 -31 29 -9 vhcurveto
            -59 -33 -19 -32 -31 vvcurveto
            -47 34 -51 177 vhcurveto
            22 402 rmoveto
            -49 -18 44 66 67 17 41 47 52 20 -41 -67 -66 -18 -44 -51 hvcurveto
            -19 -335 rmoveto
            -66 -21 22 32 27 13 18 18 23 hvcurveto
            144 hlineto
            38 23 0 -36 -52 -53 -34 -96 hvcurveto
            endchar
          </CharString>
          <CharString index="32">
            hvcurveto
            -74 callgsubr
            return
          </CharString>
          <CharString index="33">
            558 rmoveto
            228 109 -6 callgsubr
            40 -156 -137 rlineto
            return
          </CharString>
          <CharString index="34">
            rmoveto
            37 15 -20 -38 -44 -32 -49 -33 -34 hvcurveto
            -145 -152 16 -44 rlineto
            307 hlineto
            8 108 -61 8 -24 -54 rlineto
            -121 hlineto
            91 96 rlineto
            47 50 57 65 51 vvcurveto
            87 -61 31 -92 -55 -61 -18 -22 -35 vhcurveto
            23 -53 rlineto
            22 49 39 10 31 hhcurveto
            return
          </CharString>
          <CharString index="35">
            -87 callsubr
            -151 -56 callsubr
            return
          </CharString>
          <CharString index="36">
            -44 19 rlineto
            0 -17 -31 -25 vhcurveto
            -39 -88 37 -49 hhcurveto
            -33 -30 -47 -57 -24 hvcurveto
            47 -19 rlineto
            0 16 31 24 vhcurveto
            return
          </CharString>
          <CharString index="37">
            -89 callsubr
            -45 return
          </CharString>
          <CharString index="38">
            rmoveto
            -11 -55 rlineto
            -13 40 42 -11 44 hhcurveto
            89 108 51 196 97 -33 103 -131 -146 -24 -89 -55 -72 51 -58 90 27 27 2 7 26 hvcurveto
            -84 -9 -40 -40 -48 hhcurveto
            -20 -32 5 16 -50 hvcurveto
            202 176 rmoveto
            -13 -16 -28 -13 -20 hhcurveto
            -26 -23 24 60 46 23 35 34 42 14 -48 -91 hvcurveto
            endchar
          </CharString>
          <CharString index="39">
            rmoveto
            84 3 14 51 71 hhcurveto
            53 7 -46 -57 hvcurveto
            -21 vlineto
            return
          </CharString>
          <CharString index="40">
            -44 vlineto
            -169 return
          </CharString>
          <CharString index="41">
            rmoveto
            104 63 47 166 hvcurveto
            483 -28 callsubr
            -304 -62 callsubr
            -505 vlineto
            -70 -12 -52 -60 vhcurveto
            -68 hlineto
            -4 -37 rlineto
            -16 24 34 -16 53 hhcurveto
            endchar
          </CharString>
          <CharString index="42">
            rmoveto
            -25 callgsubr
            292 vlineto
            212 85 145 175 174 -91 120 -225 hvcurveto
            -1 -62 rmoveto
            108 67 -96 -136 -136 -24 -127 -126 -27 -29 5 7 -22 hvcurveto
            477 vlineto
            3 12 15 3 26 hhcurveto
            return
          </CharString>
          <CharString index="43">
            7 -19 rlineto
            41 -1 14 -19 -19 vvcurveto
            -21 -19 -24 -39 -10 -9 2 5 -9 vhcurveto
            -8 -40 rlineto
            -8 17 18 -3 19 hhcurveto
            return
          </CharString>
          <CharString index="44">
            rmoveto
            -257 hlineto
            -16 -194 22 -23 rlineto
            105 55 -18 -66 -50 -35 -33 -45 -20 -31 5 22 -64 hvcurveto
            -11 -56 rlineto
            -15 45 52 -13 48 hhcurveto
            113 61 57 83 55 -22 75 -182 8 hvcurveto
            return
          </CharString>
          <CharString index="45">
            -45 vlineto
            -40 callgsubr
            return
          </CharString>
          <CharString index="46">
            rmoveto
            153 161 rlineto
            22 -92 vlineto
            -92 -160 rlineto
            192 -23 rmoveto
            153 161 rlineto
            22 -92 vlineto
            -92 -160 rlineto
            return
          </CharString>
          <CharString index="47">
            101 79 57 61 -57 292 hlineto
            -82 10 -235 -322 14 -41 rlineto
            202 hlineto
            -116 61 rmoveto
            116 161 rlineto
            -161 vlineto
            endchar
          </CharString>
          <CharString index="48">
            721 rmoveto
            -103 -25 -65 -70 hvcurveto
            57 -2 rlineto
            27 11 34 58 49 11 -34 -27 vhcurveto
            57 2 rlineto
            70 -13 65 -102 vhcurveto
            return
          </CharString>
          <CharString index="49">
            -45 vlineto
            -92 callsubr
            return
          </CharString>
          <CharString index="50">
            rmoveto
            81 64 36 42 52 hvcurveto
            -47 32 54 -31 92 hhcurveto
            -24 callgsubr
            32 callgsubr
            -101 -34 42 124 hvcurveto
            283 51 rlineto
            2 6 1 15 5 vvcurveto
            132 -76 62 -110 -64 -42 -19 -30 -34 vhcurveto
            30 -23 -39 19 -60 hhcurveto
            -73 -72 -14 -23 -62 hvcurveto
            12 callsubr
            -91 vlineto
            -116 -20 rlineto
            -102 -17 -45 -62 -69 vvcurveto
            -59 44 -48 74 vhcurveto
            282 296 rmoveto
            84 3 14 63 71 hhcurveto
            47 13 -32 -85 hvcurveto
            -364 -245 rmoveto
            -32 -20 17 39 36 22 24 49 9 hvcurveto
            60 11 rlineto
            -109 vlineto
            -12 -17 -34 -15 -28 hhcurveto
            endchar
          </CharString>
          <CharString index="51">
            -583 -104 callsubr
            return
          </CharString>
          <CharString index="52">
            162 -56 hlineto
            -38 callgsubr
            return
          </CharString>
          <CharString index="53">
            34 28 46 58 24 hvcurveto
            return
          </CharString>
          <CharString index="54">
            305 45 hlineto
            -12 callgsubr
            207 226 -207 vlineto
            -85 -24 rlineto
            -45 305 -13 callgsubr
            477 -28 callsubr
            -306 -45 vlineto
            86 -23 rlineto
            -211 -226 211 5 callgsubr
            -85 -24 rlineto
            return
          </CharString>
          <CharString index="55">
            rmoveto
            23 35 -154 131 -97 -34 -4 -23 rlineto
            return
          </CharString>
          <CharString index="56">
            rmoveto
            44 -7 80 188 -25 24 -90 -20 rlineto
            endchar
          </CharString>
          <CharString index="57">
            rmoveto
            81 hlineto
            37 94 rlineto
            -6 26 28 -3 32 hhcurveto
            216 84 145 175 126 -44 111 -108 50 hvcurveto
            43 110 rlineto
            -84 hlineto
            -34 -86 rlineto
            4 -22 -25 2 -26 hhcurveto
            -216 -87 -144 -173 -124 44 -108 101 -53 hvcurveto
            38 96 rmoveto
            -31 52 -7 73 64 vvcurveto
            105 19 149 133 20 18 -3 -6 16 vhcurveto
            -44 -502 rmoveto
            -25 -21 4 8 -18 hvcurveto
            171 438 rlineto
            36 -53 8 -78 -62 vvcurveto
            -108 -17 -149 -134 vhcurveto
            endchar
          </CharString>
          <CharString index="58">
            50 vlineto
            -99 22 rlineto
            336 vlineto
            113 -7 rlineto
            78 -113 112 -61 vlineto
            -61 -100 -83 -37 rlineto
            -47 72 -351 vlineto
            return
          </CharString>
          <CharString index="59">
            -142 -103 callsubr
            return
          </CharString>
          <CharString index="60">
            173 -82 144 -218 return
          </CharString>
          <CharString index="61">
            rmoveto
            70 hlineto
            15 51 rlineto
            134 hlineto
            -166 -369 111 -11 159 393 -15 45 rlineto
            -314 hlineto
            return
          </CharString>
          <CharString index="62">
            206 30 168 77 return
          </CharString>
          <CharString index="63">
            rmoveto
            170 -78 57 -95 -95 -80 -58 -169 -167 80 -58 95 95 78 56 169 vhcurveto
            -172 -139 rmoveto
            -44 -56 26 113 117 56 24 44 43 55 -24 -113 -114 -55 -29 -43 hvcurveto
            endchar
          </CharString>
          <CharString index="64">
            rmoveto
            -62 -24 72 103 115 31 74 67 24 34 -11 -16 18 hvcurveto
            -303 vlineto
            -16 -15 -37 -18 -36 hhcurveto
            return
          </CharString>
          <CharString index="65">
            382 403 rmoveto
            170 -76 56 -96 -96 -79 -57 -169 -167 79 -58 96 96 76 56 169 vhcurveto
            15 -403 rmoveto
            224 614 rlineto
            -86 hlineto
            -224 -614 rlineto
            -101 264 rmoveto
            -46 -56 25 114 118 56 23 46 45 58 -23 -114 -116 -58 -27 -45 hvcurveto
            682 -47 rmoveto
            170 -75 57 -95 -97 -77 -58 -169 -167 77 -58 97 95 75 56 169 vhcurveto
            return
          </CharString>
          <CharString index="66">
            310 -28 callsubr
            return
          </CharString>
          <CharString index="67">
            220 45 hlineto
            -68 23 95 186 rlineto
            120 hlineto
            14 -185 -84 -24 rlineto
            -45 430 162 -56 vlineto
            -26 -93 rlineto
            -134 hlineto
            -14 191 rlineto
            65 26 callsubr
            -71 hlineto
            -16 230 rlineto
            131 -26 callsubr
            146 -424 -45 hlineto
            65 -18 -256 -482 -71 -25 rlineto
            276 266 rmoveto
            77 149 10 -149 rlineto
            endchar
          </CharString>
          <CharString index="68">
            -55 vlineto
            64 -14 -84 -249 -96 251 47 27 rlineto
            return
          </CharString>
          <CharString index="69">
            -47 162 333 rmoveto
            13 147 72 84 107 1 rrcurveto
            28 12 -1 -6 33 hvcurveto
            8 60 rlineto
            9 -35 -15 2 -45 hhcurveto
            -145 -164 -114 -271 -114 27 -144 188 188 43 128 85 108 -59 79 -122 -73 -40 -31 -22 -21 hvcurveto
            -1 -94 rmoveto
            36 21 34 36 51 hhcurveto
            66 16 -59 -71 -71 -29 -53 -66 -78 -15 84 98 hvcurveto
            endchar
          </CharString>
          <CharString index="70">
            77 589 12 rmoveto
            43 vlineto
            -79 28 rlineto
            419 -46 vlineto
            -157 -37 rlineto
            -44 vlineto
            64 -10 rlineto
            -306 vlineto
            -19 -28 -29 -14 -35 hhcurveto
            -43 -10 24 47 hvcurveto
            359 -43 vlineto
            -173 -37 rlineto
            -44 vlineto
            78 -9 rlineto
            -612 123 vlineto
            -26 210 rlineto
            -15 24 30 -5 26 hhcurveto
            52 35 28 34 23 hvcurveto
            -37 8 45 -20 46 hhcurveto
            34 33 5 12 48 hvcurveto
            endchar
          </CharString>
          <CharString index="71">
            rmoveto
            46 -38 38 -45 -45 -41 -38 -46 25 callsubr
            38 35 45 vhcurveto
            return
          </CharString>
          <CharString index="72">
            -13 391 559 -84 callgsubr
            -2 -48 callsubr
            return
          </CharString>
          <CharString index="73">
            rmoveto
            -139 -23 139 110 101 19 146 133 139 22 -146 -101 -104 -17 -145 -134 hvcurveto
            endchar
          </CharString>
          <CharString index="74">
            652 rmoveto
            59 -37 49 -77 -75 -38 -49 -59 -59 38 -45 75 77 37 45 59 vhcurveto
            -114 55 rmoveto
            35 5 -25 -30 -30 -5 -22 -35 -35 -4 22 30 30 4 25 35 hvcurveto
            return
          </CharString>
          <CharString index="75">
            45 hlineto
            17 callgsubr
            -525 hlineto
            7 -159 rlineto
            55 hlineto
            19 91 rlineto
            114 -477 hlineto
            -84 -24 rlineto
            return
          </CharString>
          <CharString index="76" raw="1">
            155f1d55 0a5f9e05 8b7a6c72 1e6433b0
            5a1b6a0b   
          </CharString>
          <CharString index="77">
            715 -102 callsubr
            return
          </CharString>
          <CharString index="78">
            -28 -32 -4 -7 -32 return
          </CharString>
          <CharString index="79">
            vlineto
            -65 callgsubr
            return
          </CharString>
          <CharString index="80">
            rmoveto
            115 -360 107 434 hlineto
            -222 -33 rlineto
            return
          </CharString>
          <CharString index="81">
            hlineto
            22 -78 rlineto
            56 return
          </CharString>
          <CharString index="82">
            112 10 rlineto
            546 -28 callsubr
            return
          </CharString>
          <CharString index="83">
            347 48 rmoveto
            -67 callgsubr
            15 callgsubr
            return
          </CharString>
          <CharString index="84">
            -26 callgsubr
            -50 return
          </CharString>
          <CharString index="85">
            -5 callsubr
            -11 -10 -1 -2 -9 hvcurveto
            223 107 rlineto
            10 callgsubr
            26 -34 rlineto
            -51 -12 -26 -37 -45 vvcurveto
            -53 38 -41 75 vhcurveto
            144 vmoveto
            35 5 -25 -25 -24 -5 -23 -35 -35 -4 23 24 25 4 25 35 hvcurveto
            return
          </CharString>
          <CharString index="86">
            43 vlineto
            -78 28 rlineto
            return
          </CharString>
          <CharString index="87">
            46 hhcurveto
            7 26 -2 -5 33 hvcurveto
            7 48 rlineto
            7 -30 -31 4 -22 hhcurveto
            -85 -140 return
          </CharString>
          <CharString index="88">
            rmoveto
            -38 callgsubr
            -45 1 callsubr
            vlineto
            endchar
          </CharString>
          <CharString index="89">
            rmoveto
            35 23 -90 186 rlineto
            -105 hlineto
            -12 -19 rlineto
            return
          </CharString>
          <CharString index="90">
            53 hlineto
            -108 21 rlineto
            520 vlineto
            6 20 24 3 26 hhcurveto
            94 11 -102 -85 -110 -11 -75 -104 -11 -20 3 2 -9 hvcurveto
            -13 -52 rlineto
            -11 32 26 -5 26 hhcurveto
            150 79 99 145 168 -59 90 -191 return
          </CharString>
          <CharString index="91">
            0 callsubr
            45 -37 39 -45 hvcurveto
            endchar
          </CharString>
          <CharString index="92">
            -205 558 -78 -13 -189 -545 -71 -25 rlineto
            -44 220 45 vlineto
            return
          </CharString>
          <CharString index="93">
            -98 callsubr
            -253 vlineto
            return
          </CharString>
          <CharString index="94">
            -81 28 -188 270 175 206 68 22 rlineto
            43 -205 -45 vlineto
            55 -15 -183 -207 rlineto
            199 vlineto
            65 22 rlineto
            46 -284 29 callsubr
            return
          </CharString>
          <CharString index="95">
            -18 7 614 rmoveto
            7 -159 rlineto
            55 hlineto
            19 91 rlineto
            114 -477 hlineto
            -84 -24 rlineto
            -45 304 45 vlineto
            17 callgsubr
            return
          </CharString>
          <CharString index="96">
            -37 callgsubr
            rlineto
            return
          </CharString>
          <CharString index="97">
            -98 callsubr
            -299 vlineto
            return
          </CharString>
          <CharString index="98">
            661 rmoveto
            -54 callsubr
            -92 callgsubr
            -44 callgsubr
            return
          </CharString>
          <CharString index="99">
            185 45 hlineto
            -64 23 -80 182 -2 26 -58 19 rlinecurve
            84 26 59 51 93 vvcurveto
            87 -65 62 -159 vhcurveto
            -283 -89 callsubr
            return
          </CharString>
          <CharString index="100">
            646 -36 callsubr
            return
          </CharString>
          <CharString index="101">
            vlineto
            -53 -19 rlineto
            -42 206 42 vlineto
            -38 19 rlineto
            241 vlineto
            6 12 23 3 31 hhcurveto
            35 8 -9 -33 hvcurveto
            -208 vlineto
            -37 -19 rlineto
            -42 207 42 vlineto
            return
          </CharString>
          <CharString index="102">
            rmoveto
            77 37 41 53 54 -37 44 -77 return
          </CharString>
          <CharString index="103">
            47 -37 37 -47 -44 -40 -37 -47 -46 40 -34 44 47 37 34 46 vhcurveto
            endchar
          </CharString>
          <CharString index="104">
            529 rmoveto
            40 hlineto
            32 204 -68 23 rlineto
            -45 hlineto
            return
          </CharString>
          <CharString index="105">
            273 45 vlineto
            16 callgsubr
            return
          </CharString>
          <CharString index="106">
            81 70 -81 408 hlineto
            -102 10 -311 -439 17 -49 rlineto
            273 hlineto
            -172 70 rmoveto
            172 249 rlineto
            -249 vlineto
            endchar
          </CharString>
          <CharString index="107">
            -45 -41 -39 -45 25 callsubr
            37 35 45 return
          </CharString>
          <CharString index="108">
            482 162 return
          </CharString>
          <CharString index="109">
            rmoveto
            108 67 -96 -136 -136 -24 -127 -126 -27 -29 5 7 -22 hvcurveto
            477 vlineto
            3 12 15 3 26 hhcurveto
            endchar
          </CharString>
          <CharString index="110">
            119 -85 33 30 -109 141 rlineto
            -85 hlineto
            -110 -141 return
          </CharString>
          <CharString index="111">
            15 -18 callgsubr
            return
          </CharString>
          <CharString index="112">
            627 -5 callsubr
            return
          </CharString>
          <CharString index="113">
            214 655 rmoveto
            -137 -52 -86 -107 -103 53 -89 136 135 53 89 103 107 -51 86 -137 hvcurveto
            return
          </CharString>
          <CharString index="114">
            135 108 111 133 135 -108 109 -135 -133 -110 -109 -135 return
          </CharString>
          <CharString index="115">
            150 25 95 56 62 -36 60 -108 return
          </CharString>
          <CharString index="116">
            vlineto
            3 12 15 3 26 hhcurveto
            108 67 -96 -136 -136 -24 -127 -126 hvcurveto
            endchar
          </CharString>
          <CharString index="117">
            291 50 hlineto
            -78 20 rlineto
            return
          </CharString>
          <CharString index="118">
            -233 rmoveto
            76 34 62 0 hvcurveto
            24 callgsubr
            return
          </CharString>
          <CharString index="119">
            17 -135 rlineto
            59 hlineto
            22 84 rlineto
            7 20 24 5 28 hhcurveto
            46 18 -17 -53 hvcurveto
            return
          </CharString>
          <CharString index="120">
            16 239 rmoveto
            141 -178 53 35 -77 143 77 145 -53 34 rlineto
            return
          </CharString>
          <CharString index="121">
            114 95 97 112 115 92 -97 -114 -114 -92 -97 -115 return
          </CharString>
          <CharString index="122">
            -40 callgsubr
            -301 vlineto
            return
          </CharString>
          <CharString index="123">
            -80 callgsubr
            -45 304 -13 callgsubr
            477 vlineto
            return
          </CharString>
          <CharString index="124">
            -25 rlineto
            -45 273 return
          </CharString>
          <CharString index="125">
            rmoveto
            250 vlineto
            4 17 20 1 18 hhcurveto
            57 35 -49 -72 -76 -39 return
          </CharString>
          <CharString index="126">
            hhcurveto
            27 20 4 9 38 hvcurveto
            36 vlineto
            -54 25 rlineto
            209 vlineto
            80 return
          </CharString>
          <CharString index="127">
            hhcurveto
            -177 -68 -115 -143 -138 70 -116 175 return
          </CharString>
          <CharString index="128">
            667 rmoveto
            -17 callgsubr
            40 -156 -137 27 -35 rlineto
            return
          </CharString>
          <CharString index="129">
            -116 rmoveto
            87 214 -23 29 -97 -23 -13 -212 rlineto
            return
          </CharString>
          <CharString index="130">
            238 vlineto
            57 -41 20 -46 -39 -73 -17 -12 -25 vhcurveto
            return
          </CharString>
          <CharString index="131">
            -17 rlineto
            -81 -14 -16 -56 -40 vvcurveto
            -46 35 -48 47 55 return
          </CharString>
          <CharString index="132">
            -45 41 -35 45 45 return
          </CharString>
          <CharString index="133">
            hlineto
            19 -69 rlineto
            53 191 -53 hlineto
            -17 -66 rlineto
            return
          </CharString>
          <CharString index="134">
            -45 vlineto
            -168 return
          </CharString>
          <CharString index="135">
            -65 22 rlineto
            185 vlineto
            175 -253 rlineto
            return
          </CharString>
          <CharString index="136">
            -45 vlineto
            84 -88 callgsubr
            return
          </CharString>
          <CharString index="137">
            vlineto
            -162 -28 rlineto
            -49 426 vlineto
            endchar
          </CharString>
          <CharString index="138">
            38 63 9 13 42 return
          </CharString>
          <CharString index="139">
            -52 -34 78 -145 -78 -143 52 -35 return
          </CharString>
          <CharString index="140">
            -54 -59 vvcurveto
            -43 25 -41 78 vhcurveto
            endchar
          </CharString>
        <CharString name=".notdef">
          -352 endchar
        </CharString>
        <CharString name="A">
          37 142 68 -99 callsubr
        </CharString>
        <CharString name="AE">
          143 -52 hmoveto
          -40 callsubr
        </CharString>
        <CharString name="AEacute">
          143 312 634 -82 callsubr
          -337 -669 rmoveto
          -40 callsubr
        </CharString>
        <CharString name="Aacute">
          37 210 634 -82 callsubr
          -41 -601 -99 callsubr
        </CharString>
        <CharString name="Abreve">
          37 286 651 rmoveto
          103 17 65 70 hvcurveto
          -57 2 rlineto
          -27 -11 -34 -58 -49 -9 34 27 vhcurveto
          -59 -2 rlineto
          -70 21 -65 102 vhcurveto
          -144 -56 callsubr
          endchar
        </CharString>
        <CharString name="Acircumflex">
          37 418 640 -96 callsubr
          -147 -649 -99 callsubr
        </CharString>
        <CharString name="Adieresis">
          37 253 719 -102 callgsubr
          -342 -651 -99 callsubr
        </CharString>
        <CharString name="Agrave">
          37 373 634 -52 callsubr
          1 -675 -99 callsubr
        </CharString>
        <CharString name="Amacron">
          37 167 758 -27 callgsubr
          -266 -690 -99 callsubr
        </CharString>
        <CharString name="Aogonek">
          37 -10 hmoveto
          220 45 hlineto
          -68 23 28 85 rlineto
          192 hlineto
          22 -68 rlineto
          2 -6 5 -19 -9 -50 -111 -58 -90 vvcurveto
          -45 26 -41 76 76 34 62 0 vhcurveto
          -10 callgsubr
          -32 -11 20 35 66 58 50 65 hvcurveto
          116 45 hlineto
          -71 24 -205 558 -78 -13 -189 -545 -71 -25 rlineto
          272 379 rmoveto
          80 -216 rlineto
          -153 hlineto
          endchar
        </CharString>
        <CharString name="Aring">
          37 286 -51 callgsubr
          -296 -674 rmoveto
          220 45 hlineto
          -14 callgsubr
          -71 24 -205 558 -78 -13 -189 -545 -71 -25 rlineto
          199 163 rmoveto
          73 216 80 -216 rlineto
          endchar
        </CharString>
        <CharString name="Aringacute">
          37 296 627 -22 callsubr
          237 -702 -56 callgsubr
        </CharString>
        <CharString name="Atilde">
          37 468 765 -98 callgsubr
          -326 -697 -99 callsubr
        </CharString>
        <CharString name="B">
          36 384 324 rmoveto
          82 14 61 49 77 vvcurveto
          89 -59 61 -159 vhcurveto
          -25 callgsubr
          264 vlineto
          164 79 68 101 79 -49 61 -110 15 hvcurveto
          -100 19 rmoveto
          -29 203 hlineto
          0 21 7 28 53 35 -28 -65 -95 -57 -22 -51 vhcurveto
          -29 -274 rmoveto
          220 27 vlineto
          66 56 -35 -79 -78 -42 -34 -58 -17 -19 2 4 -13 hvcurveto
          endchar
        </CharString>
        <CharString name="C">
          -9 518 21 rmoveto
          -85 callsubr
          -176 86 -147 214 78 53 12 20 57 hvcurveto
          endchar
        </CharString>
        <CharString name="Cacute">
          -9 237 634 -82 callsubr
          308 -648 rmoveto
          -85 callsubr
          -176 86 -147 214 78 53 12 20 57 hvcurveto
          endchar
        </CharString>
        <CharString name="Cacute.loclPLK">
          -9 315 631 -52 callgsubr
          234 -633 rmoveto
          -85 callsubr
          -176 86 -147 214 78 53 12 20 57 hvcurveto
          endchar
        </CharString>
        <CharString name="Ccaron">
          -9 274 -79 callgsubr
          166 -786 rmoveto
          78 53 12 20 57 hvcurveto
          -85 callsubr
          -176 86 -147 214 hvcurveto
          endchar
        </CharString>
        <CharString name="Ccedilla">
          -9 518 21 rmoveto
          -85 callsubr
          -166 76 -139 186 -16 hvcurveto
          -23 -64 -64 callsubr
          -15 callgsubr
          11 35 73 1 51 12 55 19 rlinecurve
          endchar
        </CharString>
        <CharString name="Ccircumflex">
          -9 443 640 -96 callsubr
          204 -696 rmoveto
          -85 callsubr
          -176 86 -147 214 78 53 12 20 57 hvcurveto
          endchar
        </CharString>
        <CharString name="Cdotaccent">
          -9 398 -30 callsubr
          120 -694 rmoveto
          -85 callsubr
          -176 86 -147 214 78 53 12 20 57 hvcurveto
          endchar
        </CharString>
        <CharString name="D">
          98 309 614 -65 callsubr
          endchar
        </CharString>
        <CharString name="Dcaron">
          98 266 -79 callgsubr
          -120 -775 rmoveto
          292 hlineto
          212 85 145 175 174 -91 120 -225 hvcurveto
          -274 -45 hlineto
          85 -23 rlineto
          -477 23 callgsubr
          477 9 callsubr
        </CharString>
        <CharString name="Dcroat">
          -34 callgsubr
        </CharString>
        <CharString name="E">
          -12 378 396 -100 callsubr
          endchar
        </CharString>
        <CharString name="Eacute">
          -12 201 634 -82 callsubr
          -138 -669 rmoveto
          482 -55 callsubr
          endchar
        </CharString>
        <CharString name="Ebreve">
          -12 269 -58 callgsubr
          109 -255 -100 callsubr
          endchar
        </CharString>
        <CharString name="Ecaron">
          -12 258 -79 callgsubr
          -112 -775 rmoveto
          482 -55 callsubr
          endchar
        </CharString>
        <CharString name="Ecircumflex">
          -12 414 640 -96 callsubr
          93 -321 -100 callsubr
          endchar
        </CharString>
        <CharString name="Edieresis">
          -12 236 719 -102 callgsubr
          -89 -323 -100 callsubr
          endchar
        </CharString>
        <CharString name="Edotaccent">
          -12 376 -30 callsubr
          2 -319 -100 callsubr
          endchar
        </CharString>
        <CharString name="Egrave">
          -12 373 634 -52 callsubr
          -105 -743 rmoveto
          482 -55 callsubr
          endchar
        </CharString>
        <CharString name="Emacron">
          -12 173 758 -27 callgsubr
          -36 -362 -100 callsubr
          endchar
        </CharString>
        <CharString name="Eng">
          162 470 -168 rmoveto
          71 78 54 170 hvcurveto
          490 -28 callsubr
          -243 -82 callgsubr
          295 -432 rlineto
          -43 vlineto
          -33 -20 -40 -53 vhcurveto
          -45 hlineto
          -6 -47 rlineto
          -20 42 45 -9 23 hhcurveto
          endchar
        </CharString>
        <CharString name="Eogonek">
          -12 434 11 callsubr
          65 45 56 5 5 hvcurveto
          51 -55 callsubr
          -45 386 vlineto
          -62 -51 -28 -57 -39 vvcurveto
          -42 23 -44 79 vhcurveto
          endchar
        </CharString>
        <CharString name="Eth">
          -34 callgsubr
        </CharString>
        <CharString name="Euro">
          -19 235 311 rmoveto
          20 170 vlineto
          9 58 rlineto
          -175 hlineto
          135 14 55 31 56 hhcurveto
          25 17 -3 -6 20 hvcurveto
          23 -89 rlineto
          47 hlineto
          13 137 rlineto
          15 -46 -62 13 -54 hhcurveto
          -114 -104 -52 -181 -23 hvcurveto
          -81 hlineto
          -9 -58 rlineto
          85 -18 hlineto
          -14 0 -18 1 -11 vhcurveto
          -77 hlineto
          -9 -58 rlineto
          92 hlineto
          -192 27 115 -25 115 hhcurveto
          57 41 8 15 42 hvcurveto
          -10 54 rlineto
          -6 -34 -36 -6 -31 hhcurveto
          -104 -38 63 89 -12 hvcurveto
          165 hlineto
          9 58 rlineto
          -178 hlineto
          -1 11 0 17 13 vvcurveto
          endchar
        </CharString>
        <CharString name="F">
          -44 498 614 rmoveto
          -68 callgsubr
          -45 325 50 vlineto
          -106 25 rlineto
          189 104 vlineto
          19 -69 rlineto
          53 191 -53 hlineto
          -17 -66 rlineto
          -106 226 165 -26 callsubr
          hlineto
          endchar
        </CharString>
        <CharString name="G">
          62 450 545 -94 callgsubr
        </CharString>
        <CharString name="G_tilde.loclGUA">
          62 506 765 -98 callgsubr
          -56 -220 -94 callgsubr
        </CharString>
        <CharString name="Gbreve">
          62 324 -58 callgsubr
          126 -106 -94 callgsubr
        </CharString>
        <CharString name="Gcaron">
          62 268 -79 callgsubr
          292 -230 -94 callgsubr
        </CharString>
        <CharString name="Gcircumflex">
          62 439 640 -96 callsubr
          140 -172 -94 callgsubr
        </CharString>
        <CharString name="Gcommaaccent">
          62 346 -9 rmoveto
          75 75 15 27 48 hvcurveto
          190 vlineto
          60 19 rlineto
          47 -279 1 callgsubr
          -150 vlineto
          -8 -26 -26 0 -18 hhcurveto
          -128 -39 117 132 108 33 138 155 37 32 -4 -9 21 hvcurveto
          25 -98 rlineto
          56 21 callgsubr
          16 -42 -78 13 -64 hhcurveto
          -238 -90 -144 -173 -174 82 -147 234 hvcurveto
          -78 -220 -51 callsubr
        </CharString>
        <CharString name="Gdotaccent">
          62 394 -30 callsubr
          56 -170 -94 callgsubr
        </CharString>
        <CharString name="H">
          179 35 hmoveto
          -53 callsubr
          endchar
        </CharString>
        <CharString name="Hbar">
          179 701 569 rmoveto
          45 -306 -45 vlineto
          86 -23 rlineto
          -101 -226 101 -86 callgsubr
          -101 -81 -55 81 -321 vlineto
          -85 -24 rlineto
          -45 305 -13 callgsubr
          177 226 -177 vlineto
          -85 -24 rlineto
          -45 305 -13 callgsubr
          321 81 55 -81 101 vlineto
          -135 -241 rmoveto
          -226 85 226 hlineto
          endchar
        </CharString>
        <CharString name="Hcircumflex">
          179 497 640 -96 callsubr
          -333 -717 rmoveto
          -53 callsubr
          endchar
        </CharString>
        <CharString name="I">
          -182 36 hmoveto
          -85 callgsubr
          endchar
        </CharString>
        <CharString name="IJ">
          169 36 hmoveto
          -85 callgsubr
          420 -195 -66 callsubr
        </CharString>
        <CharString name="Iacute">
          -182 87 634 -82 callsubr
          -24 -669 rmoveto
          -85 callgsubr
          endchar
        </CharString>
        <CharString name="Iacute_J.loclNLD">
          169 150 634 -82 callsubr
          390 -35 -82 callsubr
          -450 -669 rmoveto
          -85 callgsubr
          420 -195 -66 callsubr
        </CharString>
        <CharString name="Ibreve">
          -182 184 -58 callgsubr
          -148 -651 rmoveto
          -85 callgsubr
          endchar
        </CharString>
        <CharString name="Icircumflex">
          -182 61 9 callgsubr
          1 -665 rmoveto
          -85 callgsubr
          endchar
        </CharString>
        <CharString name="Idieresis">
          -182 74 647 -49 callgsubr
          -270 -647 rmoveto
          -85 callgsubr
          endchar
        </CharString>
        <CharString name="Idotaccent">
          -182 189 635 -35 callgsubr
          -153 -635 rmoveto
          -85 callgsubr
          endchar
        </CharString>
        <CharString name="Igrave">
          -182 292 634 -52 callsubr
          -24 -743 rmoveto
          -85 callgsubr
          endchar
        </CharString>
        <CharString name="Imacron">
          -182 65 679 rmoveto
          241 79 -241 hlineto
          -29 -758 rmoveto
          -85 callgsubr
          endchar
        </CharString>
        <CharString name="Iogonek">
          -182 243 -233 rmoveto
          60 34 38 24 15 hvcurveto
          -3 callgsubr
          42 32 63 83 20 hvcurveto
          -13 callgsubr
          477 5 callgsubr
          -84 -24 rlineto
          -45 206 vlineto
          -56 -36 -46 33 callsubr
        </CharString>
        <CharString name="Itilde">
          -182 263 -9 callsubr
          -227 -661 rmoveto
          -85 callgsubr
          endchar
        </CharString>
        <CharString name="J">
          -206 81 -150 -66 callsubr
        </CharString>
        <CharString name="Jcircumflex">
          -206 305 640 -96 callsubr
          -95 -867 -66 callsubr
        </CharString>
        <CharString name="K">
          36 613 hmoveto
          45 vlineto
          -13 callsubr
          -45 284 46 vlineto
          28 callsubr
          endchar
        </CharString>
        <CharString name="Kcommaaccent">
          36 35 hmoveto
          284 46 hlineto
          28 callsubr
          184 45 hlineto
          -13 callsubr
          238 -274 -51 callsubr
        </CharString>
        <CharString name="L">
          -66 486 hmoveto
          162 -56 vlineto
          -55 callgsubr
          -45 vlineto
          endchar
        </CharString>
        <CharString name="Lacute">
          -66 105 634 -82 callsubr
          408 -669 rmoveto
          162 -56 vlineto
          -55 callgsubr
          -45 vlineto
          endchar
        </CharString>
        <CharString name="Lcaron">
          -66 150 -79 callgsubr
          -5 -775 rmoveto
          451 162 -56 hlineto
          -55 callgsubr
          endchar
        </CharString>
        <CharString name="Lcommaaccent">
          -66 35 hmoveto
          451 162 -56 hlineto
          -55 callgsubr
          185 -274 -51 callsubr
        </CharString>
        <CharString name="Ldot">
          -66 486 hmoveto
          162 -56 vlineto
          -55 callgsubr
          -45 vlineto
          458 417 -5 callgsubr
        </CharString>
        <CharString name="Lslash">
          -66 35 hmoveto
          451 162 -56 hlineto
          -26 -93 rlineto
          -150 241 hlineto
          116 70 -32 56 -84 -50 rlineto
          160 -28 callsubr
          -304 1 callgsubr
          -241 vlineto
          -91 -54 32 -56 59 35 rlineto
          -161 -62 callgsubr
          endchar
        </CharString>
        <CharString name="M">
          257 256 hmoveto
          45 vlineto
          -85 24 14 363 158 -442 74 10 148 435 15 -366 -84 -24 rlineto
          -45 296 45 vlineto
          -85 24 -21 477 -65 callgsubr
          -216 vlineto
          -154 -468 -156 468 rlineto
          -208 -45 hlineto
          84 -23 -18 -477 -84 -24 rlineto
          -45 vlineto
          endchar
        </CharString>
        <CharString name="N">
          162 461 614 rmoveto
          -82 callgsubr
          318 -466 -25 callsubr
          vlineto
          endchar
        </CharString>
        <CharString name="Nacute">
          162 298 634 -82 callsubr
          190 -55 rmoveto
          -82 callgsubr
          318 -466 -25 callsubr
          vlineto
          endchar
        </CharString>
        <CharString name="Nacute.loclPLK">
          162 361 631 -52 callgsubr
          131 -40 rmoveto
          -82 callgsubr
          318 -466 -25 callsubr
          vlineto
          endchar
        </CharString>
        <CharString name="Ncaron">
          162 327 -79 callgsubr
          290 -785 rmoveto
          -25 callsubr
          -243 -82 callgsubr
          endchar
        </CharString>
        <CharString name="Ncommaaccent">
          162 507 -10 rmoveto
          -25 callsubr
          -243 -82 callgsubr
          124 -685 -51 callsubr
        </CharString>
        <CharString name="Ntilde">
          162 547 765 -98 callgsubr
          -86 -151 rmoveto
          -82 callgsubr
          318 -466 -25 callsubr
          vlineto
          endchar
        </CharString>
        <CharString name="O">
          106 333 628 -105 callgsubr
          endchar
        </CharString>
        <CharString name="OE">
          256 776 614 rmoveto
          -454 hlineto
          -206 -86 -130 -173 -175 88 -136 205 hvcurveto
          473 162 -56 hlineto
          -26 -93 rlineto
          -175 205 98 26 callsubr
          -100 216 159 -26 callsubr
          hlineto
          -369 78 rmoveto
          -477 vlineto
          -8 -20 -25 -7 -35 hhcurveto
          -131 -23 143 114 105 19 144 125 30 34 -5 -9 26 hvcurveto
          endchar
        </CharString>
        <CharString name="Oacute">
          106 294 634 -82 callsubr
          66 -41 -105 callgsubr
          endchar
        </CharString>
        <CharString name="Oacute.loclPLK">
          106 333 631 -52 callgsubr
          31 -26 -105 callgsubr
          endchar
        </CharString>
        <CharString name="Obreve">
          106 328 -58 callgsubr
          5 -23 -105 callgsubr
          endchar
        </CharString>
        <CharString name="Ocircumflex">
          106 460 640 -96 callsubr
          2 -89 -105 callgsubr
          endchar
        </CharString>
        <CharString name="Odieresis">
          106 292 719 -102 callgsubr
          -190 -91 -105 callgsubr
          endchar
        </CharString>
        <CharString name="Ograve">
          106 416 634 -52 callsubr
          149 -115 -105 callgsubr
          endchar
        </CharString>
        <CharString name="Ohorn">
          106 681 649 -94 callsubr
          endchar
        </CharString>
        <CharString name="Ohungarumlaut">
          106 229 631 -61 callsubr
          -26 -663 rmoveto
          216 84 145 175 -47 callsubr
          -216 -87 -144 -173 -175 90 -145 213 hvcurveto
          4 71 -34 callsubr
        </CharString>
        <CharString name="Omacron">
          106 211 758 -27 callgsubr
          -119 -130 -105 callgsubr
          endchar
        </CharString>
        <CharString name="Oslash">
          106 129 -94 -50 callsubr
        </CharString>
        <CharString name="Oslashacute">
          106 224 634 -82 callsubr
          -68 -763 -50 callsubr
        </CharString>
        <CharString name="Otilde">
          106 506 765 -98 callgsubr
          -173 -137 -105 callgsubr
          endchar
        </CharString>
        <CharString name="P">
          -8 321 614 rmoveto
          -286 -70 callsubr
          325 46 vlineto
          -106 23 rlineto
          178 vlineto
          -3 9 42 -1 3 hhcurveto
          109 121 54 33 callgsubr
          -66 -318 18 callsubr
          -61 -78 -13 -10 1 2 -7 hvcurveto
          endchar
        </CharString>
        <CharString name="Q">
          105 680 -122 rmoveto
          -4 37 rlineto
          -69 hlineto
          -30 -97 43 37 -80 hvcurveto
          167 31 65 138 147 vvcurveto
          173 -83 144 -217 -216 -86 -144 -173 -152 69 -127 154 -32 vhcurveto
          155 -96 rlineto
          -49 79 41 -12 35 hhcurveto
          39 52 19 16 26 hvcurveto
          -506 433 rmoveto
          101 19 146 133 139 23 -146 -101 -104 -16 -144 -136 -141 -21 144 104 vhcurveto
          endchar
        </CharString>
        <CharString name="R">
          41 418 hmoveto
          -83 callgsubr
          endchar
        </CharString>
        <CharString name="Racute">
          41 218 634 -82 callsubr
          227 -669 rmoveto
          -83 callgsubr
          endchar
        </CharString>
        <CharString name="Rcaron">
          41 259 -79 callgsubr
          -113 -775 rmoveto
          -33 callgsubr
          endchar
        </CharString>
        <CharString name="Rcommaaccent">
          41 36 hmoveto
          -33 callgsubr
          -21 -552 -51 callsubr
        </CharString>
        <CharString name="S">
          -74 41 445 -88 callsubr
          endchar
        </CharString>
        <CharString name="Sacute">
          -74 162 634 -82 callsubr
          -94 -224 -88 callsubr
          endchar
        </CharString>
        <CharString name="Sacute.loclPLK">
          -74 243 631 -52 callgsubr
          -171 -209 -88 callsubr
          endchar
        </CharString>
        <CharString name="Scaron">
          -74 207 -79 callgsubr
          118 -784 -42 callgsubr
          endchar
        </CharString>
        <CharString name="Scedilla">
          -74 193 -220 rmoveto
          -15 callgsubr
          11 38 rlineto
          139 8 70 71 108 vvcurveto
          74 -32 54 -84 35 vhcurveto
          -91 38 rlineto
          -53 22 -35 27 49 vvcurveto
          62 52 18 59 21 39 -5 -6 17 vhcurveto
          22 -91 rlineto
          53 hlineto
          11 145 rlineto
          18 -56 -59 9 -60 hhcurveto
          -135 -78 -67 -116 -99 60 -50 48 -21 hvcurveto
          92 -40 rlineto
          58 -26 28 -21 -48 vvcurveto
          -51 -45 -26 -69 -39 -36 9 6 -21 vhcurveto
          -37 callgsubr
          48 -19 64 -9 52 -2 rlinecurve
          -23 -65 -64 callsubr
          endchar
        </CharString>
        <CharString name="Scircumflex">
          -74 371 640 -96 callsubr
          -201 -272 -88 callsubr
          endchar
        </CharString>
        <CharString name="Scommaaccent">
          -74 215 -9 -42 callgsubr
          -35 -220 -51 callsubr
        </CharString>
        <CharString name="T">
          -12 callsubr
          endchar
        </CharString>
        <CharString name="Tbar">
          -18 449 546 rmoveto
          20 -91 rlineto
          57 hlineto
          6 159 rlineto
          -525 hlineto
          7 -159 rlineto
          55 hlineto
          19 91 rlineto
          114 -203 -163 -55 163 -219 hlineto
          -84 -24 rlineto
          -45 304 -13 callgsubr
          219 166 55 -166 203 vlineto
          endchar
        </CharString>
        <CharString name="Tcaron">
          -18 229 -79 callgsubr
          -1 -775 rmoveto
          304 -32 callsubr
          endchar
        </CharString>
        <CharString name="Thorn">
          -15 36 hmoveto
          304 45 hlineto
          -12 callgsubr
          68 vlineto
          -3 9 38 -1 3 hhcurveto
          101 111 50 129 108 -90 55 -121 hvcurveto
          -51 71 hlineto
          85 23 rlineto
          -63 callgsubr
          247 138 rmoveto
          -12 -9 1 2 -7 hvcurveto
          227 28 vlineto
          74 34 -41 -67 -70 -36 -52 -72 hvcurveto
          endchar
        </CharString>
        <CharString name="U">
          104 572 236 -103 callgsubr
          endchar
        </CharString>
        <CharString name="Uacute">
          104 259 634 -82 callsubr
          340 -433 -103 callgsubr
          endchar
        </CharString>
        <CharString name="Ubreve">
          104 327 -58 callgsubr
          245 -415 -103 callgsubr
          endchar
        </CharString>
        <CharString name="Ucircumflex">
          104 479 640 -96 callsubr
          222 -481 -103 callgsubr
          endchar
        </CharString>
        <CharString name="Udieresis">
          104 314 719 -102 callgsubr
          27 -483 -103 callgsubr
          endchar
        </CharString>
        <CharString name="Ugrave">
          104 426 634 -52 callsubr
          378 -507 -103 callgsubr
          endchar
        </CharString>
        <CharString name="Uhorn">
          104 685 678 -90 callgsubr
          endchar
        </CharString>
        <CharString name="Uhungarumlaut">
          104 248 631 -61 callsubr
          194 -418 -103 callgsubr
          endchar
        </CharString>
        <CharString name="Umacron">
          104 241 758 -27 callgsubr
          90 -522 -103 callgsubr
          endchar
        </CharString>
        <CharString name="Uogonek">
          104 377 11 callsubr
          77 49 36 61 37 hvcurveto
          85 52 17 104 56 vvcurveto
          -41 callsubr
          -245 -101 callgsubr
          7 19 2 4 13 vhcurveto
          -62 -46 -38 -50 -48 vvcurveto
          -42 23 -44 79 vhcurveto
          endchar
        </CharString>
        <CharString name="Uring">
          104 362 -51 callgsubr
          -26 -683 rmoveto
          -45 callsubr
          hvcurveto
          -41 callsubr
          -245 -101 callgsubr
          vhcurveto
          endchar
        </CharString>
        <CharString name="Utilde">
          104 529 765 -98 callgsubr
          43 -529 rmoveto
          -41 callsubr
          -245 -45 vlineto
          15 callsubr
          -110 -41 -81 -100 -114 -16 90 121 vhcurveto
          281 -86 callgsubr
          -281 vlineto
          -148 38 -126 207 -45 callsubr
          vhcurveto
          endchar
        </CharString>
        <CharString name="V">
          28 267 -10 rmoveto
          77 13 185 542 71 25 rlineto
          44 -220 -45 vlineto
          68 -23 -113 -352 -4 -14 -4 13 -118 356 65 20 rlineto
          45 -278 -45 vlineto
          71 -24 rlineto
          endchar
        </CharString>
        <CharString name="W">
          244 595 614 -69 callgsubr
        </CharString>
        <CharString name="Wacute">
          244 586 743 rmoveto
          10 callgsubr
          27 -35 rlineto
          237 -20 -69 callgsubr
        </CharString>
        <CharString name="Wcircumflex">
          244 396 717 rmoveto
          19 callgsubr
          26 -25 rlineto
          325 -26 -69 callgsubr
        </CharString>
        <CharString name="Wdieresis">
          244 282 647 -49 callgsubr
          81 -33 -69 callgsubr
        </CharString>
        <CharString name="Wgrave">
          244 453 4 callgsubr
          165 -20 -69 callgsubr
        </CharString>
        <CharString name="X">
          57 234 46 rmoveto
          -71 19 114 171 110 -171 -62 -16 rlineto
          -49 282 45 vlineto
          -77 20 -161 259 155 225 67 20 rlineto
          45 -228 -49 vlineto
          72 -16 -108 -160 -103 160 72 16 rlineto
          49 -282 -45 vlineto
          67 -20 155 -246 -162 -238 -67 -20 rlineto
          -45 227 vlineto
          endchar
        </CharString>
        <CharString name="Y">
          18 358 568 rmoveto
          -77 callsubr
          -220 vlineto
          endchar
        </CharString>
        <CharString name="Y.loclGUA">
          127 199 -81 rmoveto
          -32 callgsubr
          -95 callsubr
          endchar
        </CharString>
        <CharString name="Yacute">
          18 237 634 -82 callsubr
          148 -101 rmoveto
          -77 callsubr
          -220 vlineto
          endchar
        </CharString>
        <CharString name="Yacute.loclGUA">
          127 269 634 -82 callsubr
          -43 -750 rmoveto
          -32 callgsubr
          -95 callsubr
          endchar
        </CharString>
        <CharString name="Ycircumflex">
          18 434 640 -96 callsubr
          53 -149 rmoveto
          -77 callsubr
          -220 vlineto
          endchar
        </CharString>
        <CharString name="Ycircumflex.loclGUA">
          127 215 9 callgsubr
          115 -833 rmoveto
          -95 callsubr
          -32 callgsubr
          endchar
        </CharString>
        <CharString name="Ydieresis">
          18 197 647 -49 callgsubr
          -282 -647 -19 callgsubr
        </CharString>
        <CharString name="Ydieresis.loclGUA">
          127 306 719 -102 callgsubr
          -338 -800 rmoveto
          -32 callgsubr
          -95 callsubr
          endchar
        </CharString>
        <CharString name="Ygrave">
          18 396 634 -52 callsubr
          -17 -743 -19 callgsubr
        </CharString>
        <CharString name="Ygrave.loclGUA">
          127 432 634 -52 callsubr
          -1 -824 rmoveto
          -32 callgsubr
          -95 callsubr
          endchar
        </CharString>
        <CharString name="Z">
          -57 472 162 -73 callgsubr
          endchar
        </CharString>
        <CharString name="Zacute">
          -57 180 634 -82 callsubr
          319 -507 -73 callgsubr
          endchar
        </CharString>
        <CharString name="Zacute.loclPLK">
          -57 251 631 -52 callgsubr
          252 -492 -73 callgsubr
          endchar
        </CharString>
        <CharString name="Zcaron">
          -57 224 -79 callgsubr
          -75 -775 rmoveto
          425 hlineto
          8 162 rlineto
          -56 hlineto
          -38 -93 rlineto
          -199 hlineto
          301 512 -5 33 rlineto
          -436 hlineto
          10 -146 rlineto
          58 hlineto
          24 78 rlineto
          196 hlineto
          -306 -513 rlineto
          endchar
        </CharString>
        <CharString name="Zdotaccent">
          -57 347 -30 callsubr
          125 -553 -73 callgsubr
          endchar
        </CharString>
        <CharString name="a">
          -41 233 426 -107 callgsubr
          endchar
        </CharString>
        <CharString name="aacute">
          -41 177 -74 callsubr
          83 -167 -107 callgsubr
          endchar
        </CharString>
        <CharString name="abreve">
          -41 245 -64 callgsubr
          -12 -148 -107 callgsubr
          endchar
        </CharString>
        <CharString name="acircumflex">
          -41 356 559 -84 callgsubr
          -4 -218 -107 callgsubr
          endchar
        </CharString>
        <CharString name="acute">
          -302 27 -74 callsubr
          endchar
        </CharString>
        <CharString name="acute.case">
          -302 27 634 -82 callsubr
          endchar
        </CharString>
        <CharString name="acute.loclPLK">
          -302 88 552 -52 callgsubr
          endchar
        </CharString>
        <CharString name="acute.loclPLK.case">
          -302 96 631 -52 callgsubr
          endchar
        </CharString>
        <CharString name="acutecomb">
          -557 -228 634 -82 callsubr
          endchar
        </CharString>
        <CharString name="adieresis">
          -41 212 648 -102 callgsubr
          -210 -222 -107 callgsubr
          endchar
        </CharString>
        <CharString name="ae">
          181 147 -10 -57 callsubr
        </CharString>
        <CharString name="aeacute">
          181 288 -74 callsubr
          -114 -603 -57 callsubr
        </CharString>
        <CharString name="agrave">
          -41 324 -45 callgsubr
          141 -241 -107 callgsubr
          endchar
        </CharString>
        <CharString name="amacron">
          -41 121 685 -27 callgsubr
          -129 -259 -107 callgsubr
          endchar
        </CharString>
        <CharString name="ampersand">
          42 408 42 rmoveto
          45 -42 rlineto
          179 45 hlineto
          -79 21 -73 77 26 50 9 48 4 43 rlinecurve
          76 13 rlineto
          45 -184 -44 vlineto
          33 -13 rlineto
          -30 -3 -28 -10 -28 vhcurveto
          -59 66 -47 53 -26 26 rrcurveto
          82 49 60 35 85 vvcurveto
          77 -73 39 -93 -67 -112 -30 -110 -45 24 -49 41 -55 vhcurveto
          -68 -36 -65 -51 -99 vvcurveto
          -76 54 -84 145 83 59 20 28 39 vhcurveto
          -193 463 rmoveto
          36 21 21 35 48 14 -37 -24 -53 -34 -24 -41 -24 vhcurveto
          -23 28 -20 39 38 vvcurveto
          38 -453 rmoveto
          -71 -36 50 74 43 17 35 33 27 hvcurveto
          54 -71 76 -72 46 -50 rrcurveto
          -22 -24 -45 -14 -50 hhcurveto
          endchar
        </CharString>
        <CharString name="ampersand.001">
          42 408 48 rmoveto
          45 -48 rlineto
          179 45 hlineto
          -79 22 -73 81 26 52 9 52 4 47 rlinecurve
          76 14 rlineto
          45 -184 -44 vlineto
          33 -14 rlineto
          -35 -3 -31 -10 -30 vhcurveto
          -59 67 -47 56 -26 33 rrcurveto
          82 50 60 39 89 vvcurveto
          82 -73 41 -93 -67 -112 -31 -116 -47 24 -53 41 -57 vhcurveto
          -68 -38 -65 -54 -105 vvcurveto
          -81 54 -86 145 83 59 22 33 39 vhcurveto
          -193 482 rmoveto
          40 21 24 35 48 14 -41 -28 -56 -34 -27 -41 -26 vhcurveto
          -23 32 -20 41 41 vvcurveto
          38 -476 rmoveto
          -71 -36 50 80 48 17 36 33 30 hvcurveto
          54 -76 76 -75 46 -53 rrcurveto
          -25 -24 -45 -15 -50 hhcurveto
          endchar
        </CharString>
        <CharString name="aogonek">
          -29 499 -149 rmoveto
          -9 -13 -21 -13 -26 hhcurveto
          -28 -16 14 32 42 30 77 85 18 hvcurveto
          -21 callsubr
          -100 callgsubr
          46 18 -17 -53 hvcurveto
          -70 vlineto
          -135 -28 rlineto
          -101 -21 -27 -71 -53 vvcurveto
          -75 44 -48 74 57 42 22 36 49 vhcurveto
          -36 10 45 -17 46 hhcurveto
          -55 -41 -36 -55 -48 vvcurveto
          -43 25 -41 78 60 34 38 24 15 vhcurveto
          -225 269 rmoveto
          -12 -17 -34 -15 -28 hhcurveto
          -32 -20 17 39 44 17 28 54 14 hvcurveto
          60 15 rlineto
          endchar
        </CharString>
        <CharString name="approxequal">
          -47 79 313 -4 callgsubr
          49 -182 -4 callgsubr
          endchar
        </CharString>
        <CharString name="aring">
          -41 358 -33 callsubr
          -11 -281 -107 callgsubr
          endchar
        </CharString>
        <CharString name="aringacute">
          -41 257 505 -22 callsubr
          175 -566 -77 callgsubr
        </CharString>
        <CharString name="arrowdown">
          1 61 325 rmoveto
          216 -297 rlineto
          16 hlineto
          202 297 -38 41 -132 -156 14 294 rlineto
          -106 hlineto
          11 -296 -142 157 rlineto
          endchar
        </CharString>
        <CharString name="arrowleft">
          1 220 308 rmoveto
          157 132 -41 37 -296 -201 rlineto
          -17 vlineto
          296 -215 40 39 -158 144 298 -11 rlineto
          106 vlineto
          endchar
        </CharString>
        <CharString name="arrowright">
          1 220 44 rmoveto
          298 215 rlineto
          17 vlineto
          -298 201 -40 -37 157 -132 -295 14 rlineto
          -106 vlineto
          296 11 -157 -144 rlineto
          endchar
        </CharString>
        <CharString name="arrowup">
          1 496 199 rmoveto
          -215 294 rlineto
          -19 hlineto
          -200 -294 37 -41 134 156 -13 -295 rlineto
          105 hlineto
          -11 297 142 -157 rlineto
          endchar
        </CharString>
        <CharString name="asciicircum">
          -105 19 249 rmoveto
          90 hlineto
          117 240 116 -240 rlineto
          90 hlineto
          -181 365 rlineto
          -50 hlineto
          endchar
        </CharString>
        <CharString name="asciitilde">
          -40 163 249 rmoveto
          66 45 -54 65 hhcurveto
          50 44 34 69 38 hvcurveto
          -52 27 rlineto
          -39 -25 -16 -13 -35 -53 -60 52 -63 hhcurveto
          -43 -42 -29 -69 -33 hvcurveto
          48 -26 rlineto
          34 25 18 14 23 hhcurveto
          endchar
        </CharString>
        <CharString name="asterisk">
          -205 120 416 rmoveto
          50 100 rlineto
          11 hlineto
          51 -100 85 61 -79 81 3 10 111 18 -30 99 -103 -52 -9 6 16 114 rlineto
          -102 hlineto
          17 -114 -6 -6 -106 52 -29 -99 110 -18 3 -10 -78 -81 rlineto
          endchar
        </CharString>
        <CharString name="at">
          195 154 240 rmoveto
          139 63 109 171 147 68 -94 -110 -108 -29 -53 -43 -15 0 19 12 vhcurveto
          173 vlineto
          66 -51 21 -78 -53 -53 -18 -23 -49 vhcurveto
          17 -47 rlineto
          11 30 50 16 34 hhcurveto
          26 20 -9 -33 hvcurveto
          -34 vlineto
          -101 -27 rlineto
          -79 -22 -8 -44 -30 vvcurveto
          -52 33 -47 65 34 36 16 25 27 vhcurveto
          -25 15 30 -17 38 hhcurveto
          103 107 66 150 136 -67 150 -265 -240 -93 -158 -154 -170 90 -152 219 77 93 20 43 88 hvcurveto
          -16 52 rlineto
          -31 -90 -77 -16 -59 hhcurveto
          -126 -89 70 180 hvcurveto
          206 -36 rmoveto
          49 12 rlineto
          -76 vlineto
          -9 -19 -17 -6 -15 hhcurveto
          -19 -15 9 27 21 8 12 28 10 hvcurveto
          endchar
        </CharString>
        <CharString name="atilde">
          -41 419 687 rmoveto
          -75 callgsubr
          -54 callsubr
          -186 -261 -107 callgsubr
          endchar
        </CharString>
        <CharString name="b">
          -6 206 475 rmoveto
          256 -90 callsubr
          -616 vlineto
          -15 51 93 -12 56 hhcurveto
          206 49 134 126 174 -82 78 -134 -39 -42 -13 -14 -23 hvcurveto
          -404 vmoveto
          344 vlineto
          13 21 20 7 29 hhcurveto
          85 20 -67 -120 -124 -22 -66 -84 -31 -26 5 8 -12 hvcurveto
          endchar
        </CharString>
        <CharString name="backslash">
          -181 102 698 rmoveto
          -99 hlineto
          274 -837 rlineto
          96 hlineto
          endchar
        </CharString>
        <CharString name="bar">
          -184 244 698 rmoveto
          -115 -837 115 hlineto
          endchar
        </CharString>
        <CharString name="braceleft">
          -222 105 678 rmoveto
          21 -374 -73 -37 rlineto
          -15 vlineto
          73 -34 -21 -376 186 -35 11 41 -91 37 27 344 -78 31 78 31 -27 344 91 37 -11 43 rlineto
          endchar
        </CharString>
        <CharString name="braceright">
          -222 44 -193 rmoveto
          186 35 -21 376 73 34 rlineto
          15 vlineto
          -73 37 21 374 -186 37 -11 -43 91 -37 -27 -344 78 -31 -78 -31 27 -344 -91 -37 rlineto
          endchar
        </CharString>
        <CharString name="bracketleft">
          -222 308 -167 rmoveto
          48 vlineto
          -119 9 rlineto
          753 vlineto
          119 8 rlineto
          47 -235 -865 vlineto
          endchar
        </CharString>
        <CharString name="bracketright">
          -222 26 698 rmoveto
          -47 vlineto
          119 -8 rlineto
          -753 vlineto
          -119 -9 rlineto
          -48 234 865 vlineto
          endchar
        </CharString>
        <CharString name="breve">
          -302 121 -64 callgsubr
          endchar
        </CharString>
        <CharString name="breve.case">
          -302 124 -58 callgsubr
          endchar
        </CharString>
        <CharString name="brokenbar">
          -152 244 698 rmoveto
          -115 -323 115 hlineto
          -190 vmoveto
          -115 -324 115 hlineto
          endchar
        </CharString>
        <CharString name="bullet">
          -90 380 349 rmoveto
          81 -66 64 -80 -80 -67 -64 -81 -81 67 -64 80 80 66 64 81 vhcurveto
          endchar
        </CharString>
        <CharString name="c">
          -109 255 -10 -81 callgsubr
        </CharString>
        <CharString name="cacute">
          -109 180 -74 callsubr
          102 -603 -81 callgsubr
        </CharString>
        <CharString name="cacute.loclPLK">
          -109 244 552 -52 callgsubr
          42 -585 -81 callgsubr
        </CharString>
        <CharString name="caron">
          -302 11 -70 callgsubr
          endchar
        </CharString>
        <CharString name="caron.case">
          -302 85 -79 callgsubr
          endchar
        </CharString>
        <CharString name="ccaron">
          -109 133 -70 callgsubr
          6 -663 -81 callgsubr
        </CharString>
        <CharString name="ccedilla">
          -109 219 -220 rmoveto
          -15 callgsubr
          11 36 64 3 62 23 40 29 rlinecurve
          -8 44 rlineto
          -18 -62 -47 -6 -36 hhcurveto
          -74 -36 32 149 105 15 84 85 22 17 -4 -9 22 hvcurveto
          21 -92 rlineto
          59 hlineto
          20 140 rlineto
          21 -56 -51 11 -69 hhcurveto
          -166 -64 -115 -143 -128 56 -109 140 -15 hvcurveto
          -24 -65 -64 callsubr
          endchar
        </CharString>
        <CharString name="ccircumflex">
          -109 383 559 -84 callgsubr
          -9 -654 -81 callgsubr
        </CharString>
        <CharString name="cdotaccent">
          -109 348 -30 callgsubr
          -93 -656 -81 callgsubr
        </CharString>
        <CharString name="cedilla">
          -302 123 -46 rmoveto
          16 52 rlineto
          -46 hlineto
          -29 -79 -64 callsubr
          -15 callgsubr
          endchar
        </CharString>
        <CharString name="cent">
          -19 249 37 rmoveto
          -123 67 119 vlineto
          61 3 53 23 42 29 -8 40 rcurveline
          -19 -49 -51 -10 -48 hhcurveto
          -90 -31 67 144 118 23 91 92 19 25 -5 -7 14 hvcurveto
          22 -94 rlineto
          69 hlineto
          10 134 -36 14 -52 13 -50 5 rlinecurve
          122 -65 -122 vlineto
          -129 -16 -83 -103 -152 vvcurveto
          -140 54 -110 141 -21 vhcurveto
          endchar
        </CharString>
        <CharString name="circumflex">
          -302 246 559 -84 callgsubr
          endchar
        </CharString>
        <CharString name="circumflex.case">
          -302 256 640 -96 callsubr
          endchar
        </CharString>
        <CharString name="colon">
          -329 198 13 callgsubr
          -320 vmoveto
          -4 callsubr
        </CharString>
        <CharString name="comma">
          -350 80 -115 rmoveto
          94 228 -29 28 -102 -22 -14 -225 rlineto
          endchar
        </CharString>
        <CharString name="commaaccentInverted">
          -387 103 773 rmoveto
          -80 -188 25 -24 90 20 9 185 rlineto
          endchar
        </CharString>
        <CharString name="copyright">
          -62 5 454 rmoveto
          -133 110 -111 133 7 callsubr
          vhcurveto
          37 hmoveto
          14 callsubr
          -112 -95 97 114 vhcurveto
          306 -141 rmoveto
          -4 66 rlineto
          -33 hlineto
          -13 -45 rlineto
          -5 -17 -10 -1 -13 hhcurveto
          -61 -19 63 61 63 15 63 67 12 10 -2 -4 16 hvcurveto
          7 -50 rlineto
          33 hlineto
          10 76 rlineto
          9 -30 -34 6 -33 hhcurveto
          -110 -43 -72 -89 -87 44 -72 109 39 29 7 13 29 hvcurveto
          endchar
        </CharString>
        <CharString name="currency">
          -19 50 79 rmoveto
          47 -50 55 54 rlineto
          -23 33 40 -13 44 hhcurveto
          43 41 12 24 33 hvcurveto
          54 -53 47 50 -53 51 rlineto
          25 33 13 42 43 vvcurveto
          43 -15 40 -23 34 vhcurveto
          53 53 -48 48 -53 -53 rlineto
          24 -33 -41 14 -43 hhcurveto
          -44 -40 -14 -24 -33 hvcurveto
          -52 54 -50 -49 53 -53 rlineto
          -23 -34 -14 -40 -43 vvcurveto
          -43 14 -42 23 -33 vhcurveto
          47 118 rmoveto
          66 53 54 65 66 54 -54 -66 -65 -54 -53 -66 -65 -53 53 65 vhcurveto
          endchar
        </CharString>
        <CharString name="d">
          -39 callgsubr
          endchar
        </CharString>
        <CharString name="dagger">
          -101 292 hmoveto
          -23 440 2 callgsubr
          -440 rlineto
          endchar
        </CharString>
        <CharString name="daggerdbl">
          -101 167 hmoveto
          121 hlineto
          -20 140 134 -18 rlineto
          108 vlineto
          -135 -20 25 115 -23 115 2 callgsubr
          -115 23 -115 -134 20 rlineto
          -108 vlineto
          133 18 rlineto
          endchar
        </CharString>
        <CharString name="dcaron">
          62 562 -3 callsubr
          -327 -766 rmoveto
          15 callgsubr
          -67 callgsubr
          hvcurveto
          66 81 -16 callgsubr
        </CharString>
        <CharString name="dcroat">
          11 483 83 rmoveto
          480 57 60 -57 108 -67 callsubr
          -19 rlineto
          -48 vlineto
          78 -11 rlineto
          -30 -161 -60 161 -88 vlineto
          3 -4 -48 24 -55 hhcurveto
          -134 -78 -98 -160 -133 53 -121 112 15 callgsubr
          -35 11 44 -18 44 hhcurveto
          33 32 5 12 46 hvcurveto
          43 vlineto
          -213 50 rmoveto
          -16 -15 -37 -18 -36 hhcurveto
          -62 -24 72 103 115 31 74 67 24 34 -11 -16 18 hvcurveto
          endchar
        </CharString>
        <CharString name="degree">
          -114 380 559 rmoveto
          87 -71 73 -88 -86 -72 -73 -87 -88 72 -69 86 88 71 69 88 vhcurveto
          -159 108 rmoveto
          58 34 -48 -60 -60 -34 -46 -58 -58 -33 46 60 60 33 48 58 hvcurveto
          endchar
        </CharString>
        <CharString name="dieresis">
          -302 88 648 -102 callgsubr
          endchar
        </CharString>
        <CharString name="dieresis.case">
          -302 88 719 -102 callgsubr
          endchar
        </CharString>
        <CharString name="divide">
          -47 256 389 14 callgsubr
          -208 -127 11 callgsubr
          208 -254 14 callgsubr
          endchar
        </CharString>
        <CharString name="dollar">
          -19 225 -118 rmoveto
          66 123 hlineto
          122 13 61 67 85 vvcurveto
          89 -38 48 -66 28 vhcurveto
          -103 44 rlineto
          -52 22 -36 23 50 vvcurveto
          66 61 17 52 22 39 -5 -5 16 vhcurveto
          22 -94 rlineto
          52 hlineto
          10 134 -47 15 -49 12 -49 3 rlinecurve
          101 -68 -103 vlineto
          -109 -12 -63 -64 -100 vvcurveto
          -94 44 -41 57 -24 vhcurveto
          101 -43 rlineto
          60 -25 28 -19 -45 vvcurveto
          -55 -45 -31 -73 -38 -37 9 6 -22 vhcurveto
          -15 82 rlineto
          -55 hlineto
          -14 -127 50 -18 62 -10 54 -2 rlinecurve
          endchar
        </CharString>
        <CharString name="dotaccent">
          -302 211 -30 callgsubr
          endchar
        </CharString>
        <CharString name="dotaccent.case">
          -302 211 -30 callsubr
          endchar
        </CharString>
        <CharString name="dotbelowcomb">
          -557 -44 -128 -102 callsubr
          endchar
        </CharString>
        <CharString name="dotlessi">
          -228 316 50 rmoveto
          -83 callsubr
          -50 291 vlineto
          endchar
        </CharString>
        <CharString name="e">
          -76 265 -10 -104 callgsubr
        </CharString>
        <CharString name="eacute">
          -76 173 -74 callsubr
          119 -603 -104 callgsubr
        </CharString>
        <CharString name="ebreve">
          -76 234 -64 callgsubr
          31 -584 -104 callgsubr
        </CharString>
        <CharString name="ecaron">
          -76 207 12 callgsubr
          167 -718 -104 callgsubr
        </CharString>
        <CharString name="ecircumflex">
          -76 133 -11 callgsubr
          168 -599 -104 callgsubr
        </CharString>
        <CharString name="edieresis">
          -76 131 576 -49 callgsubr
          -98 -586 -104 callgsubr
        </CharString>
        <CharString name="edotaccent">
          -76 251 566 -35 callgsubr
          14 -576 -104 callgsubr
        </CharString>
        <CharString name="egrave">
          -76 333 -45 callgsubr
          164 -677 -104 callgsubr
        </CharString>
        <CharString name="eight">
          -47 callgsubr
        </CharString>
        <CharString name="eight.dnom">
          41 96 -101 callsubr
        </CharString>
        <CharString name="eight.numr">
          41 270 -101 callsubr
        </CharString>
        <CharString name="eight.osf">
          -47 callgsubr
        </CharString>
        <CharString name="ellipsis">
          6 37 62 rmoveto
          -40 33 -30 40 40 33 30 40 43 -33 33 -40 -40 -33 30 callgsubr
          34 30 40 43 -34 33 -41 -39 -32 30 callgsubr
          33 30 40 43 -33 33 -41 -39 -32 -33 -43 vhcurveto
          endchar
        </CharString>
        <CharString name="emacron">
          -76 122 606 rmoveto
          241 79 -241 hlineto
          143 -695 -104 callgsubr
        </CharString>
        <CharString name="emdash">
          277 833 203 rmoveto
          74 -833 -74 vlineto
          endchar
        </CharString>
        <CharString name="endash">
          163 720 203 rmoveto
          74 -720 -74 vlineto
          endchar
        </CharString>
        <CharString name="eng">
          55 414 502 rmoveto
          -63 -87 -28 -12 -26 hvcurveto
          -60 callgsubr
          -45 -2 callsubr
          7 25 27 5 44 hhcurveto
          55 14 -8 -49 hvcurveto
          -383 vlineto
          -33 -20 -40 -53 vhcurveto
          -45 hlineto
          -6 -47 rlineto
          -20 42 45 -9 23 hhcurveto
          71 78 54 170 hvcurveto
          342 vlineto
          77 -59 27 -65 vhcurveto
          endchar
        </CharString>
        <CharString name="eogonek">
          -76 337 -233 rmoveto
          59 35 38 24 15 hvcurveto
          -3 callgsubr
          87 82 46 50 37 -75 callsubr
          282 vlineto
          3 17 1 37 12 vvcurveto
          132 -61 60 -140 -71 callgsubr
          21 20 2 3 18 vhcurveto
          -46 -34 -44 -55 -54 vvcurveto
          -43 25 -42 78 vhcurveto
          -165 531 -68 callsubr
          endchar
        </CharString>
        <CharString name="equal">
          -47 40 350 11 callgsubr
          -256 vmoveto
          414 79 -414 hlineto
          endchar
        </CharString>
        <CharString name="estimated">
          142 170 289 rmoveto
          489 14 hlineto
          176 -140 140 -176 -174 -141 -140 -176 -174 141 -141 174 103 108 53 78 49 vhcurveto
          -67 hlineto
          -51 -50 -60 -33 -82 hhcurveto
          -75 -47 29 44 -50 hvcurveto
          -3 4 -4 7 8 vvcurveto
          159 vlineto
          2 3 1 2 vhcurveto
          349 193 rmoveto
          -144 vlineto
          -2 -1 -2 -2 vhcurveto
          -346 hlineto
          -2 -3 2 2 hvcurveto
          141 vlineto
          8 4 7 4 6 vhcurveto
          38 31 58 38 82 hhcurveto
          89 44 -30 -44 35 hvcurveto
          4 -5 3 -7 -8 vvcurveto
          endchar
        </CharString>
        <CharString name="eth">
          -19 270 -10 rmoveto
          199 51 144 143 hvcurveto
          -1 170 -56 116 -67 78 94 54 rcurveline
          -31 52 -107 -62 -51 46 -52 26 -33 11 rlinecurve
          -36 -49 22 -18 33 -27 32 -38 rlinecurve
          -101 -58 30 -52 108 62 19 -27 17 -32 15 -37 rlinecurve
          6 -25 -29 4 -31 20 callsubr
          hvcurveto
          4 68 -21 callgsubr
        </CharString>
        <CharString name="exclam">
          -318 162 188 rmoveto
          30 426 rlineto
          -147 hlineto
          30 -426 rlineto
          -24 -130 rmoveto
          -38 28 -28 40 38 30 28 38 38 -30 33 -38 -40 -28 -33 -38 vhcurveto
          endchar
        </CharString>
        <CharString name="exclamdown">
          -318 52 435 rmoveto
          -38 28 -30 40 38 30 30 38 38 -30 29 -38 -40 -28 -29 -38 vhcurveto
          141 -556 rmoveto
          -30 428 rlineto
          -87 hlineto
          -30 -428 rlineto
          endchar
        </CharString>
        <CharString name="f">
          -171 30 hmoveto
          331 55 hlineto
          -118 19 rlineto
          348 vlineto
          148 -9 rlineto
          79 -150 29 vlineto
          -53 callgsubr
          endchar
        </CharString>
        <CharString name="f_f">
          215 30 hmoveto
          331 55 hlineto
          -118 19 rlineto
          348 vlineto
          148 -9 rlineto
          79 -150 29 vlineto
          -53 callgsubr
          386 -50 rmoveto
          331 55 hlineto
          -118 19 rlineto
          348 vlineto
          148 -9 rlineto
          79 -150 29 vlineto
          -53 callgsubr
          endchar
        </CharString>
        <CharString name="fi">
          101 30 hmoveto
          273 45 hlineto
          -60 25 rlineto
          352 179 -352 vlineto
          -60 17 callsubr
          50 vlineto
          -78 20 rlineto
          432 vlineto
          -316 -11 rlineto
          30 vlineto
          71 18 56 90 19 24 -3 -3 17 vhcurveto
          18 -80 rlineto
          75 hlineto
          19 145 rlineto
          11 -16 -79 13 -48 hhcurveto
          -171 -99 -83 -141 hvcurveto
          -83 -39 rlineto
          -48 83 -350 27 callgsubr
          endchar
        </CharString>
        <CharString name="five">
          -47 431 614 rmoveto
          -338 hlineto
          -27 -271 30 -30 rlineto
          152 79 -31 -104 -74 -54 -41 -75 -33 -33 7 27 -75 hvcurveto
          -23 -73 rlineto
          -21 57 68 -16 68 hhcurveto
          157 78 79 116 97 -29 99 -266 8 hvcurveto
          11 148 rlineto
          253 hlineto
          endchar
        </CharString>
        <CharString name="five.dnom">
          338 430 -63 callsubr
          9 106 rlineto
          173 hlineto
          endchar
        </CharString>
        <CharString name="five.numr">
          338 603 -63 callsubr
          9 106 rlineto
          173 hlineto
          endchar
        </CharString>
        <CharString name="five.osf">
          -47 191 -100 rmoveto
          178 88 80 124 124 -87 72 -203 hvcurveto
          11 148 rlineto
          253 80 -338 hlineto
          -27 -271 30 -30 rlineto
          110 -1 115 -4 -117 vvcurveto
          -88 -64 -46 -100 -26 -30 3 6 -45 vhcurveto
          -5 -65 rlineto
          -12 50 55 -3 35 hhcurveto
          endchar
        </CharString>
        <CharString name="fiveeighths">
          465 426 -48 callgsubr
          -5 673 -63 callsubr
          9 106 rlineto
          173 hlineto
          312 -450 -101 callsubr
        </CharString>
        <CharString name="fl">
          89 30 hmoveto
          273 45 hlineto
          -60 26 rlineto
          351 vlineto
          121 -9 rlineto
          79 -123 29 vlineto
          83 17 49 79 55 20 -17 -3 8 vhcurveto
          -559 vlineto
          -67 -29 rlineto
          -45 280 46 vlineto
          -78 24 rlineto
          661 -44 vlineto
          -19 -20 rlineto
          11 -22 -54 14 -62 hhcurveto
          -147 -99 -102 -127 hvcurveto
          -83 -39 rlineto
          -48 83 -350 27 callgsubr
          endchar
        </CharString>
        <CharString name="florin">
          -112 388 553 rmoveto
          11 -64 rlineto
          50 hlineto
          10 108 rlineto
          12 -39 -43 9 -45 hhcurveto
          -110 -68 -69 -163 -19 hvcurveto
          -86 hlineto
          -8 -54 rlineto
          87 hlineto
          -43 -340 rlineto
          -70 -9 -33 -30 -26 hhcurveto
          -24 -35 1 0 hvcurveto
          -5 -40 rlineto
          -14 32 40 -10 26 hhcurveto
          69 62 40 94 13 hvcurveto
          51 369 rlineto
          134 hlineto
          7 54 rlineto
          -134 hlineto
          112 13 20 61 60 hhcurveto
          18 9 -1 -5 15 hvcurveto
          endchar
        </CharString>
        <CharString name="four">
          -47 280 hmoveto
          123 135 -1 callsubr
        </CharString>
        <CharString name="four.dnom">
          222 hmoveto
          -60 callsubr
        </CharString>
        <CharString name="four.numr">
          222 172 rmoveto
          -60 callsubr
        </CharString>
        <CharString name="four.osf">
          -47 280 -90 rmoveto
          123 144 -1 callsubr
        </CharString>
        <CharString name="fraction">
          -307 85 -48 callgsubr
          endchar
        </CharString>
        <CharString name="g">
          -42 234 -177 -97 callgsubr
        </CharString>
        <CharString name="g_tilde.loclGUA">
          -42 339 583 rmoveto
          -54 callsubr
          -75 callgsubr
          -109 -760 -76 callsubr
        </CharString>
        <CharString name="gbreve">
          -27 244 -64 callgsubr
          -12 -751 -76 callsubr
        </CharString>
        <CharString name="gcaron">
          -42 142 -70 callgsubr
          -24 -830 -97 callgsubr
        </CharString>
        <CharString name="gcircumflex">
          -42 377 559 -84 callgsubr
          -24 -821 -97 callgsubr
        </CharString>
        <CharString name="gcommaaccent">
          -27 219 561 rmoveto
          90 20 9 185 -44 7 -80 -188 rlineto
          38 -762 -76 callsubr
        </CharString>
        <CharString name="gdotaccent">
          -42 342 -30 callgsubr
          -108 -823 -97 callgsubr
        </CharString>
        <CharString name="germandbls">
          81 441 -10 rmoveto
          117 65 53 89 hvcurveto
          132 -190 59 63 73 98 11 90 vvcurveto
          77 -69 72 -125 -147 -82 -92 -110 vhcurveto
          -83 -39 rlineto
          -48 83 -350 -36 callgsubr
          -50 211 521 vlineto
          65 20 48 72 71 2 -66 -13 vhcurveto
          -126 -96 26 -99 -107 191 -58 -88 vvcurveto
          -31 -13 -22 -47 -25 -17 3 7 -16 vhcurveto
          -19 85 rlineto
          -52 hlineto
          -11 -130 rlineto
          -16 47 31 -9 62 hhcurveto
          endchar
        </CharString>
        <CharString name="grave">
          -302 232 -45 callgsubr
          endchar
        </CharString>
        <CharString name="grave.case">
          -302 232 634 -52 callsubr
          endchar
        </CharString>
        <CharString name="gravecomb">
          -557 -23 634 -52 callsubr
          endchar
        </CharString>
        <CharString name="greater">
          -47 82 97 rmoveto
          382 204 -382 204 -42 -70 266 -134 -266 -134 rlineto
          endchar
        </CharString>
        <CharString name="greaterequal">
          -47 83 107 rmoveto
          384 194 -384 194 -40 -67 266 -127 -266 -127 rlineto
          4 -174 11 callgsubr
          endchar
        </CharString>
        <CharString name="guillemotleft">
          -142 13 callsubr
          171 -357 rmoveto
          53 35 -77 143 77 145 -53 34 -141 -179 rlineto
          endchar
        </CharString>
        <CharString name="guillemotright">
          -142 229 239 rmoveto
          -142 179 32 callsubr
          rlineto
          172 357 rmoveto
          -52 -34 76 -145 -76 -143 52 -35 140 178 rlineto
          endchar
        </CharString>
        <CharString name="guilsinglleft">
          -313 13 callsubr
          endchar
        </CharString>
        <CharString name="guilsinglright">
          -313 87 418 rmoveto
          32 callsubr
          141 178 rlineto
          endchar
        </CharString>
        <CharString name="h">
          66 610 hmoveto
          -54 callgsubr
          endchar
        </CharString>
        <CharString name="hbar">
          66 531 70 rmoveto
          328 vlineto
          75 -57 29 -65 -59 -85 -24 -16 -34 vhcurveto
          101 140 60 -140 108 -67 callsubr
          -19 rlineto
          -48 vlineto
          78 -11 rlineto
          -30 -78 -60 78 -493 -36 callgsubr
          -50 -2 callsubr
          6 21 28 6 51 hhcurveto
          54 6 callgsubr
          274 45 vlineto
          endchar
        </CharString>
        <CharString name="hcircumflex">
          66 293 736 -96 callsubr
          446 -813 rmoveto
          -54 callgsubr
          endchar
        </CharString>
        <CharString name="hookabovecomb">
          -557 -36 622 rmoveto
          34 -37 20 -64 -29 callsubr
          vhcurveto
          6 -53 rlineto
          40 hlineto
          7 27 rlineto
          1 10 10 1 8 hhcurveto
          26 12 -8 -14 -17 -16 -13 -50 hvcurveto
          4 -44 rlineto
          54 hlineto
          6 23 rlineto
          51 8 25 18 28 vvcurveto
          endchar
        </CharString>
        <CharString name="hungarumlaut">
          -302 -14 552 -61 callsubr
          endchar
        </CharString>
        <CharString name="hungarumlaut.case">
          -302 -14 631 -61 callsubr
          endchar
        </CharString>
        <CharString name="hyphen">
          -275 274 203 rmoveto
          74 -265 -74 vlineto
          endchar
        </CharString>
        <CharString name="i">
          -228 170 566 -35 callgsubr
          -145 -566 rmoveto
          291 50 hlineto
          -83 callsubr
          endchar
        </CharString>
        <CharString name="i.loclTRK">
          -228 249 -30 callgsubr
          67 -596 rmoveto
          -83 callsubr
          -50 291 vlineto
          endchar
        </CharString>
        <CharString name="iacute">
          -228 62 -74 callsubr
          281 -543 rmoveto
          -83 callsubr
          -50 291 vlineto
          endchar
        </CharString>
        <CharString name="iacute_j.loclNLD">
          102 84 -74 callsubr
          356 -35 rmoveto
          228 109 -6 callgsubr
          40 -156 -137 rlineto
          -70 -543 rmoveto
          -83 callsubr
          -50 291 vlineto
          45 463 -76 callgsubr
        </CharString>
        <CharString name="ibreve">
          -228 158 -64 callgsubr
          158 -524 rmoveto
          -83 callsubr
          -50 291 vlineto
          endchar
        </CharString>
        <CharString name="icircumflex">
          -228 267 559 -84 callgsubr
          168 -594 rmoveto
          -83 callsubr
          -50 291 vlineto
          endchar
        </CharString>
        <CharString name="idieresis">
          -228 115 648 -102 callgsubr
          -30 -598 rmoveto
          -83 callsubr
          -50 291 vlineto
          endchar
        </CharString>
        <CharString name="igrave">
          -228 232 -45 callgsubr
          316 -617 rmoveto
          -83 callsubr
          -50 291 vlineto
          endchar
        </CharString>
        <CharString name="ij">
          102 170 566 -35 callgsubr
          415 80 -36 callsubr
          -560 -646 rmoveto
          291 50 hlineto
          -83 callsubr
          336 413 -76 callgsubr
        </CharString>
        <CharString name="imacron">
          -228 21 685 -27 callgsubr
          54 -635 rmoveto
          -83 callsubr
          -50 291 vlineto
          endchar
        </CharString>
        <CharString name="infinity">
          155 356 349 rmoveto
          39 -30 -54 56 -79 hhcurveto
          -127 -27 -86 -59 -61 27 -87 127 79 54 57 39 30 hvcurveto
          -39 30 54 -57 83 hhcurveto
          120 28 83 65 63 -28 82 -120 -83 -54 -56 -39 -30 hvcurveto
          -237 -50 rmoveto
          28 10 45 62 58 44 -49 -24 22 vhcurveto
          -27 -23 -42 -49 -59 hhcurveto
          -62 -10 46 30 hvcurveto
          475 hmoveto
          -30 -10 -46 -64 -60 -43 49 27 -21 vhcurveto
          24 21 43 49 60 hhcurveto
          64 10 -45 -28 hvcurveto
          endchar
        </CharString>
        <CharString name="integral">
          -118 118 -134 rmoveto
          79 72 44 89 hvcurveto
          587 vlineto
          44 23 15 21 12 12 -3 -6 7 vhcurveto
          12 -65 rlineto
          51 hlineto
          16 106 rlineto
          14 -18 -65 10 -25 hhcurveto
          -79 -72 -44 -89 hvcurveto
          -587 vlineto
          -44 -23 -15 -21 -12 -12 3 6 -7 vhcurveto
          -12 65 rlineto
          -51 hlineto
          -16 -106 rlineto
          -14 18 65 -10 25 hhcurveto
          endchar
        </CharString>
        <CharString name="iogonek">
          -228 170 566 -35 callgsubr
          49 -799 rmoveto
          60 34 38 24 15 hvcurveto
          -3 callgsubr
          42 32 63 83 20 hvcurveto
          50 vlineto
          -83 callsubr
          -50 195 vlineto
          -57 -36 -47 33 callsubr
        </CharString>
        <CharString name="itilde">
          -228 329 659 rmoveto
          -75 callgsubr
          -54 callsubr
          -13 -609 rmoveto
          -83 callsubr
          -50 291 vlineto
          endchar
        </CharString>
        <CharString name="j">
          -227 256 -7 callsubr
          -224 -183 -76 callgsubr
        </CharString>
        <CharString name="jcircumflex">
          -227 284 559 -84 callgsubr
          -133 -181 -76 callgsubr
        </CharString>
        <CharString name="k">
          27 291 hmoveto
          52 vlineto
          -60 18 rlineto
          661 27 callsubr
          -98 callsubr
          -563 -36 callgsubr
          -50 vlineto
          581 hmoveto
          52 vlineto
          -20 callgsubr
          -52 vlineto
          endchar
        </CharString>
        <CharString name="kcommaaccent">
          27 18 hmoveto
          273 52 hlineto
          -60 18 rlineto
          661 27 callsubr
          -98 callsubr
          -563 -36 callgsubr
          326 -50 rmoveto
          255 52 hlineto
          -20 callgsubr
          -97 -281 -51 callsubr
        </CharString>
        <CharString name="kgreenlandic">
          34 298 hmoveto
          52 vlineto
          -60 18 rlineto
          432 27 callsubr
          -37 rlineto
          -50 vlineto
          78 -10 rlineto
          -335 -36 callgsubr
          -50 vlineto
          581 hmoveto
          52 vlineto
          -20 callgsubr
          -52 vlineto
          endchar
        </CharString>
        <CharString name="l">
          -235 4 callsubr
          endchar
        </CharString>
        <CharString name="lacute">
          -235 37 711 -82 callsubr
          8 -746 rmoveto
          10 callsubr
          661 -90 callsubr
          -563 -36 callgsubr
          endchar
        </CharString>
        <CharString name="lcaron">
          -191 314 -3 callsubr
          -255 -756 rmoveto
          10 callsubr
          661 -90 callsubr
          -563 -36 callgsubr
          endchar
        </CharString>
        <CharString name="lcommaaccent">
          -235 18 -18 callgsubr
          88 -279 -51 callsubr
        </CharString>
        <CharString name="ldot">
          -235 4 callsubr
          381 367 -5 callgsubr
        </CharString>
        <CharString name="less">
          -47 409 97 rmoveto
          42 70 -266 134 266 134 -42 70 -382 -204 rlineto
          endchar
        </CharString>
        <CharString name="lessequal">
          -47 427 105 rmoveto
          40 69 -266 127 266 127 -40 67 -384 -194 rlineto
          6 -301 11 callgsubr
          endchar
        </CharString>
        <CharString name="logicalnot">
          -7 407 116 rmoveto
          75 225 -415 -79 340 hlineto
          endchar
        </CharString>
        <CharString name="longs">
          -171 30 hmoveto
          331 55 hlineto
          -118 19 -2 447 rlineto
          -53 callgsubr
          endchar
        </CharString>
        <CharString name="lozenge">
          -109 201 -1 rmoveto
          50 hlineto
          191 308 -191 307 rlineto
          -50 hlineto
          -192 -307 rlineto
          217 -213 rmoveto
          -122 213 122 212 121 -212 rlineto
          endchar
        </CharString>
        <CharString name="lslash">
          -235 18 hmoveto
          10 callsubr
          307 vlineto
          108 65 -32 56 -76 -46 rlineto
          279 -90 callsubr
          -261 vlineto
          -99 -59 32 -56 67 40 rlineto
          -227 -36 callgsubr
          endchar
        </CharString>
        <CharString name="m">
          361 25 hmoveto
          273 45 hlineto
          16 callgsubr
          6 20 32 6 39 hhcurveto
          57 6 callgsubr
          255 45 vlineto
          -60 25 rlineto
          322 vlineto
          17 vlineto
          6 20 32 6 43 hhcurveto
          51 13 8 callgsubr
          274 45 vlineto
          -79 25 rlineto
          328 vlineto
          80 -63 24 -63 -58 -85 -30 -16 -40 vhcurveto
          35 -24 -43 11 -42 hhcurveto
          -55 -81 -24 -16 -34 hvcurveto
          -60 callgsubr
          endchar
        </CharString>
        <CharString name="macron">
          -302 7 685 -27 callgsubr
          endchar
        </CharString>
        <CharString name="macron.case">
          -302 7 758 -27 callgsubr
          endchar
        </CharString>
        <CharString name="minus">
          -47 48 262 11 callgsubr
          endchar
        </CharString>
        <CharString name="multiply">
          -47 122 113 rmoveto
          134 134 133 -132 56 57 -133 131 133 132 -58 56 -131 -131 -132 133 -58 -56 133 -134 -133 -132 rlineto
          endchar
        </CharString>
        <CharString name="n">
          73 238 462 -93 callgsubr
          endchar
        </CharString>
        <CharString name="nacute">
          73 235 -74 callsubr
          30 -131 -93 callgsubr
          endchar
        </CharString>
        <CharString name="nacute.loclPLK">
          73 295 552 -52 callgsubr
          -26 -113 -93 callgsubr
          endchar
        </CharString>
        <CharString name="napostrophe">
          43 112 -3 callsubr
          167 -294 -93 callgsubr
          endchar
        </CharString>
        <CharString name="ncaron">
          73 198 -70 callgsubr
          -76 -191 -93 callgsubr
          endchar
        </CharString>
        <CharString name="ncommaaccent">
          73 25 hmoveto
          273 45 hlineto
          16 callgsubr
          7 25 27 5 44 hhcurveto
          55 14 -8 -49 hvcurveto
          -294 vlineto
          -60 -25 rlineto
          -45 274 45 vlineto
          -79 25 rlineto
          328 vlineto
          77 -59 27 -65 -63 -87 -28 -12 -26 vhcurveto
          -60 callgsubr
          233 -274 -51 callsubr
        </CharString>
        <CharString name="nine">
          -47 56 85 rmoveto
          -15 -66 rlineto
          -24 62 43 -7 54 hhcurveto
          167 103 89 264 146 -41 142 -180 -195 -29 -131 -75 -117 70 -70 119 40 36 7 20 49 hvcurveto
          -116 -30 -87 -122 -30 -43 6 19 -58 vhcurveto
          285 258 rmoveto
          -18 -31 -37 -16 -36 hhcurveto
          -46 -37 35 93 73 33 48 53 93 8 -98 -117 hvcurveto
          endchar
        </CharString>
        <CharString name="nine.dnom">
          57 72 -69 callsubr
        </CharString>
        <CharString name="nine.numr">
          57 244 -69 callsubr
        </CharString>
        <CharString name="nine.osf">
          -47 154 -100 rmoveto
          160 156 100 268 137 -41 134 -187 -185 -32 -131 -77 -114 70 -71 120 38 37 7 20 49 hvcurveto
          -133 -10 -68 -76 -126 hhcurveto
          -14 -15 1 6 -33 hvcurveto
          -8 -57 rlineto
          -11 33 28 -3 28 hhcurveto
          86 319 rmoveto
          -49 -37 36 87 77 29 49 61 89 8 -104 -111 hvcurveto
          -18 -31 -38 -16 -32 hhcurveto
          endchar
        </CharString>
        <CharString name="notequal">
          -47 160 59 rmoveto
          66 114 rlineto
          236 79 -190 hlineto
          57 98 rlineto
          133 79 -87 hlineto
          43 74 -68 41 -67 -115 rlineto
          -235 -79 189 hlineto
          -56 -98 rlineto
          -133 -79 87 hlineto
          -43 -74 rlineto
          endchar
        </CharString>
        <CharString name="ntilde">
          73 491 687 rmoveto
          -75 callgsubr
          -54 callsubr
          -253 -225 -93 callgsubr
          endchar
        </CharString>
        <CharString name="numbersign">
          1 411 235 rmoveto
          24 88 rlineto
          102 hlineto
          21 77 rlineto
          -102 hlineto
          46 167 rlineto
          -83 hlineto
          -45 -167 rlineto
          -113 hlineto
          49 167 rlineto
          -84 hlineto
          -47 -167 rlineto
          -115 hlineto
          -23 -77 rlineto
          118 hlineto
          -24 -88 rlineto
          -113 hlineto
          -22 -76 rlineto
          114 hlineto
          -47 -167 rlineto
          84 hlineto
          46 167 rlineto
          112 hlineto
          -48 -167 rlineto
          84 hlineto
          46 167 rlineto
          102 hlineto
          25 76 rlineto
          -301 hmoveto
          23 88 rlineto
          114 hlineto
          -25 -88 rlineto
          endchar
        </CharString>
        <CharString name="o">
          -13 270 502 -99 callgsubr
        </CharString>
        <CharString name="oacute">
          -13 191 -74 callsubr
          106 -91 -99 callgsubr
        </CharString>
        <CharString name="oacute.loclPLK">
          -13 252 552 -52 callgsubr
          49 -73 -99 callgsubr
        </CharString>
        <CharString name="obreve">
          -13 265 -64 callgsubr
          5 -72 -99 callgsubr
        </CharString>
        <CharString name="ocircumflex">
          -35 callsubr
          endchar
        </CharString>
        <CharString name="odieresis">
          -13 231 648 -102 callgsubr
          -192 -146 -99 callgsubr
        </CharString>
        <CharString name="oe">
          274 270 -10 rmoveto
          76 70 44 45 26 hvcurveto
          -43 16 76 -46 80 hhcurveto
          -24 callgsubr
          -75 callsubr
          281 vlineto
          3 17 2 37 12 vvcurveto
          132 -61 60 -140 -61 -60 -23 -52 -40 vhcurveto
          46 -36 -60 29 -77 20 callsubr
          hvcurveto
          4 68 rmoveto
          -85 -19 82 106 109 18 80 80 82 22 -74 -103 2 hvcurveto
          -139 -24 -61 -76 vhcurveto
          247 240 -68 callsubr
          endchar
        </CharString>
        <CharString name="ogonek">
          -302 157 -7 callgsubr
        </CharString>
        <CharString name="ograve">
          -13 355 -45 callgsubr
          147 -165 -99 callgsubr
        </CharString>
        <CharString name="ohorn">
          -13 564 537 -91 callsubr
          endchar
        </CharString>
        <CharString name="ohungarumlaut">
          -13 153 552 -61 callsubr
          -13 -73 -99 callgsubr
        </CharString>
        <CharString name="omacron">
          -13 151 685 -27 callgsubr
          -122 -183 -99 callgsubr
        </CharString>
        <CharString name="one">
          -47 488 49 rmoveto
          -138 27 rlineto
          543 vlineto
          -283 -43 rlineto
          -48 157 -451 30 callsubr
        </CharString>
        <CharString name="one.dnom">
          50 360 -27 callsubr
          endchar
        </CharString>
        <CharString name="one.numr">
          50 532 -27 callsubr
          endchar
        </CharString>
        <CharString name="one.osf">
          -47 488 49 rmoveto
          -138 27 rlineto
          469 vlineto
          -283 -43 rlineto
          -48 157 -377 30 callsubr
        </CharString>
        <CharString name="oneeighth">
          405 376 -48 callgsubr
          -243 602 -27 callsubr
          540 -477 -101 callsubr
        </CharString>
        <CharString name="onehalf">
          374 339 -48 callgsubr
          -206 602 -27 callsubr
          619 -192 -73 callsubr
          endchar
        </CharString>
        <CharString name="onequarter">
          374 372 -48 callgsubr
          -225 602 -27 callsubr
          649 -573 rmoveto
          -60 callsubr
        </CharString>
        <CharString name="ordfeminine">
          -145 179 595 rmoveto
          29 14 -18 -39 hvcurveto
          -47 vlineto
          -97 24 callsubr
          26 20 28 34 vhcurveto
          -28 6 39 -15 39 19 callsubr
          -52 17 -75 -56 -61 -12 -15 -46 vhcurveto
          13 -108 rlineto
          46 hlineto
          19 67 rlineto
          4 12 19 4 20 hhcurveto
          9 -158 rmoveto
          34 7 rlineto
          -86 vlineto
          -9 -13 -18 -7 -14 hhcurveto
          -16 -22 8 30 27 11 23 38 7 hvcurveto
          endchar
        </CharString>
        <CharString name="ordmasculine">
          -131 6 callsubr
          65 -191 rmoveto
          -77 -11 29 callgsubr
          14 -59 -78 vhcurveto
          endchar
        </CharString>
        <CharString name="oslash">
          -13 126 -94 -46 callgsubr
        </CharString>
        <CharString name="oslashacute">
          -13 191 -74 callsubr
          -38 -687 -46 callgsubr
        </CharString>
        <CharString name="otilde">
          -13 445 687 rmoveto
          -75 callgsubr
          -54 callsubr
          -175 -185 -99 callgsubr
        </CharString>
        <CharString name="p">
          18 17 -168 rmoveto
          321 -17 callsubr
          -102 -115 -18 -19 -78 hvcurveto
          -50 vlineto
          90 -7 rlineto
          -506 -36 callgsubr
          endchar
        </CharString>
        <CharString name="paragraph">
          -5 245 223 rmoveto
          392 vlineto
          1 -9 -1 0 -11 hhcurveto
          -127 -69 -87 -109 -108 69 -90 127 11 3 0 1 7 hvcurveto
          253 -179 rmoveto
          -82 26 rlineto
          474 vlineto
          82 27 rlineto
          43 -207 -543 vlineto
          -98 -26 rlineto
          -45 305 vlineto
          endchar
        </CharString>
        <CharString name="parenleft">
          -222 178 265 rmoveto
          120 0 228 136 59 vhcurveto
          -11 43 rlineto
          -189 -56 -50 -104 -290 vvcurveto
          -287 50 -107 189 -53 vhcurveto
          11 41 rlineto
          -136 61 0 228 117 vvcurveto
          endchar
        </CharString>
        <CharString name="parenright">
          -222 157 265 rmoveto
          -117 0 -228 -137 -61 vhcurveto
          11 -41 rlineto
          189 53 48 107 287 vvcurveto
          290 -48 104 -189 56 vhcurveto
          -11 -43 rlineto
          137 -59 0 -228 -120 vvcurveto
          endchar
        </CharString>
        <CharString name="partialdiff">
          14 57 667 rmoveto
          29 -40 rlineto
          18 48 22 7 44 hhcurveto
          135 20 -85 -139 11 hvcurveto
          2 -44 26 -81 -118 -93 -92 -143 -131 60 -100 167 107 149 53 286 267 -97 133 -187 -66 -60 -17 -45 -46 vhcurveto
          202 -610 rmoveto
          -64 -26 48 116 84 14 84 98 37 30 -18 -20 26 hvcurveto
          1 -30 1 -8 -35 vvcurveto
          -150 -29 -71 -88 vhcurveto
          endchar
        </CharString>
        <CharString name="percent">
          374 -42 callsubr
          -170 -139 rmoveto
          -8 callgsubr
          endchar
        </CharString>
        <CharString name="period">
          -337 194 72 rmoveto
          -4 callsubr
        </CharString>
        <CharString name="periodcentered">
          -327 208 253 -5 callgsubr
        </CharString>
        <CharString name="perthousand">
          764 -42 callsubr
          390 hmoveto
          170 -75 57 -95 -97 -77 -58 -169 -167 77 -58 97 95 75 56 169 vhcurveto
          -560 -139 rmoveto
          -8 callgsubr
          390 hmoveto
          -8 callgsubr
          endchar
        </CharString>
        <CharString name="pi">
          108 192 -5 rmoveto
          73 8 42 52 hvcurveto
          325 136 -259 vlineto
          -150 53 -13 71 23 45 9 20 42 vhcurveto
          -6 47 rlineto
          -45 hlineto
          -53 -23 29 44 hvcurveto
          273 27 vlineto
          62 37 41 105 hvcurveto
          16 -69 vlineto
          -40 -18 -15 -32 vhcurveto
          -376 hlineto
          -88 -37 -63 -83 hvcurveto
          52 -13 rlineto
          40 18 21 12 47 hhcurveto
          9 -331 hlineto
          -82 -28 rlineto
          -43 vlineto
          -12 47 21 -5 37 hhcurveto
          endchar
        </CharString>
        <CharString name="plus">
          7 callgsubr
          endchar
        </CharString>
        <CharString name="plusminus">
          7 callgsubr
          -167 -262 11 callgsubr
          endchar
        </CharString>
        <CharString name="product">
          143 36 hmoveto
          304 45 hlineto
          -12 callgsubr
          477 190 16 callsubr
          85 23 rlineto
          45 -630 -58 callsubr
          endchar
        </CharString>
        <CharString name="q">
          -12 479 -97 rmoveto
          592 -46 vlineto
          -58 -32 rlineto
          25 -45 -45 14 -51 hhcurveto
          -145 -64 -115 -143 -142 56 -112 109 76 36 24 35 45 hvcurveto
          -143 vlineto
          -98 -24 rlineto
          -50 301 50 vlineto
          -206 522 rmoveto
          -295 vlineto
          -24 -21 -33 -14 -34 hhcurveto
          -49 -37 40 148 100 33 76 63 25 24 -8 -23 29 hvcurveto
          endchar
        </CharString>
        <CharString name="question">
          -177 174 629 rmoveto
          -60 -62 -21 -19 -34 hvcurveto
          19 -134 rlineto
          62 hlineto
          19 103 rlineto
          2 9 13 1 7 hhcurveto
          43 39 -21 -50 -91 -82 -56 -61 -26 hvcurveto
          24 -125 rlineto
          59 hlineto
          8 87 rlineto
          156 63 29 76 72 vvcurveto
          73 -70 66 -118 vhcurveto
          -35 -500 rmoveto
          -39 -28 -33 -38 -38 28 -28 39 38 30 28 38 38 -30 33 -38 hvcurveto
          endchar
        </CharString>
        <CharString name="questiondown">
          -177 241 367 rmoveto
          40 28 30 38 38 -28 29 -40 -37 -30 -29 -38 -38 30 -30 37 hvcurveto
          -33 -504 rmoveto
          51 70 23 20 35 hvcurveto
          -20 133 rlineto
          -61 hlineto
          -20 -102 rlineto
          -2 -12 -10 -1 -7 hhcurveto
          -44 -38 20 49 91 82 57 61 27 hvcurveto
          -24 125 rlineto
          -58 hlineto
          -9 -88 rlineto
          -156 -62 -29 -78 -72 vvcurveto
          -71 70 -69 119 vhcurveto
          endchar
        </CharString>
        <CharString name="quotedbl">
          -212 37 25 callgsubr
          51 hmoveto
          35 -233 rlineto
          38 hlineto
          36 233 rlineto
          endchar
        </CharString>
        <CharString name="quotedblbase">
          -197 65 22 callsubr
          231 -8 rmoveto
          88 214 -24 29 -96 -23 -13 -212 rlineto
          endchar
        </CharString>
        <CharString name="quotedblleft">
          -197 108 687 rmoveto
          -94 -227 29 -27 103 22 13 223 rlineto
          121 9 rmoveto
          -93 -227 30 -27 102 22 13 223 rlineto
          endchar
        </CharString>
        <CharString name="quotedblright">
          -197 76 22 callgsubr
          224 -9 rmoveto
          94 226 -29 28 -103 -23 -13 -222 rlineto
          endchar
        </CharString>
        <CharString name="quoteleft">
          -362 114 687 rmoveto
          -93 -227 28 -27 103 22 13 223 rlineto
          endchar
        </CharString>
        <CharString name="quoteright">
          -362 81 22 callgsubr
          endchar
        </CharString>
        <CharString name="quotesinglbase">
          -362 78 22 callsubr
          endchar
        </CharString>
        <CharString name="quotesingle">
          -362 42 25 callgsubr
          endchar
        </CharString>
        <CharString name="r">
          -131 303 417 -78 callsubr
          endchar
        </CharString>
        <CharString name="racute">
          -131 155 -74 callsubr
          175 -176 -78 callsubr
          endchar
        </CharString>
        <CharString name="radical">
          -57 515 702 rmoveto
          103 17 rlineto
          52 -170 vlineto
          -178 -633 -98 354 rlineto
          -174 -52 hlineto
          59 -18 140 -437 104 10 rlineto
          endchar
        </CharString>
        <CharString name="rcaron">
          -131 108 -70 callgsubr
          79 -236 -78 callsubr
          endchar
        </CharString>
        <CharString name="rcommaaccent">
          -131 25 hmoveto
          329 50 hlineto
          -116 20 rlineto
          331 vlineto
          11 18 25 5 22 hhcurveto
          21 -92 rlineto
          73 hlineto
          19 179 rlineto
          1 -6 -15 0 -8 hhcurveto
          -46 -59 -20 -29 -44 hvcurveto
          46 27 callsubr
          -26 callgsubr
          99 -279 -51 callsubr
        </CharString>
        <CharString name="registered">
          -62 248 210 rmoveto
          7 callsubr
          -133 110 -111 133 hvcurveto
          1 33 rmoveto
          -112 -95 97 114 14 callsubr
          hvcurveto
          -129 64 rmoveto
          139 23 hlineto
          -35 8 rlineto
          102 5 vlineto
          21 1 -1 -132 47 hvcurveto
          95 23 hlineto
          -27 7 -28 58 -19 40 -2 10 -20 9 rlinecurve
          41 16 18 33 35 vvcurveto
          35 -26 40 -79 vhcurveto
          -131 -24 hlineto
          33 -8 rlineto
          -243 vlineto
          -33 -8 rlineto
          104 139 rmoveto
          113 vlineto
          2 6 4 0 3 hhcurveto
          31 14 -22 -30 -37 -14 -26 -28 hvcurveto
          endchar
        </CharString>
        <CharString name="ring">
          -302 241 -33 callsubr
          endchar
        </CharString>
        <CharString name="ring.case">
          -302 127 -51 callgsubr
          endchar
        </CharString>
        <CharString name="s">
          -107 236 -43 callgsubr
          endchar
        </CharString>
        <CharString name="sacute">
          -101 149 -74 callsubr
          120 -158 -93 callsubr
          endchar
        </CharString>
        <CharString name="sacute.loclPLK">
          -107 205 552 -52 callgsubr
          62 -140 -93 callsubr
          endchar
        </CharString>
        <CharString name="scaron">
          -101 185 12 callgsubr
          138 -718 rmoveto
          133 75 62 94 82 -34 38 -67 21 hvcurveto
          -114 36 rlineto
          -36 12 -11 19 27 vvcurveto
          34 32 20 50 32 18 -6 -8 19 vhcurveto
          20 -74 rlineto
          56 hlineto
          14 126 rlineto
          20 -49 -59 9 -49 hhcurveto
          -135 -61 -63 -95 -74 34 -40 62 -21 hvcurveto
          109 -37 rlineto
          41 -14 14 -9 -30 vvcurveto
          -41 -35 -20 -63 -34 -21 6 6 -17 vhcurveto
          -21 84 rlineto
          -58 hlineto
          -12 -139 rlineto
          -16 48 70 -9 49 hhcurveto
          endchar
        </CharString>
        <CharString name="scedilla">
          -101 192 -220 rmoveto
          -15 callgsubr
          11 37 rlineto
          116 8 65 59 88 vvcurveto
          82 -34 38 -67 21 vhcurveto
          -114 36 rlineto
          -36 12 -11 19 27 vvcurveto
          34 32 20 50 32 18 -6 -8 19 vhcurveto
          20 -74 rlineto
          56 hlineto
          14 126 rlineto
          20 -49 -59 9 -49 hhcurveto
          -135 -61 -63 -95 -74 34 -40 62 -21 hvcurveto
          109 -37 rlineto
          41 -14 14 -9 -30 vvcurveto
          -41 -35 -20 -63 -34 -21 6 6 -17 vhcurveto
          -21 84 rlineto
          -58 hlineto
          -12 -139 42 -14 58 -8 47 -2 rlinecurve
          -23 -64 -64 callsubr
          endchar
        </CharString>
        <CharString name="scircumflex">
          -107 344 559 -84 callgsubr
          11 -209 -93 callsubr
          endchar
        </CharString>
        <CharString name="scommaaccent">
          -101 241 -43 callgsubr
          -29 -671 rmoveto
          80 188 -25 24 -90 -20 -9 -185 rlineto
          endchar
        </CharString>
        <CharString name="section">
          -157 268 599 rmoveto
          20 -91 rlineto
          56 hlineto
          12 140 rlineto
          0 -52 19 -84 -94 -62 -46 -68 -71 65 -28 206 -246 vhcurveto
          8 11 8 20 39 104 -195 125 52 vvcurveto
          38 35 9 40 14 12 -3 -4 11 vhcurveto
          -162 -450 rmoveto
          -54 hlineto
          -14 -137 rlineto
          0 54 -20 85 94 61 39 68 70 -65 28 -204 246 vhcurveto
          -12 -20 -5 -15 -28 -105 192 -115 -56 vvcurveto
          -45 -35 -6 -36 -15 -11 3 4 -13 vhcurveto
          endchar
        </CharString>
        <CharString name="semicolon">
          -357 183 13 callgsubr
          -100 -507 rmoveto
          94 228 -29 28 -102 -22 -13 -225 rlineto
          endchar
        </CharString>
        <CharString name="seven">
          -47 43 448 rmoveto
          72 hlineto
          20 79 rlineto
          248 hlineto
          -260 -525 128 -15 232 570 -17 57 rlineto
          -430 hlineto
          endchar
        </CharString>
        <CharString name="seven.dnom">
          41 321 -46 callsubr
          endchar
        </CharString>
        <CharString name="seven.numr">
          41 494 -46 callsubr
          endchar
        </CharString>
        <CharString name="seven.osf">
          -47 43 362 rmoveto
          72 hlineto
          20 79 rlineto
          258 hlineto
          -116 -172 -98 -180 -54 -181 126 -14 rcurveline
          43 201 82 184 117 192 -17 57 rcurveline
          -440 hlineto
          endchar
        </CharString>
        <CharString name="seveneighths">
          419 376 -48 callgsubr
          -252 564 -46 callsubr
          569 -507 -101 callsubr
        </CharString>
        <CharString name="six">
          -38 callsubr
        </CharString>
        <CharString name="six.dnom">
          150 260 -31 callgsubr
        </CharString>
        <CharString name="six.numr">
          199 162 rmoveto
          8 callsubr
          -27 -31 -7 -12 -24 hvcurveto
          105 16 60 36 -20 callsubr
          -65 -204 -97 31 -81 133 hvcurveto
          -2 55 rmoveto
          -40 -11 48 63 -4 hvcurveto
          26 17 31 25 30 hhcurveto
          32 10 -35 -46 -47 -20 -34 -45 hvcurveto
          endchar
        </CharString>
        <CharString name="six.osf">
          -38 callsubr
        </CharString>
        <CharString name="slash">
          -181 373 698 rmoveto
          -99 hlineto
          -271 -837 rlineto
          96 hlineto
          endchar
        </CharString>
        <CharString name="space">
          -387 endchar
        </CharString>
        <CharString name="sterling">
          -19 246 179 rmoveto
          1 84 rlineto
          177 hlineto
          9 60 rlineto
          -185 44 hlineto
          110 6 81 77 16 21 -2 -7 17 vhcurveto
          21 -89 rlineto
          53 hlineto
          10 135 rlineto
          15 -45 -54 12 -60 hhcurveto
          -138 -51 -98 -201 hvcurveto
          -89 hlineto
          -10 -60 rlineto
          99 -87 hlineto
          -90 -90 -39 0 vhcurveto
          13 -47 rlineto
          426 hlineto
          33 115 -32 17 -50 -57 -259 -12 41 24 42 32 1 60 rlinecurve
          endchar
        </CharString>
        <CharString name="summation">
          -35 424 449 rmoveto
          58 165 -480 -45 hlineto
          226 -325 -232 -312 rlineto
          -30 499 189 -58 vlineto
          -25 -91 rlineto
          -275 hlineto
          203 262 rlineto
          10 vlineto
          -189 272 rlineto
          249 hlineto
          endchar
        </CharString>
        <CharString name="t">
          -209 318 13 rmoveto
          -49 callsubr
          -38 12 -40 77 31 callsubr
          vhcurveto
          endchar
        </CharString>
        <CharString name="tbar">
          -209 332 414 rmoveto
          78 -113 112 -61 vlineto
          -61 -100 -83 -37 rlineto
          -47 72 -117 -57 -55 57 -179 vlineto
          -38 12 -40 77 31 callsubr
          vhcurveto
          50 vlineto
          -99 22 rlineto
          163 99 55 -99 118 vlineto
          endchar
        </CharString>
        <CharString name="tcaron">
          -209 253 756 rmoveto
          41 -227 rlineto
          40 hlineto
          32 204 -68 23 rlineto
          26 -743 rmoveto
          -49 callsubr
          -38 12 -40 77 31 callsubr
          vhcurveto
          endchar
        </CharString>
        <CharString name="thorn">
          -16 -15 -168 rmoveto
          319 -17 callsubr
          -23 -24 -1 -2 -23 hvcurveto
          232 -44 vlineto
          -167 -98 callsubr
          -731 -36 callgsubr
          endchar
        </CharString>
        <CharString name="three">
          -47 242 629 rmoveto
          -72 -89 -23 -32 -51 hvcurveto
          29 -61 rlineto
          28 61 59 8 28 hhcurveto
          58 24 -27 -49 -63 -38 -49 -111 -13 hvcurveto
          4 -57 rlineto
          79 91 -11 -105 -80 -60 -33 -63 -30 -42 7 25 -74 hvcurveto
          -20 -69 rlineto
          -21 56 69 -16 65 hhcurveto
          154 80 63 124 79 -52 61 -87 26 callgsubr
          vhcurveto
          endchar
        </CharString>
        <CharString name="three.dnom">
          204 440 -91 callgsubr
          endchar
        </CharString>
        <CharString name="three.numr">
          204 612 -91 callgsubr
          endchar
        </CharString>
        <CharString name="three.osf">
          -47 180 -100 rmoveto
          170 94 61 124 91 -51 49 -83 26 callgsubr
          -72 -89 -23 -32 -51 vhcurveto
          29 -61 rlineto
          28 61 58 8 31 hhcurveto
          56 24 -27 -50 -62 -38 -49 -111 -13 hvcurveto
          4 -57 rlineto
          88 -1 76 -6 -102 vvcurveto
          -93 -64 -28 -98 -42 -12 5 4 -49 vhcurveto
          -5 -65 rlineto
          -12 50 54 -3 38 hhcurveto
          endchar
        </CharString>
        <CharString name="threeeighths">
          456 426 -48 callgsubr
          -139 682 -91 callgsubr
          437 -516 -101 callsubr
        </CharString>
        <CharString name="threequarters">
          410 406 -48 callgsubr
          -119 682 -91 callgsubr
          545 -612 rmoveto
          -60 callsubr
        </CharString>
        <CharString name="tilde">
          -302 302 687 rmoveto
          -75 callgsubr
          -54 callsubr
          endchar
        </CharString>
        <CharString name="tilde.case">
          -302 302 765 -98 callgsubr
          endchar
        </CharString>
        <CharString name="tildecomb">
          -557 47 765 -98 callgsubr
          endchar
        </CharString>
        <CharString name="trademark">
          308 93 280 rmoveto
          177 27 hlineto
          -47 13 rlineto
          281 70 vlineto
          15 -48 rlineto
          39 hlineto
          3 94 rlineto
          -336 hlineto
          4 -94 rlineto
          39 hlineto
          15 49 rlineto
          68 -282 hlineto
          -47 -13 rlineto
          456 -35 rmoveto
          61 8 88 260 8 -220 -45 -13 rlineto
          -27 179 27 vlineto
          -49 13 -10 287 48 12 rlineto
          28 -149 vlineto
          -85 -252 -90 252 rlineto
          -151 -28 hlineto
          47 -12 -12 -287 -45 -13 rlineto
          -27 148 27 vlineto
          -48 13 6 212 rlineto
          endchar
        </CharString>
        <CharString name="two">
          -47 30 hmoveto
          424 hlineto
          14 168 rlineto
          -59 hlineto
          -40 -80 -235 -13 176 158 rlineto
          88 84 47 63 87 vvcurveto
          122 -91 40 -117 -84 -69 -27 -28 -57 vhcurveto
          30 -66 rlineto
          17 47 39 19 47 hhcurveto
          79 32 -39 -52 -53 -32 -64 -45 -43 hvcurveto
          -218 -223 rlineto
          endchar
        </CharString>
        <CharString name="two.dnom">
          186 381 -73 callsubr
          endchar
        </CharString>
        <CharString name="two.numr">
          196 553 -73 callsubr
          endchar
        </CharString>
        <CharString name="two.osf">
          -50 406 168 rmoveto
          -40 -80 -208 -11 119 83 rlineto
          110 77 55 46 94 vvcurveto
          122 -93 40 -111 -90 -64 -26 -29 -60 vhcurveto
          30 -66 rlineto
          20 55 31 16 49 hhcurveto
          77 32 -39 -53 -52 -32 -37 -47 -38 hvcurveto
          -213 -173 21 -62 rlineto
          424 hlineto
          14 168 rlineto
          endchar
        </CharString>
        <CharString name="u">
          63 594 12 rmoveto
          -21 callsubr
          419 -44 vlineto
          -169 -107 callsubr
          endchar
        </CharString>
        <CharString name="uacute">
          63 218 -74 callsubr
          403 -581 rmoveto
          -21 callsubr
          419 -44 vlineto
          -169 -107 callsubr
          endchar
        </CharString>
        <CharString name="ubreve">
          63 303 -64 callgsubr
          291 -562 rmoveto
          -21 callsubr
          419 -44 vlineto
          -169 -107 callsubr
          endchar
        </CharString>
        <CharString name="ucircumflex">
          63 415 559 -84 callgsubr
          298 -632 rmoveto
          -21 callsubr
          419 -44 vlineto
          -169 -107 callsubr
          endchar
        </CharString>
        <CharString name="udieresis">
          63 257 648 -102 callgsubr
          106 -636 rmoveto
          -21 callsubr
          419 -44 vlineto
          -169 -107 callsubr
          endchar
        </CharString>
        <CharString name="ugrave">
          63 378 -45 callgsubr
          448 -655 rmoveto
          -21 callsubr
          419 -44 vlineto
          -169 -107 callsubr
          endchar
        </CharString>
        <CharString name="uhorn">
          63 666 566 -96 callgsubr
          endchar
        </CharString>
        <CharString name="uhungarumlaut">
          63 167 552 -61 callsubr
          297 -563 rmoveto
          -21 callsubr
          419 -44 vlineto
          -169 -107 callsubr
          endchar
        </CharString>
        <CharString name="umacron">
          63 188 685 -27 callgsubr
          165 -673 rmoveto
          -21 callsubr
          419 -44 vlineto
          -169 -107 callsubr
          endchar
        </CharString>
        <CharString name="underscore">
          -115 442 -79 rmoveto
          61 -442 -61 vlineto
          endchar
        </CharString>
        <CharString name="uni00A0">
          -377 endchar
        </CharString>
        <CharString name="uni00AD">
          -275 274 203 rmoveto
          60 -265 -60 vlineto
          endchar
        </CharString>
        <CharString name="uni00B2">
          186 660 rmoveto
          33 19 -24 -37 -44 -31 -49 -34 -36 hvcurveto
          -145 -150 16 -43 rlineto
          307 hlineto
          8 107 -61 7 -24 -52 rlineto
          -127 hlineto
          95 95 rlineto
          50 50 56 66 50 vvcurveto
          88 -69 31 -84 -55 -59 -18 -22 -35 vhcurveto
          21 -53 rlineto
          23 49 39 11 31 hhcurveto
          endchar
        </CharString>
        <CharString name="uni00B3">
          204 721 rmoveto
          -55 -55 -19 -24 -38 hvcurveto
          21 -52 rlineto
          23 51 36 14 15 hhcurveto
          32 15 -18 -30 -40 -27 -42 -77 -8 hvcurveto
          4 -50 rlineto
          56 63 -6 -66 -49 -33 -26 -48 -15 -30 5 21 -64 hvcurveto
          -11 -53 rlineto
          -17 42 53 -15 48 hhcurveto
          110 60 48 86 49 -32 43 -58 18 hvcurveto
          42 22 28 43 45 vvcurveto
          66 -59 32 -74 vhcurveto
          endchar
        </CharString>
        <CharString name="uni00B5">
          -37 callsubr
        </CharString>
        <CharString name="uni00B9">
          50 640 rmoveto
          115 -358 107 433 hlineto
          -222 -32 rlineto
          endchar
        </CharString>
        <CharString name="uni0162">
          -18 243 -220 rmoveto
          -15 callgsubr
          14 46 rlineto
          128 -32 callsubr
          -45 130 vlineto
          -27 -73 -64 callsubr
          endchar
        </CharString>
        <CharString name="uni0163">
          -209 161 -220 rmoveto
          -15 callgsubr
          12 38 36 3 45 8 33 10 rlinecurve
          -49 callsubr
          -35 10 -36 60 -6 vhcurveto
          -23 -65 -64 callsubr
          endchar
        </CharString>
        <CharString name="uni018F">
          96 317 -9 rmoveto
          197 109 115 202 175 -82 145 -228 -88 -76 -22 -30 -64 hvcurveto
          8 -141 rlineto
          53 hlineto
          25 86 rlineto
          24 48 47 10 39 hhcurveto
          126 41 -104 -116 5 hvcurveto
          -446 hlineto
          -1 -12 0 -7 -9 vvcurveto
          -212 99 -104 188 vhcurveto
          9 71 rmoveto
          -93 -50 70 144 -7 hvcurveto
          301 hlineto
          -95 -4 -25 -119 -122 hhcurveto
          endchar
        </CharString>
        <CharString name="uni019D">
          162 461 614 rmoveto
          -62 callsubr
          -383 vlineto
          -305 451 rlineto
          -206 -45 hlineto
          -40 callgsubr
          -565 vlineto
          -33 -20 -40 -53 vhcurveto
          -45 hlineto
          -6 -47 rlineto
          -20 34 36 -9 22 hhcurveto
          46 55 42 132 hvcurveto
          450 vlineto
          318 -466 -25 callsubr
          vlineto
          endchar
        </CharString>
        <CharString name="uni01C4">
          598 863 -79 callgsubr
          -444 -161 rmoveto
          -25 callgsubr
          292 vlineto
          212 85 145 175 174 -91 120 -225 hvcurveto
          818 -452 -73 callgsubr
          -811 552 2 callsubr
        </CharString>
        <CharString name="uni01C5">
          568 769 -70 callgsubr
          -576 -39 -65 callsubr
          625 -133 -87 callgsubr
          endchar
        </CharString>
        <CharString name="uni01C6">
          480 681 -70 callgsubr
          -450 -605 rmoveto
          -67 callgsubr
          15 callgsubr
          498 371 -87 callgsubr
          -432 -348 -16 callgsubr
        </CharString>
        <CharString name="uni01C7">
          285 486 hmoveto
          162 -56 vlineto
          -55 callgsubr
          -45 vlineto
          537 -150 -66 callsubr
        </CharString>
        <CharString name="uni01C8">
          264 747 -7 callsubr
          -261 -646 rmoveto
          162 -56 vlineto
          -55 callgsubr
          -45 vlineto
          488 463 -76 callgsubr
        </CharString>
        <CharString name="uni01C9">
          95 4 callsubr
          563 596 -36 callsubr
          -224 -183 -76 callgsubr
        </CharString>
        <CharString name="uni01CA">
          513 461 614 rmoveto
          -82 callgsubr
          318 -466 -25 callsubr
          vlineto
          96 -764 -66 callsubr
        </CharString>
        <CharString name="uni01CB">
          492 975 -7 callsubr
          -514 -32 rmoveto
          -82 callgsubr
          318 -466 -25 callsubr
          vlineto
          47 -151 -76 callgsubr
        </CharString>
        <CharString name="uni01CC">
          403 886 -7 callsubr
          -648 -184 -93 callgsubr
          424 1 -76 callgsubr
        </CharString>
        <CharString name="uni01CD">
          37 255 -79 callgsubr
          -3 -707 -99 callsubr
        </CharString>
        <CharString name="uni01CE">
          -41 142 -70 callgsubr
          -25 -227 -107 callgsubr
          endchar
        </CharString>
        <CharString name="uni01CF">
          -182 146 -79 callgsubr
          -775 vmoveto
          -85 callgsubr
          endchar
        </CharString>
        <CharString name="uni01D0">
          -228 49 -70 callgsubr
          151 -603 rmoveto
          -83 callsubr
          -50 291 vlineto
          endchar
        </CharString>
        <CharString name="uni01D1">
          106 290 -79 callgsubr
          153 -147 -105 callgsubr
          endchar
        </CharString>
        <CharString name="uni01D2">
          -13 156 -70 callgsubr
          -2 -151 -99 callgsubr
        </CharString>
        <CharString name="uni01D3">
          104 289 -79 callgsubr
          393 -539 -103 callgsubr
          endchar
        </CharString>
        <CharString name="uni01D4">
          63 194 -70 callgsubr
          284 -641 rmoveto
          -21 callsubr
          419 -44 vlineto
          -169 -107 callsubr
          endchar
        </CharString>
        <CharString name="uni01D5">
          104 212 936 -27 callgsubr
          -162 -217 -102 callgsubr
          50 -483 -103 callgsubr
          endchar
        </CharString>
        <CharString name="uni01D6">
          63 191 814 -27 callgsubr
          -162 -217 -102 callgsubr
          93 -585 rmoveto
          -21 callsubr
          419 -44 vlineto
          -169 -107 callsubr
          endchar
        </CharString>
        <CharString name="uni01D7">
          104 295 812 -82 callsubr
          23 -128 -102 callgsubr
          50 -483 -103 callgsubr
          endchar
        </CharString>
        <CharString name="uni01D8">
          63 274 690 -82 callsubr
          23 -128 -102 callgsubr
          93 -585 rmoveto
          -21 callsubr
          419 -44 vlineto
          -169 -107 callsubr
          endchar
        </CharString>
        <CharString name="uni01D9">
          104 291 819 rmoveto
          85 hlineto
          109 134 -23 25 -129 -77 -126 77 -26 -25 rlineto
          110 -234 -102 callgsubr
          50 -483 -103 callgsubr
          endchar
        </CharString>
        <CharString name="uni01DA">
          63 270 697 rmoveto
          85 hlineto
          109 134 -23 25 -129 -77 -126 77 -26 -25 rlineto
          110 -234 -102 callgsubr
          93 -585 rmoveto
          -21 callsubr
          419 -44 vlineto
          -169 -107 callsubr
          endchar
        </CharString>
        <CharString name="uni01DB">
          104 367 812 -52 callsubr
          156 -202 -102 callgsubr
          50 -483 -103 callgsubr
          endchar
        </CharString>
        <CharString name="uni01DC">
          63 346 690 -52 callsubr
          156 -202 -102 callgsubr
          93 -585 rmoveto
          -21 callsubr
          419 -44 vlineto
          -169 -107 callsubr
          endchar
        </CharString>
        <CharString name="uni01EA">
          106 505 -133 rmoveto
          -33 -10 20 27 41 26 61 42 35 hvcurveto
          72 59 31 95 106 vvcurveto
          -47 callsubr
          -216 -87 -144 -173 -175 90 -145 213 36 32 4 8 29 vhcurveto
          -36 -41 -17 -41 -32 vvcurveto
          -40 26 -44 72 64 33 35 27 17 vhcurveto
          -10 callgsubr
          -168 195 -34 callsubr
        </CharString>
        <CharString name="uni01EB">
          -13 419 -137 rmoveto
          -32 -11 20 25 38 24 63 34 30 hvcurveto
          59 46 26 76 83 vvcurveto
          143 -68 115 -181 -177 -68 -115 -143 -138 70 -116 175 27 24 3 5 22 vhcurveto
          -36 -41 -16 -40 -30 vvcurveto
          -42 23 -44 79 76 34 62 0 vhcurveto
          -10 callgsubr
          -145 195 -21 callgsubr
        </CharString>
        <CharString name="uni01F1">
          598 309 614 rmoveto
          -25 callgsubr
          292 vlineto
          212 85 145 175 174 -91 120 -225 hvcurveto
          818 -452 -73 callgsubr
          -811 552 2 callsubr
        </CharString>
        <CharString name="uni01F2">
          568 309 614 -65 callsubr
          625 -133 -87 callgsubr
          endchar
        </CharString>
        <CharString name="uni01F3">
          480 -24 callsubr
          498 371 -87 callgsubr
          -432 -348 -16 callgsubr
        </CharString>
        <CharString name="uni01F4">
          62 272 634 -82 callsubr
          205 -124 -94 callgsubr
        </CharString>
        <CharString name="uni01F5">
          -42 177 -74 callsubr
          84 -770 -97 callgsubr
        </CharString>
        <CharString name="uni0200">
          37 217 631 -79 callsubr
          -83 -724 -99 callsubr
        </CharString>
        <CharString name="uni0201">
          -41 190 552 -79 callsubr
          35 -287 -107 callgsubr
          endchar
        </CharString>
        <CharString name="uni0202">
          37 300 -59 callgsubr
          -158 -730 -99 callsubr
        </CharString>
        <CharString name="uni0203">
          -41 264 -59 callsubr
          -31 -295 -107 callgsubr
          endchar
        </CharString>
        <CharString name="uni0204">
          -12 193 631 -79 callsubr
          177 -396 -100 callsubr
          endchar
        </CharString>
        <CharString name="uni0205">
          -76 173 552 -79 callsubr
          84 -723 -104 callgsubr
        </CharString>
        <CharString name="uni0206">
          -12 276 -59 callgsubr
          102 -402 -100 callsubr
          endchar
        </CharString>
        <CharString name="uni0207">
          -76 247 -59 callsubr
          18 -731 -104 callgsubr
        </CharString>
        <CharString name="uni0208">
          -182 108 631 -79 callsubr
          -80 -792 rmoveto
          -85 callgsubr
          endchar
        </CharString>
        <CharString name="uni0209">
          -228 97 552 -79 callsubr
          211 -663 rmoveto
          -83 callsubr
          -50 291 vlineto
          endchar
        </CharString>
        <CharString name="uni020A">
          -182 191 -59 callgsubr
          -155 -798 rmoveto
          -85 callgsubr
          endchar
        </CharString>
        <CharString name="uni020B">
          -228 171 -59 callsubr
          145 -671 rmoveto
          -83 callsubr
          -50 291 vlineto
          endchar
        </CharString>
        <CharString name="uni020C">
          106 252 631 -79 callsubr
          73 -164 -105 callgsubr
          endchar
        </CharString>
        <CharString name="uni020D">
          -13 204 552 -79 callsubr
          58 -211 -99 callgsubr
        </CharString>
        <CharString name="uni020E">
          106 335 -59 callgsubr
          -2 -170 -105 callgsubr
          endchar
        </CharString>
        <CharString name="uni020F">
          -13 278 -59 callsubr
          -8 -219 -99 callgsubr
        </CharString>
        <CharString name="uni0210">
          41 219 631 -79 callsubr
          191 -792 rmoveto
          -83 callgsubr
          endchar
        </CharString>
        <CharString name="uni0211">
          -131 145 552 -79 callsubr
          150 -296 -78 callsubr
          endchar
        </CharString>
        <CharString name="uni0212">
          41 302 -59 callgsubr
          116 -798 rmoveto
          -83 callgsubr
          endchar
        </CharString>
        <CharString name="uni0213">
          -131 219 -59 callsubr
          84 -304 -78 callsubr
          endchar
        </CharString>
        <CharString name="uni0214">
          104 251 631 -79 callsubr
          313 -556 -103 callgsubr
          endchar
        </CharString>
        <CharString name="uni0215">
          63 242 552 -79 callsubr
          344 -701 rmoveto
          -21 callsubr
          419 -44 vlineto
          -169 -107 callsubr
          endchar
        </CharString>
        <CharString name="uni0216">
          104 334 -59 callgsubr
          238 -562 -103 callgsubr
          endchar
        </CharString>
        <CharString name="uni0217">
          63 316 -59 callsubr
          278 -709 rmoveto
          -21 callsubr
          419 -44 vlineto
          -169 -107 callsubr
          endchar
        </CharString>
        <CharString name="uni021A">
          -18 118 hmoveto
          304 -32 callsubr
          92 -274 -51 callsubr
        </CharString>
        <CharString name="uni021B">
          -209 181 -9 rmoveto
          31 callsubr
          hvcurveto
          -49 callsubr
          -38 12 -40 77 vhcurveto
          -52 -220 -51 callsubr
        </CharString>
        <CharString name="uni0232">
          18 167 758 -27 callgsubr
          -50 -190 rmoveto
          -77 callsubr
          -220 vlineto
          endchar
        </CharString>
        <CharString name="uni0232.loclGUA">
          127 221 758 -27 callgsubr
          -263 -839 rmoveto
          -32 callgsubr
          -95 callsubr
          endchar
        </CharString>
        <CharString name="uni0233">
          -57 129 685 -27 callgsubr
          -143 -193 -78 callgsubr
          endchar
        </CharString>
        <CharString name="uni0233.loclGUA">
          38 177 685 -27 callgsubr
          -28 -588 rmoveto
          -57 callgsubr
          -86 callsubr
          endchar
        </CharString>
        <CharString name="uni0237">
          -227 32 463 -76 callgsubr
        </CharString>
        <CharString name="uni0259">
          -76 216 502 rmoveto
          -85 -61 -25 -30 -40 hvcurveto
          8 -44 rlineto
          14 50 50 10 38 hhcurveto
          86 49 -32 -123 hvcurveto
          -24 -282 vlineto
          -3 -17 -1 -37 -12 vvcurveto
          -132 61 -60 140 122 108 61 197 133 -50 121 -190 vhcurveto
          93 -308 rmoveto
          -84 -3 -14 -51 -71 hhcurveto
          -53 -7 46 57 hvcurveto
          21 vlineto
          endchar
        </CharString>
        <CharString name="uni0272">
          73 538 70 rmoveto
          328 vlineto
          77 -59 27 -65 -63 -87 -28 -12 -26 vhcurveto
          40 -67 callsubr
          -37 rlineto
          -50 vlineto
          78 -10 rlineto
          -424 vlineto
          -33 -20 -40 -53 vhcurveto
          -45 hlineto
          -6 -47 rlineto
          -20 42 45 -9 23 hhcurveto
          71 78 54 170 hvcurveto
          353 vlineto
          7 25 27 5 44 hhcurveto
          55 14 -8 -49 hvcurveto
          -294 vlineto
          -60 -25 rlineto
          -45 274 45 vlineto
          endchar
        </CharString>
        <CharString name="uni02B0">
          -81 408 340 rmoveto
          23 callsubr
          201 -38 vlineto
          -130 31 callgsubr
          -414 -6 callsubr
          endchar
        </CharString>
        <CharString name="uni02BC">
          -302 112 -3 callsubr
          endchar
        </CharString>
        <CharString name="uni02C9">
          -302 7 685 -27 callgsubr
          endchar
        </CharString>
        <CharString name="uni02E1">
          -305 236 319 rmoveto
          -52 21 rlineto
          487 -38 vlineto
          -130 31 callgsubr
          -414 vlineto
          -53 -21 rlineto
          -40 220 vlineto
          endchar
        </CharString>
        <CharString name="uni02E2">
          -207 177 598 rmoveto
          24 11 -3 -5 8 hvcurveto
          16 -58 rlineto
          49 hlineto
          9 104 rlineto
          13 -32 -45 6 -39 hhcurveto
          -107 -38 -48 -65 -66 25 -27 42 -16 hvcurveto
          83 -32 rlineto
          23 -8 8 -9 -17 vvcurveto
          -37 -23 -1 -35 -23 -17 4 4 -13 vhcurveto
          -17 62 rlineto
          -44 hlineto
          -10 -108 rlineto
          -13 34 52 -8 38 hhcurveto
          101 55 56 63 63 -31 23 -45 18 hvcurveto
          -80 31 rlineto
          -22 7 -7 13 15 vvcurveto
          26 15 13 35 vhcurveto
          endchar
        </CharString>
        <CharString name="uni0302">
          -557 1 640 -96 callsubr
          endchar
        </CharString>
        <CharString name="uni0304">
          -557 -248 758 -27 callgsubr
          endchar
        </CharString>
        <CharString name="uni0306">
          -557 -131 -58 callgsubr
          endchar
        </CharString>
        <CharString name="uni0307">
          -557 -44 -30 callsubr
          endchar
        </CharString>
        <CharString name="uni0308">
          -557 -167 719 -102 callgsubr
          endchar
        </CharString>
        <CharString name="uni030A">
          -557 -128 -51 callgsubr
          endchar
        </CharString>
        <CharString name="uni030B">
          -557 -269 631 -61 callsubr
          endchar
        </CharString>
        <CharString name="uni030C">
          -557 -170 -79 callgsubr
          endchar
        </CharString>
        <CharString name="uni030F">
          -557 -147 552 -79 callsubr
          endchar
        </CharString>
        <CharString name="uni030F.case">
          -557 -147 631 -79 callsubr
          endchar
        </CharString>
        <CharString name="uni0311">
          -557 -121 -59 callsubr
          endchar
        </CharString>
        <CharString name="uni0311.case">
          -557 -124 -59 callgsubr
          endchar
        </CharString>
        <CharString name="uni031B">
          -557 -174 530 rmoveto
          -6 -13 rlineto
          3 -13 2 -16 -12 vvcurveto
          -44 -23 -9 -33 vhcurveto
          -41 -52 17 hlineto
          84 94 42 74 15 -4 24 -9 18 hvcurveto
          endchar
        </CharString>
        <CharString name="uni0326">
          -557 -146 -236 rmoveto
          80 188 -25 24 -90 -20 -9 -185 rlineto
          endchar
        </CharString>
        <CharString name="uni0327">
          -557 -132 -46 rmoveto
          16 52 rlineto
          -46 hlineto
          -29 -79 -64 callsubr
          -15 callgsubr
          endchar
        </CharString>
        <CharString name="uni0328">
          -557 -98 -7 callgsubr
        </CharString>
        <CharString name="uni0394">
          0 callgsubr
        </CharString>
        <CharString name="uni03A9">
          -41 callgsubr
        </CharString>
        <CharString name="uni03BC">
          -37 callsubr
        </CharString>
        <CharString name="uni1E0C">
          98 309 614 -65 callsubr
          104 -680 -102 callsubr
          endchar
        </CharString>
        <CharString name="uni1E0D">
          -39 callgsubr
          107 -199 -102 callsubr
          endchar
        </CharString>
        <CharString name="uni1E24">
          179 35 hmoveto
          -53 callsubr
          417 -173 -102 callsubr
          endchar
        </CharString>
        <CharString name="uni1E25">
          66 610 hmoveto
          -54 callgsubr
          60 -128 -102 callsubr
          endchar
        </CharString>
        <CharString name="uni1E44">
          162 444 -30 callsubr
          17 -101 rmoveto
          -82 callgsubr
          318 -466 -25 callsubr
          vlineto
          endchar
        </CharString>
        <CharString name="uni1E45">
          73 399 -30 callgsubr
          -161 -184 -93 callgsubr
          endchar
        </CharString>
        <CharString name="uni1E5A">
          41 418 hmoveto
          -83 callgsubr
          87 -451 -102 callsubr
          endchar
        </CharString>
        <CharString name="uni1E5B">
          -131 303 417 -78 callsubr
          -48 -545 -102 callsubr
          endchar
        </CharString>
        <CharString name="uni1E62">
          -74 41 445 -88 callsubr
          285 -573 -102 callsubr
          endchar
        </CharString>
        <CharString name="uni1E63">
          -107 236 -43 callgsubr
          73 -563 -102 callsubr
          endchar
        </CharString>
        <CharString name="uni1E6C">
          -12 callsubr
          -178 -742 -102 callsubr
          endchar
        </CharString>
        <CharString name="uni1E6D">
          -209 318 13 rmoveto
          -49 callsubr
          -38 12 -40 77 31 callsubr
          vhcurveto
          -60 -141 -102 callsubr
          endchar
        </CharString>
        <CharString name="uni1E92">
          -57 472 162 -73 callgsubr
          -130 -128 -102 callsubr
          endchar
        </CharString>
        <CharString name="uni1E93">
          -77 288 419 -87 callgsubr
          193 -547 -102 callsubr
          endchar
        </CharString>
        <CharString name="uni1E9E">
          67 6 hmoveto
          220 400 hlineto
          88 25 65 93 30 28 -4 -6 23 vhcurveto
          -149 -250 18 -33 rlineto
          122 62 -32 -80 -56 -28 -29 -43 -24 -17 6 6 -13 hvcurveto
          -17 90 rlineto
          -56 hlineto
          -15 -143 rlineto
          -21 42 56 -10 46 hhcurveto
          125 67 74 97 83 -50 67 -123 9 hvcurveto
          126 216 -5 33 rlineto
          34 -42 -82 24 -74 hhcurveto
          -173 -87 -107 -135 hvcurveto
          -317 vlineto
          -85 -24 rlineto
          endchar
        </CharString>
        <CharString name="uni1EA0">
          37 142 68 -28 callgsubr
        </CharString>
        <CharString name="uni1EA1">
          -41 233 426 -107 callgsubr
          105 -341 -102 callsubr
          endchar
        </CharString>
        <CharString name="uni1EA2">
          37 259 734 -106 callsubr
          314 -665 -56 callgsubr
        </CharString>
        <CharString name="uni1EA3">
          -41 220 612 -106 callsubr
          252 -529 -77 callgsubr
        </CharString>
        <CharString name="uni1EA4">
          37 441 691 -22 callgsubr
          -10 -74 -96 callsubr
          -125 -649 -99 callsubr
        </CharString>
        <CharString name="uni1EA5">
          -41 432 621 -22 callgsubr
          -20 -85 -84 callgsubr
          -25 -218 -107 callgsubr
          endchar
        </CharString>
        <CharString name="uni1EA6">
          37 468 690 -18 callsubr
          100 -240 -96 callsubr
          -125 -649 -99 callsubr
        </CharString>
        <CharString name="uni1EA7">
          -41 449 621 -18 callsubr
          90 -252 -84 callgsubr
          -15 -218 -107 callgsubr
          endchar
        </CharString>
        <CharString name="uni1EA8">
          37 385 836 -106 callsubr
          -48 -119 rmoveto
          19 callgsubr
          26 -25 rlineto
          362 -571 -56 callgsubr
        </CharString>
        <CharString name="uni1EA9">
          -41 347 766 -106 callsubr
          -49 -122 rmoveto
          3 callsubr
          36 -30 rlineto
          290 -476 -77 callgsubr
        </CharString>
        <CharString name="uni1EAA">
          37 473 911 -98 callgsubr
          -47 -271 -96 callsubr
          -155 -649 -99 callsubr
        </CharString>
        <CharString name="uni1EAB">
          -41 434 789 -98 callgsubr
          -47 -271 -96 callsubr
          -25 -169 -107 callgsubr
          endchar
        </CharString>
        <CharString name="uni1EAC">
          37 426 640 -96 callsubr
          -155 -649 -28 callgsubr
        </CharString>
        <CharString name="uni1EAD">
          -41 377 559 -84 callgsubr
          -25 -218 -107 callgsubr
          105 -341 -102 callsubr
          endchar
        </CharString>
        <CharString name="uni1EAE">
          37 261 780 -82 callsubr
          59 -164 -72 callsubr
          endchar
        </CharString>
        <CharString name="uni1EAF">
          -41 222 658 -82 callsubr
          59 -164 -87 callsubr
          -21 -103 -107 callgsubr
          endchar
        </CharString>
        <CharString name="uni1EB0">
          37 333 780 -52 callsubr
          192 -238 -72 callsubr
          endchar
        </CharString>
        <CharString name="uni1EB1">
          -41 294 658 -52 callsubr
          192 -238 -87 callsubr
          -21 -103 -107 callgsubr
          endchar
        </CharString>
        <CharString name="uni1EB2">
          37 261 880 -106 callsubr
          72 -229 -87 callsubr
          240 -582 -56 callgsubr
        </CharString>
        <CharString name="uni1EB3">
          -41 222 758 -106 callsubr
          72 -229 -87 callsubr
          178 -446 -77 callgsubr
        </CharString>
        <CharString name="uni1EB4">
          37 473 911 -98 callgsubr
          -180 -260 -72 callsubr
          endchar
        </CharString>
        <CharString name="uni1EB5">
          -41 434 789 -98 callgsubr
          -180 -260 -87 callsubr
          -21 -103 -107 callgsubr
          endchar
        </CharString>
        <CharString name="uni1EB6">
          37 293 651 -72 callsubr
          192 -335 -102 callsubr
          endchar
        </CharString>
        <CharString name="uni1EB7">
          -41 251 -64 callgsubr
          -18 -148 -107 callgsubr
          105 -341 -102 callsubr
          endchar
        </CharString>
        <CharString name="uni1EB8">
          -12 378 396 -100 callsubr
          -74 -524 -102 callsubr
          endchar
        </CharString>
        <CharString name="uni1EB9">
          -76 265 -10 -106 callgsubr
          5 -437 -102 callsubr
          endchar
        </CharString>
        <CharString name="uni1EBA">
          -12 235 734 -106 callsubr
          267 -572 -19 callsubr
        </CharString>
        <CharString name="uni1EBB">
          -76 203 612 -106 callsubr
          289 -368 rmoveto
          3 17 1 37 12 vvcurveto
          132 -61 60 -140 -71 callgsubr
          -24 callgsubr
          vhcurveto
          -74 callgsubr
          vlineto
          90 189 rmoveto
          53 7 -46 -57 hvcurveto
          -21 vlineto
          -148 -11 rlineto
          84 3 14 51 71 hhcurveto
          endchar
        </CharString>
        <CharString name="uni1EBC">
          -12 454 765 -98 callgsubr
          -76 -369 -100 callsubr
          endchar
        </CharString>
        <CharString name="uni1EBD">
          -76 335 583 rmoveto
          -54 callsubr
          -75 callgsubr
          -70 -593 -104 callgsubr
        </CharString>
        <CharString name="uni1EBE">
          -12 417 691 -22 callgsubr
          -10 -74 -96 callsubr
          135 -321 -100 callsubr
          endchar
        </CharString>
        <CharString name="uni1EBF">
          -76 415 621 -22 callgsubr
          -20 -85 -84 callgsubr
          24 -654 -104 callgsubr
        </CharString>
        <CharString name="uni1EC0">
          -12 444 690 -18 callsubr
          100 -240 -96 callsubr
          135 -321 -100 callsubr
          endchar
        </CharString>
        <CharString name="uni1EC1">
          -76 432 621 -18 callsubr
          90 -252 -84 callgsubr
          34 -654 -104 callgsubr
        </CharString>
        <CharString name="uni1EC2">
          -12 361 836 -106 callsubr
          -48 -119 rmoveto
          19 callgsubr
          26 -25 rlineto
          315 -478 -19 callsubr
        </CharString>
        <CharString name="uni1EC3">
          -76 376 830 rmoveto
          -29 callsubr
          hvcurveto
          6 -53 rlineto
          40 hlineto
          7 27 rlineto
          1 10 10 1 8 hhcurveto
          26 12 -8 -14 -17 -16 -13 -50 hvcurveto
          4 -44 rlineto
          54 hlineto
          6 23 rlineto
          51 8 25 18 28 vvcurveto
          34 -37 20 -64 vhcurveto
          -135 -186 rmoveto
          3 callsubr
          36 -30 rlineto
          130 -57 rmoveto
          -71 callgsubr
          -24 callgsubr
          -75 callsubr
          282 vlineto
          3 17 1 37 12 vvcurveto
          132 -61 60 -140 vhcurveto
          65 -193 rmoveto
          -148 -11 rlineto
          84 3 14 51 71 hhcurveto
          53 7 -46 -57 hvcurveto
          endchar
        </CharString>
        <CharString name="uni1EC4">
          -12 449 911 -98 callgsubr
          -47 -271 -96 callsubr
          105 -321 -100 callsubr
          endchar
        </CharString>
        <CharString name="uni1EC5">
          -76 417 789 -98 callgsubr
          -47 -271 -96 callsubr
          24 -605 -104 callgsubr
        </CharString>
        <CharString name="uni1EC6">
          -12 402 640 -96 callsubr
          105 -321 -100 callsubr
          -74 -524 -102 callsubr
          endchar
        </CharString>
        <CharString name="uni1EC7">
          -76 360 559 -84 callgsubr
          24 -654 -106 callgsubr
          5 -437 -102 callsubr
          endchar
        </CharString>
        <CharString name="uni1EC8">
          -182 150 734 -106 callsubr
          230 -165 rmoveto
          45 -305 -45 vlineto
          85 -23 rlineto
          16 callsubr
          endchar
        </CharString>
        <CharString name="uni1EC9">
          -228 127 612 -106 callsubr
          151 -542 rmoveto
          -80 callsubr
          -50 291 50 vlineto
          endchar
        </CharString>
        <CharString name="uni1ECA">
          -182 36 hmoveto
          -85 callgsubr
          236 -173 -102 callsubr
          endchar
        </CharString>
        <CharString name="uni1ECB">
          -228 170 566 -35 callgsubr
          -145 -566 rmoveto
          291 50 hlineto
          -83 callsubr
          224 -178 -102 callsubr
          endchar
        </CharString>
        <CharString name="uni1ECC">
          106 333 628 -105 callgsubr
          -72 -439 -102 callsubr
          endchar
        </CharString>
        <CharString name="uni1ECD">
          -13 270 502 -103 callsubr
          -18 -374 -102 callsubr
          endchar
        </CharString>
        <CharString name="uni1ECE">
          106 294 734 -106 callsubr
          79 -106 rmoveto
          -216 -87 -144 -173 -175 90 -145 213 216 84 145 175 -47 callsubr
          hvcurveto
          4 -566 -34 callsubr
        </CharString>
        <CharString name="uni1ECF">
          -13 234 612 -106 callsubr
          76 -110 rmoveto
          -177 -68 -115 -143 -138 70 -116 175 179 70 116 138 143 -68 115 -181 hvcurveto
          4 -444 -21 callgsubr
        </CharString>
        <CharString name="uni1ED0">
          106 476 691 -22 callgsubr
          -10 -74 -96 callsubr
          31 -89 -105 callgsubr
          endchar
        </CharString>
        <CharString name="uni1ED1">
          -13 446 621 -22 callgsubr
          -20 -85 -84 callgsubr
          -2 -48 callsubr
          endchar
        </CharString>
        <CharString name="uni1ED2">
          106 503 690 -18 callsubr
          100 -240 -96 callsubr
          31 -89 -105 callgsubr
          endchar
        </CharString>
        <CharString name="uni1ED3">
          -13 463 621 -18 callsubr
          90 -252 -84 callgsubr
          8 -48 callsubr
          endchar
        </CharString>
        <CharString name="uni1ED4">
          106 420 836 -106 callsubr
          -48 -119 rmoveto
          19 callgsubr
          26 -25 rlineto
          127 -12 rmoveto
          -216 -87 -144 -173 -175 90 -145 213 216 84 145 175 -47 callsubr
          hvcurveto
          4 -566 -34 callsubr
        </CharString>
        <CharString name="uni1ED5">
          -13 361 766 -106 callsubr
          -49 -122 rmoveto
          3 callsubr
          36 -30 rlineto
          114 -57 rmoveto
          -177 -68 -115 -143 -138 70 -116 175 179 70 116 138 143 -68 115 -181 hvcurveto
          4 -444 -21 callgsubr
        </CharString>
        <CharString name="uni1ED6">
          106 508 911 -98 callgsubr
          -47 -271 -96 callsubr
          1 -89 -105 callgsubr
          endchar
        </CharString>
        <CharString name="uni1ED7">
          -13 448 789 -98 callgsubr
          -47 -271 -96 callsubr
          -2 -93 -99 callgsubr
        </CharString>
        <CharString name="uni1ED8">
          106 461 640 -96 callsubr
          1 -89 -105 callgsubr
          -72 -439 -102 callsubr
          endchar
        </CharString>
        <CharString name="uni1ED9">
          -35 callsubr
          -18 -374 -102 callsubr
          endchar
        </CharString>
        <CharString name="uni1EDA">
          106 522 743 rmoveto
          10 callgsubr
          27 -35 rlineto
          387 15 -94 callsubr
          endchar
        </CharString>
        <CharString name="uni1EDB">
          -13 419 21 callsubr
          373 -21 -91 callsubr
          endchar
        </CharString>
        <CharString name="uni1EDC">
          106 389 4 callgsubr
          315 15 -94 callsubr
          endchar
        </CharString>
        <CharString name="uni1EDD">
          -13 359 20 callgsubr
          228 -21 -91 callsubr
          endchar
        </CharString>
        <CharString name="uni1EDE">
          106 294 734 -106 callsubr
          427 -85 -94 callsubr
          endchar
        </CharString>
        <CharString name="uni1EDF">
          -13 234 612 -106 callsubr
          370 -75 -91 callsubr
          endchar
        </CharString>
        <CharString name="uni1EE0">
          106 244 698 rmoveto
          38 89 -37 49 hhcurveto
          34 28 46 58 24 hvcurveto
          -92 callgsubr
          437 -49 -94 callsubr
          endchar
        </CharString>
        <CharString name="uni1EE1">
          -13 184 620 rmoveto
          38 89 -37 49 hhcurveto
          34 28 46 58 24 hvcurveto
          -71 callsubr
          380 -83 -91 callsubr
          endchar
        </CharString>
        <CharString name="uni1EE2">
          106 681 649 -94 callsubr
          -3 -106 rmoveto
          -16 callsubr
        </CharString>
        <CharString name="uni1EE3">
          -13 564 537 -91 callsubr
          -102 vmoveto
          -16 callsubr
        </CharString>
        <CharString name="uni1EE4">
          104 572 236 -103 callgsubr
          -157 -364 -102 callsubr
          endchar
        </CharString>
        <CharString name="uni1EE5">
          63 594 12 rmoveto
          -21 callsubr
          419 -44 vlineto
          -169 -107 callsubr
          -200 -140 -102 callsubr
          endchar
        </CharString>
        <CharString name="uni1EE6">
          104 293 734 -106 callsubr
          159 -120 rmoveto
          -45 vlineto
          -72 callgsubr
          -41 callsubr
          vlineto
          endchar
        </CharString>
        <CharString name="uni1EE7">
          63 272 612 -106 callsubr
          284 -529 rmoveto
          419 -44 vlineto
          -169 -81 callsubr
          endchar
        </CharString>
        <CharString name="uni1EE8">
          104 521 743 rmoveto
          10 callgsubr
          27 -35 rlineto
          392 44 -90 callgsubr
          endchar
        </CharString>
        <CharString name="uni1EE9">
          63 457 21 callsubr
          437 8 -96 callgsubr
          endchar
        </CharString>
        <CharString name="uni1EEA">
          104 388 4 callgsubr
          320 44 -90 callgsubr
          endchar
        </CharString>
        <CharString name="uni1EEB">
          63 397 20 callgsubr
          292 8 -96 callgsubr
          endchar
        </CharString>
        <CharString name="uni1EEC">
          104 293 734 -106 callsubr
          432 -56 -90 callgsubr
          endchar
        </CharString>
        <CharString name="uni1EED">
          63 272 612 -106 callsubr
          434 -46 -96 callgsubr
          endchar
        </CharString>
        <CharString name="uni1EEE">
          104 243 698 rmoveto
          38 89 -37 49 hhcurveto
          34 28 46 58 24 hvcurveto
          -92 callgsubr
          442 -20 -90 callgsubr
          endchar
        </CharString>
        <CharString name="uni1EEF">
          63 222 620 rmoveto
          38 89 -37 49 hhcurveto
          34 28 46 58 24 hvcurveto
          -71 callsubr
          444 -54 -96 callgsubr
          endchar
        </CharString>
        <CharString name="uni1EF0">
          104 685 678 -90 callgsubr
          -352 -722 rmoveto
          -16 callsubr
        </CharString>
        <CharString name="uni1EF1">
          63 666 566 -96 callgsubr
          -354 -610 rmoveto
          -16 callsubr
        </CharString>
        <CharString name="uni1EF4">
          18 358 568 rmoveto
          -77 callsubr
          -220 vlineto
          14 -742 -102 callsubr
          endchar
        </CharString>
        <CharString name="uni1EF5">
          -57 227 492 -78 callgsubr
          231 -580 -102 callsubr
          endchar
        </CharString>
        <CharString name="uni1EF6">
          18 250 734 -106 callsubr
          148 -120 rmoveto
          -46 vlineto
          -77 callsubr
          vlineto
          endchar
        </CharString>
        <CharString name="uni1EF7">
          -57 212 612 -106 callsubr
          124 -120 rmoveto
          -39 callsubr
          40 -240 -40 vlineto
          50 -27 171 -399 rlineto
          -59 -23 -38 -60 -72 hhcurveto
          -65 hlineto
          -8 -46 rlineto
          -20 45 42 -9 31 hhcurveto
          90 52 76 126 46 hvcurveto
          142 389 63 17 rlineto
          52 vlineto
          endchar
        </CharString>
        <CharString name="uni1EF8">
          18 486 765 -98 callgsubr
          -128 -197 rmoveto
          -77 callsubr
          -220 vlineto
          endchar
        </CharString>
        <CharString name="uni1EF8.loclGUA">
          127 438 -9 callsubr
          -134 -829 rmoveto
          -95 callsubr
          -32 callgsubr
          endchar
        </CharString>
        <CharString name="uni1EF9">
          -57 430 687 rmoveto
          -75 callgsubr
          -54 callsubr
          -203 -195 -78 callgsubr
          endchar
        </CharString>
        <CharString name="uni1EF9.loclGUA">
          38 478 687 rmoveto
          -75 callgsubr
          -54 callsubr
          -88 -590 rmoveto
          -57 callgsubr
          -86 callsubr
          endchar
        </CharString>
        <CharString name="uni2070">
          381 494 -44 callsubr
        </CharString>
        <CharString name="uni2074">
          222 277 rmoveto
          -60 callsubr
        </CharString>
        <CharString name="uni2075">
          338 710 -63 callsubr
          6 100 rlineto
          176 hlineto
          endchar
        </CharString>
        <CharString name="uni2076">
          146 525 rmoveto
          111 29 50 28 -20 callsubr
          -67 -204 -97 31 -79 133 8 callsubr
          -28 -34 -6 -11 -23 hvcurveto
          -3 -90 rmoveto
          26 17 31 25 30 hhcurveto
          32 10 -35 -46 -47 -20 -34 -45 -40 -11 48 63 -4 hvcurveto
          endchar
        </CharString>
        <CharString name="uni2077">
          41 601 -46 callsubr
          endchar
        </CharString>
        <CharString name="uni2078">
          41 375 -101 callsubr
        </CharString>
        <CharString name="uni2079">
          57 351 -69 callsubr
        </CharString>
        <CharString name="uni207D">
          -277 162 494 -1 callgsubr
          165 86 vvcurveto
          endchar
        </CharString>
        <CharString name="uni207E">
          -277 120 494 rmoveto
          -86 0 -165 -2 callgsubr
        </CharString>
        <CharString name="uni207F">
          -62 200 626 rmoveto
          29 -37 vlineto
          -131 -27 rlineto
          -38 vlineto
          53 -8 rlineto
          -242 -6 callsubr
          -55 19 rlineto
          23 callsubr
          endchar
        </CharString>
        <CharString name="uni2080">
          -156 374 106 -44 callsubr
        </CharString>
        <CharString name="uni2081">
          50 248 -27 callsubr
          endchar
        </CharString>
        <CharString name="uni2082">
          186 270 -73 callsubr
          endchar
        </CharString>
        <CharString name="uni2083">
          204 330 -91 callgsubr
          endchar
        </CharString>
        <CharString name="uni2084">
          222 -112 rmoveto
          -60 callsubr
        </CharString>
        <CharString name="uni2085">
          338 322 -63 callsubr
          9 106 rlineto
          173 hlineto
          endchar
        </CharString>
        <CharString name="uni2086">
          150 147 -31 callgsubr
        </CharString>
        <CharString name="uni2087">
          41 213 -46 callsubr
          endchar
        </CharString>
        <CharString name="uni2088">
          41 -17 -101 callsubr
        </CharString>
        <CharString name="uni2089">
          57 -40 -69 callsubr
        </CharString>
        <CharString name="uni208D">
          -239 163 105 -1 callgsubr
          164 87 vvcurveto
          endchar
        </CharString>
        <CharString name="uni208E">
          -240 155 105 rmoveto
          -87 0 -164 -2 callgsubr
        </CharString>
        <CharString name="uni20B2">
          22 275 303 rmoveto
          1 callgsubr
          -150 vlineto
          -8 -26 -26 0 -18 hhcurveto
          -90 -27 112 119 112 24 115 124 23 36 -4 -9 21 hvcurveto
          25 -98 rlineto
          56 hlineto
          11 153 -35 13 -60 12 -56 3 rlinecurve
          96 -65 -96 vlineto
          -181 -14 -65 -128 -156 vvcurveto
          -149 59 -137 180 -15 vhcurveto
          -92 67 92 vlineto
          58 5 61 14 39 22 rrcurveto
          190 vlineto
          60 19 rlineto
          47 vlineto
          endchar
        </CharString>
        <CharString name="uni20BA">
          -66 35 hmoveto
          178 hlineto
          258 9 146 160 4 hvcurveto
          -77 hlineto
          -137 -29 -100 -124 vhcurveto
          199 vlineto
          106 39 rlineto
          60 vlineto
          -106 -39 rlineto
          55 vlineto
          106 39 rlineto
          60 vlineto
          -106 -39 rlineto
          103 -28 callsubr
          -304 1 callgsubr
          -152 vlineto
          -85 -31 rlineto
          -60 vlineto
          85 31 rlineto
          -54 vlineto
          -85 -31 rlineto
          -61 vlineto
          85 31 rlineto
          -150 -62 callgsubr
          endchar
        </CharString>
        <CharString name="uni20BD">
          -8 36 hmoveto
          325 46 hlineto
          -106 23 rlineto
          83 172 49 -172 46 54 vlineto
          109 121 50 33 callgsubr
          -286 -45 hlineto
          -40 callgsubr
          -250 -84 -49 84 -46 -84 -49 84 -83 -62 callgsubr
          219 251 18 callsubr
          -58 -78 hvcurveto
          endchar
        </CharString>
        <CharString name="uni2113">
          -79 297 71 rmoveto
          -73 -13 20 88 hvcurveto
          115 71 110 113 111 vvcurveto
          99 -48 56 -102 -169 -28 -127 -139 vhcurveto
          -176 vlineto
          -21 -13 -24 -15 -23 -15 31 -53 rcurveline
          11 6 14 6 12 7 rrcurveto
          -1 vlineto
          -77 37 -42 127 71 74 30 25 30 vhcurveto
          -8 44 rlineto
          -1 -1 -64 -17 -58 hhcurveto
          -86 350 rmoveto
          92 10 44 51 35 14 -25 -57 -70 -31 -71 -79 -61 vhcurveto
          endchar
        </CharString>
        <CharString name="uni2126">
          -41 callgsubr
        </CharString>
        <CharString name="uni2153">
          407 375 -48 callgsubr
          -242 602 -27 callsubr
          705 -133 -91 callgsubr
          endchar
        </CharString>
        <CharString name="uni2154">
          469 454 -48 callgsubr
          -175 623 -73 callsubr
          621 -113 -91 callgsubr
          endchar
        </CharString>
        <CharString name="uni2196">
          1 462 374 rmoveto
          -360 56 -14 -14 69 -351 55 -2 -15 203 196 -217 74 77 -217 200 212 -10 rlineto
          endchar
        </CharString>
        <CharString name="uni2197">
          1 399 65 rmoveto
          68 349 -12 12 -363 -53 rlineto
          -57 vlineto
          215 8 -219 -201 76 -76 198 217 -19 -202 rlineto
          endchar
        </CharString>
        <CharString name="uni2198">
          1 307 161 rmoveto
          -215 8 rlineto
          -56 vlineto
          363 -56 12 12 -68 350 -56 2 19 -201 -198 217 -76 -74 rlineto
          endchar
        </CharString>
        <CharString name="uni2199">
          1 197 221 rmoveto
          15 204 -55 -2 -69 -351 14 -13 360 59 rlineto
          55 vlineto
          -212 -10 217 202 -74 74 rlineto
          endchar
        </CharString>
        <CharString name="uni2206">
          0 callgsubr
        </CharString>
        <CharString name="uni2215">
          -377 -68 -70 rmoveto
          83 hlineto
          233 717 rlineto
          -83 hlineto
          endchar
        </CharString>
        <CharString name="uni2219">
          -47 334 304 rmoveto
          -4 callsubr
        </CharString>
        <CharString name="uniA78B">
          -405 69 262 rmoveto
          88 324 -30 28 -97 -1 -12 -342 rlineto
          endchar
        </CharString>
        <CharString name="uniA78C">
          -372 91 343 rmoveto
          94 346 -30 28 -103 -23 -12 -342 rlineto
          endchar
        </CharString>
        <CharString name="uniF6E9">
          -150 180 595 rmoveto
          29 18 -18 -39 hvcurveto
          -47 vlineto
          -101 24 callsubr
          28 21 27 36 vhcurveto
          -28 6 17 -15 58 19 callsubr
          -53 17 -75 -56 -59 -12 -15 -46 vhcurveto
          9 -97 rlineto
          50 hlineto
          19 56 rlineto
          4 12 17 4 20 hhcurveto
          9 -158 rmoveto
          38 7 rlineto
          -86 vlineto
          -9 -13 -21 -7 -15 hhcurveto
          -23 -15 9 29 35 11 15 38 7 hvcurveto
          endchar
        </CharString>
        <CharString name="uniF6EA">
          -126 172 636 rmoveto
          191 -37 vlineto
          -132 -28 rlineto
          -36 vlineto
          54 -9 rlineto
          -463 vlineto
          -10 39 72 -11 42 hhcurveto
          160 36 102 94 133 -59 56 -101 -23 -29 -9 -10 -22 hvcurveto
          -297 vmoveto
          245 vlineto
          10 13 15 4 16 hhcurveto
          54 12 -47 -86 -90 -16 -49 -50 -19 -17 7 6 -8 hvcurveto
          endchar
        </CharString>
        <CharString name="uniF6EB">
          -117 259 321 rmoveto
          -31 7 35 -15 37 hhcurveto
          29 21 4 9 37 hvcurveto
          36 vlineto
          -54 25 rlineto
          478 -39 vlineto
          -129 31 callgsubr
          -118 vlineto
          2 -40 17 -37 -100 -55 -73 -120 -99 39 -93 82 45 38 21 30 31 vhcurveto
          -57 19 rmoveto
          -40 -14 50 74 83 19 54 43 13 22 -8 -13 11 hvcurveto
          -213 vlineto
          -11 -10 -23 -16 -21 hhcurveto
          endchar
        </CharString>
        <CharString name="uniF6EC">
          -177 210 270 rmoveto
          69 33 15 29 39 hvcurveto
          -7 34 rlineto
          -10 -36 -30 -5 -29 hhcurveto
          -60 -40 18 89 hvcurveto
          17 204 vlineto
          1 17 1 30 8 vvcurveto
          98 -45 45 -107 -88 -90 -38 -155 -90 31 -102 154 vhcurveto
          -60 234 rmoveto
          54 2 4 41 49 hhcurveto
          35 0 -36 -36 hvcurveto
          -16 vlineto
          endchar
        </CharString>
        <CharString name="uniF6ED">
          -280 218 766 rmoveto
          37 -32 31 -36 -38 -33 -31 -37 -38 33 -30 38 36 32 30 38 vhcurveto
          40 -447 rmoveto
          -53 21 rlineto
          315 -38 vlineto
          -130 28 callgsubr
          -21 rlineto
          -40 221 vlineto
          endchar
        </CharString>
        <CharString name="uniF6EF">
          161 31 279 rmoveto
          208 42 hlineto
          -40 19 rlineto
          241 vlineto
          0 33 9 23 43 11 -9 -33 vhcurveto
          -208 vlineto
          -35 -19 rlineto
          -42 187 42 vlineto
          -37 19 rlineto
          226 vlineto
          15 vlineto
          0 23 9 28 47 12 -6 -36 vhcurveto
          -208 vlineto
          -35 -19 rlineto
          -42 200 42 vlineto
          -50 19 rlineto
          238 vlineto
          65 -50 14 -51 -63 -50 -29 -8 -20 vhcurveto
          28 -17 -36 9 -36 hhcurveto
          -49 -58 -23 -8 -20 hvcurveto
          29 -39 vlineto
          -129 28 callgsubr
          -19 rlineto
          endchar
        </CharString>
        <CharString name="uniF6F0">
          -130 6 callsubr
          64 -191 rmoveto
          -77 -10 29 callgsubr
          13 -59 -78 vhcurveto
          endchar
        </CharString>
        <CharString name="uniF6F1">
          -224 234 588 rmoveto
          16 -73 rlineto
          52 hlineto
          21 141 rlineto
          1 -6 -11 0 -7 hhcurveto
          -35 -38 -14 -22 -30 hvcurveto
          34 -33 vlineto
          -136 -27 rlineto
          -38 vlineto
          53 -6 rlineto
          -244 vlineto
          -53 -19 rlineto
          -42 252 42 vlineto
          -84 19 rlineto
          233 vlineto
          11 8 15 5 13 2 rrcurveto
          endchar
        </CharString>
        <CharString name="uniF6F3">
          -282 244 294 rmoveto
          35 vlineto
          -60 13 rlineto
          248 vlineto
          70 -5 rlineto
          64 -70 83 -53 vlineto
          -55 -76 -61 -29 rlineto
          -38 54 -258 vlineto
          -28 13 -31 49 19 64 11 11 30 vhcurveto
          endchar
        </CharString>
        <CharString name="uogonek">
          63 584 9 rmoveto
          10 3 rlineto
          -21 callsubr
          419 -29 callgsubr
          -18 -25 -38 -15 -27 hhcurveto
          -46 -16 24 44 hvcurveto
          362 -29 callgsubr
          -58 30 -57 97 58 69 29 33 37 vhcurveto
          7 -36 48 -20 45 -1 rrcurveto
          -58 -37 -41 -56 -47 vvcurveto
          -43 28 -39 71 54 40 32 24 15 vhcurveto
          -3 callgsubr
          40 35 70 82 24 hvcurveto
          endchar
        </CharString>
        <CharString name="uring">
          63 413 -33 callsubr
          295 -695 rmoveto
          -21 callsubr
          419 -44 vlineto
          -169 -107 callsubr
          endchar
        </CharString>
        <CharString name="utilde">
          63 470 659 rmoveto
          -75 callgsubr
          -54 callsubr
          124 -647 rmoveto
          -21 callsubr
          419 -44 vlineto
          -169 -107 callsubr
          endchar
        </CharString>
        <CharString name="v">
          -57 453 423 rmoveto
          -9 callgsubr
          -91 -274 -88 276 51 12 rlineto
          55 -247 -52 vlineto
          51 -15 163 -440 97 10 rlineto
          endchar
        </CharString>
        <CharString name="w">
          177 680 423 -66 callgsubr
        </CharString>
        <CharString name="wacute">
          177 286 -74 callsubr
          421 -170 -66 callgsubr
        </CharString>
        <CharString name="wcircumflex">
          177 486 559 -84 callgsubr
          313 -221 -66 callgsubr
        </CharString>
        <CharString name="wdieresis">
          177 327 648 -102 callgsubr
          122 -225 -66 callgsubr
        </CharString>
        <CharString name="wgrave">
          177 431 -45 callgsubr
          481 -244 -66 callgsubr
        </CharString>
        <CharString name="x">
          -57 517 hmoveto
          58 vlineto
          -71 14 -127 177 121 178 55 10 rlineto
          55 -213 -54 vlineto
          44 -13 -62 -98 -75 104 37 7 rlineto
          54 -224 -52 vlineto
          47 -15 131 -183 -116 -169 -74 -20 rlineto
          -53 226 56 vlineto
          -45 10 64 99 72 -100 -41 -9 rlineto
          -56 vlineto
          endchar
        </CharString>
        <CharString name="y">
          -57 227 492 -78 callgsubr
          endchar
        </CharString>
        <CharString name="y.loclGUA">
          38 390 97 rmoveto
          -57 callgsubr
          -86 callsubr
          endchar
        </CharString>
        <CharString name="yacute">
          -57 172 -74 callsubr
          82 -101 -78 callgsubr
          endchar
        </CharString>
        <CharString name="yacute.loclGUA">
          38 219 -74 callsubr
          88 -761 rmoveto
          -86 callsubr
          -57 callgsubr
          endchar
        </CharString>
        <CharString name="ycircumflex">
          -57 141 -11 callgsubr
          15 -757 -23 callgsubr
        </CharString>
        <CharString name="ycircumflex.loclGUA">
          38 182 -11 callgsubr
          134 -757 rmoveto
          -86 callsubr
          -57 callgsubr
          endchar
        </CharString>
        <CharString name="ydieresis">
          -57 229 648 -102 callgsubr
          -233 -156 -78 callgsubr
          endchar
        </CharString>
        <CharString name="ydieresis.loclGUA">
          38 264 648 -102 callgsubr
          -105 -551 rmoveto
          -57 callgsubr
          -86 callsubr
          endchar
        </CharString>
        <CharString name="yen">
          -19 47 336 rmoveto
          119 hlineto
          32 -63 rlineto
          -151 -57 157 -142 hlineto
          -86 -28 rlineto
          -46 301 46 vlineto
          -86 28 rlineto
          142 155 57 -150 vlineto
          29 63 rlineto
          121 58 -94 hlineto
          69 146 75 28 rlineto
          46 -217 -46 vlineto
          65 -28 -89 -196 -89 196 65 28 rlineto
          46 -278 -46 vlineto
          69 -28 74 -146 rlineto
          -91 hlineto
          endchar
        </CharString>
        <CharString name="ygrave">
          -57 343 -45 callgsubr
          9 -835 -23 callgsubr
        </CharString>
        <CharString name="ygrave.loclGUA">
          38 389 -45 callgsubr
          233 -570 rmoveto
          -57 callgsubr
          -86 callsubr
          endchar
        </CharString>
        <CharString name="z">
          -77 288 419 -87 callgsubr
          endchar
        </CharString>
        <CharString name="zacute">
          -77 155 -74 callsubr
          152 -174 -87 callgsubr
          endchar
        </CharString>
        <CharString name="zacute.loclPLK">
          -77 220 552 -52 callgsubr
          99 -156 -87 callgsubr
          endchar
        </CharString>
        <CharString name="zcaron">
          -77 121 -70 callgsubr
          43 -234 -87 callgsubr
          endchar
        </CharString>
        <CharString name="zdotaccent">
          -77 329 -30 callgsubr
          -49 -227 -87 callgsubr
          endchar
        </CharString>
        <CharString name="zero">
          -47 479 313 rmoveto
          242 -82 79 -135 -123 -108 -81 -240 -241 99 -83 123 127 99 81 243 vhcurveto
          -223 -216 rmoveto
          -59 -68 40 174 180 68 37 59 61 66 -37 -173 -178 -66 -43 -61 hvcurveto
          endchar
        </CharString>
        <CharString name="zero.dnom">
          381 218 -44 callsubr
        </CharString>
        <CharString name="zero.numr">
          381 387 rmoveto
          170 -78 57 -95 -95 -80 -58 -169 -167 80 -58 95 95 78 56 169 vhcurveto
          -172 -139 rmoveto
          -42 -53 26 113 117 53 24 42 41 52 -24 -113 -114 -52 -29 -41 hvcurveto
          endchar
        </CharString>
        <CharString name="zero.osf">
          -47 479 272 rmoveto
          190 -86 77 -127 -127 -108 -76 -201 -192 99 -81 126 124 99 78 205 vhcurveto
          -224 -175 rmoveto
          -58 -68 31 138 138 68 29 61 60 65 -29 -135 -137 -66 -35 -62 hvcurveto
          endchar
        </CharString>
      <CharString index="0">
        rmoveto
        46 18 -17 -53 hvcurveto
        -70 vlineto
        -135 -28 rlineto
        -101 -21 -27 -71 -53 vvcurveto
        -75 44 -48 74 57 42 22 36 49 vhcurveto
        -36 11 46 -17 43 hhcurveto
        36 25 5 12 49 hvcurveto
        -21 callsubr
        -100 callgsubr
        4 -213 rmoveto
        60 15 rlineto
        -130 vlineto
        -12 -17 -34 -15 -28 hhcurveto
        -32 -20 17 39 44 17 28 54 14 hvcurveto
        return
      </CharString>
      <CharString index="1">
        rmoveto
        -24 callgsubr
        -75 callsubr
        282 vlineto
        3 17 1 37 12 vvcurveto
        132 -61 60 -140 -71 callgsubr
        vhcurveto
        -93 308 -68 callsubr
        return
      </CharString>
      <CharString index="2">
        rmoveto
        -216 -87 -144 -173 -175 90 -145 213 216 84 145 175 -47 callsubr
        hvcurveto
        155 -317 rmoveto
        -104 -17 -145 -134 -139 -23 139 110 101 19 146 133 139 22 -146 -101 vhcurveto
        return
      </CharString>
      <CharString index="3">
        -106 callgsubr
        endchar
      </CharString>
      <CharString index="4">
        rmoveto
        -41 callsubr
        -245 -45 vlineto
        -72 callgsubr
        return
      </CharString>
      <CharString index="5">
        rmoveto
        41 -34 32 -40 -41 -37 -32 -41 -42 37 -30 41 40 34 30 42 vhcurveto
        231 hmoveto
        41 -35 32 -38 -42 -35 -32 -41 -42 35 -30 42 38 35 30 42 vhcurveto
        return
      </CharString>
      <CharString index="6">
        -45 vlineto
        -105 callsubr
        return
      </CharString>
      <CharString index="7">
        294 vlineto
        100 -62 25 -100 -73 -72 -14 -23 -62 vhcurveto
        17 -135 rlineto
        59 hlineto
        22 84 rlineto
        7 20 24 5 28 hhcurveto
        return
      </CharString>
      <CharString index="8">
        -103 callsubr
        endchar
      </CharString>
      <CharString index="9">
        rmoveto
        -92 callgsubr
        -44 callgsubr
        -54 callsubr
        return
      </CharString>
      <CharString index="10">
        rmoveto
        180 86 83 81 87 -70 29 -104 hvcurveto
        -127 hlineto
        -25 -4 17 16 6 4 14 5 12 hvcurveto
        -4 12 33 -4 26 hhcurveto
        144 56 76 99 33 -15 40 -21 22 hvcurveto
        94 86 hlineto
        -135 -40 rlineto
        16 -29 -39 13 -55 hhcurveto
        -129 -69 -72 -98 -60 19 -57 53 -31 hvcurveto
        -33 -32 -36 -36 -39 vvcurveto
        -23 13 -31 29 -9 vhcurveto
        -59 -33 -13 -32 -31 vvcurveto
        -47 32 -51 177 vhcurveto
        18 402 rmoveto
        -49 -18 44 66 67 17 41 47 52 20 -41 -67 -66 -18 -44 -51 hvcurveto
        -15 -335 rmoveto
        -66 -19 22 32 27 7 18 18 23 hvcurveto
        136 hlineto
        38 23 0 -36 -52 -41 -34 -96 hvcurveto
        endchar
      </CharString>
      <CharString index="11">
        -95 callgsubr
        -41 hlineto
        -168 -81 callsubr
        -78 28 rlineto
        369 vlineto
        76 8 74 40 66 vvcurveto
        return
      </CharString>
      <CharString index="12">
        rmoveto
        15 -4 24 -9 18 vhcurveto
        -84 -14 -6 -13 rlineto
        3 -13 2 -16 -12 vvcurveto
        -44 -23 -9 -33 vhcurveto
        return
      </CharString>
      <CharString index="13">
        rmoveto
        25 -98 rlineto
        56 21 callgsubr
        16 -42 -78 13 -64 hhcurveto
        -238 -90 -144 -173 -174 82 -147 234 75 75 15 27 48 hvcurveto
        190 vlineto
        60 19 rlineto
        47 -279 1 callgsubr
        -150 vlineto
        -8 -26 -26 0 -18 hhcurveto
        -128 -39 117 132 108 33 138 155 37 32 -4 -9 21 hvcurveto
        endchar
      </CharString>
      <CharString index="14">
        rmoveto
        -60 callgsubr
        -45 -2 callsubr
        7 25 27 5 44 hhcurveto
        55 14 -8 -49 hvcurveto
        -294 vlineto
        -60 -25 rlineto
        -45 274 45 vlineto
        -79 25 rlineto
        328 vlineto
        77 -59 27 -65 -63 -87 -28 -12 -26 vhcurveto
        return
      </CharString>
      <CharString index="15">
        -44 19 rlineto
        0 -17 -31 -25 vhcurveto
        -39 -88 37 -49 hhcurveto
        -33 -34 -46 -58 -20 hvcurveto
        47 -19 rlineto
        0 16 31 24 vhcurveto
        return
      </CharString>
      <CharString index="16">
        rmoveto
        -55 -55 -19 -24 -38 hvcurveto
        21 -51 rlineto
        24 51 36 14 15 hhcurveto
        32 15 -19 -30 -42 -27 -42 -77 -8 hvcurveto
        4 -46 rlineto
        56 63 -8 -64 -52 -33 -27 -48 -15 -30 6 21 -64 hvcurveto
        -11 -53 rlineto
        -17 42 53 -13 48 hhcurveto
        110 60 45 90 48 -32 41 -58 17 hvcurveto
        42 23 28 43 46 vvcurveto
        65 -59 32 -74 vhcurveto
        return
      </CharString>
      <CharString index="17">
        -95 callgsubr
        -119 -45 hlineto
        -72 callgsubr
        310 vlineto
        69 55 rlineto
        26 19 18 26 32 vvcurveto
        return
      </CharString>
      <CharString index="18">
        -97 callsubr
        -45 return
      </CharString>
      <CharString index="19">
        -23 rlineto
        -80 callgsubr
        return
      </CharString>
      <CharString index="20">
        rmoveto
        -256 -373 22 -46 rlineto
        389 hlineto
        11 163 rlineto
        -50 hlineto
        -36 -92 rlineto
        -169 hlineto
        257 374 -23 47 rlineto
        -392 hlineto
        18 -162 rlineto
        47 hlineto
        25 89 rlineto
        return
      </CharString>
      <CharString index="21">
        vlineto
        -84 callsubr
        return
      </CharString>
      <CharString index="22">
        304 45 hlineto
        -12 callgsubr
        477 5 callgsubr
        -84 -24 rlineto
        return
      </CharString>
      <CharString index="23">
        rmoveto
        33 30 -109 141 rlineto
        -85 hlineto
        -110 -141 36 -30 116 85 rlineto
        return
      </CharString>
      <CharString index="24">
        -8 callsubr
        -45 293 45 vlineto
        -74 24 rlineto
        199 25 vlineto
        33 14 -14 -254 91 hvcurveto
        -122 323 rmoveto
        -41 223 hlineto
        4 11 18 3 19 hhcurveto
        61 42 -33 -72 -74 -39 -51 -71 hvcurveto
        return
      </CharString>
      <CharString index="25">
        -62 callsubr
        -383 vlineto
        -305 451 rlineto
        -206 -70 callsubr
        238 -13 callgsubr
        387 vlineto
        return
      </CharString>
      <CharString index="26">
        rmoveto
        69 67 24 31 42 hvcurveto
        -8 44 rlineto
        -18 -62 -47 -6 -36 hhcurveto
        -74 -36 32 149 105 15 84 85 22 17 -4 -9 22 hvcurveto
        21 -92 rlineto
        59 hlineto
        20 140 rlineto
        21 -56 -51 11 -69 hhcurveto
        -166 -64 -115 -143 -138 65 -116 165 hvcurveto
        endchar
      </CharString>
      <CharString index="27">
        -477 -62 callgsubr
        return
      </CharString>
      <CharString index="28">
        641 rmoveto
        85 hlineto
        109 134 -23 25 -129 -77 -126 77 -26 -25 rlineto
        return
      </CharString>
      <CharString index="29">
        rmoveto
        -240 -40 hlineto
        50 -27 171 -399 rlineto
        -59 -23 -38 -60 -72 hhcurveto
        -65 hlineto
        -8 -46 rlineto
        -20 45 42 -9 31 hhcurveto
        3 callgsubr
        return
      </CharString>
      <CharString index="30">
        rmoveto
        -100 callgsubr
        46 18 -17 -53 hvcurveto
        -70 vlineto
        -135 -28 rlineto
        -101 -21 -27 -71 -53 vvcurveto
        -75 44 -48 74 57 42 22 36 49 vhcurveto
        -36 11 46 -17 43 hhcurveto
        36 25 5 12 49 hvcurveto
        43 vlineto
        -213 43 rmoveto
        -12 -17 -34 -15 -28 hhcurveto
        -32 -20 17 39 44 17 28 54 14 hvcurveto
        60 15 rlineto
        endchar
      </CharString>
      <CharString index="31">
        rmoveto
        -48 vlineto
        78 -11 rlineto
        -423 vlineto
        -33 -20 -40 -53 vhcurveto
        -45 hlineto
        -6 -47 rlineto
        -20 42 45 -9 23 hhcurveto
        71 78 54 170 hvcurveto
        446 -44 vlineto
        endchar
      </CharString>
      <CharString index="32">
        -71 callsubr
        -44 callgsubr
        return
      </CharString>
      <CharString index="33">
        -8 44 rlineto
        -14 -50 -50 -10 -38 hhcurveto
        -86 -49 32 123 hvcurveto
        24 return
      </CharString>
      <CharString index="34">
        rmoveto
        -56 hlineto
        -38 -93 rlineto
        -199 hlineto
        301 512 -5 33 rlineto
        -436 hlineto
        10 -146 rlineto
        58 hlineto
        24 78 rlineto
        196 hlineto
        -306 -513 18 -33 rlineto
        425 hlineto
        return
      </CharString>
      <CharString index="35">
        -105 callsubr
        -45 callsubr
        vhcurveto
        return
      </CharString>
      <CharString index="36">
        -122 -108 -61 -197 -133 50 -121 190 return
      </CharString>
      <CharString index="37">
        732 rmoveto
        -36 -24 109 -142 rlineto
        86 hlineto
        109 142 -34 24 -118 -79 rlineto
        return
      </CharString>
      <CharString index="38">
        rmoveto
        -45 vlineto
        70 -23 -70 -347 -103 364 -125 -23 -82 -336 -75 345 65 20 rlineto
        45 -278 -45 vlineto
        71 -24 156 -555 77 13 109 397 131 -410 77 13 126 543 71 24 rlineto
        44 vlineto
        endchar
      </CharString>
      <CharString index="39">
        -463 -89 callsubr
        return
      </CharString>
      <CharString index="40">
        -35 11 44 -18 44 hhcurveto
        33 32 5 12 46 hvcurveto
        -21 callsubr
        648 -90 callsubr
        -158 vlineto
        3 -4 -48 24 -55 hhcurveto
        -134 -78 -98 -160 -133 53 -121 112 return
      </CharString>
      <CharString index="41">
        rmoveto
        -9 callgsubr
        -71 -275 -88 309 -84 -14 -88 -294 -79 276 52 12 rlineto
        55 -244 -52 vlineto
        51 -15 153 -440 94 10 80 252 86 -262 95 10 rlineto
        endchar
      </CharString>
      <CharString index="42">
        85 23 rlineto
        45 return
      </CharString>
      <CharString index="43">
        574 rmoveto
        103 25 65 70 hvcurveto
        -57 2 rlineto
        -27 -11 -34 -58 -49 -11 34 27 vhcurveto
        -57 -2 rlineto
        -70 13 -65 102 vhcurveto
        return
      </CharString>
      <CharString index="44">
        45 -305 -58 callsubr
        return
      </CharString>
      <CharString index="45">
        vlineto
        -84 -24 rlineto
        return
      </CharString>
      <CharString index="46">
        71 -20 -100 -204 -105 202 68 21 rlineto
        47 -283 -45 vlineto
        71 -24 151 -289 rlineto
        -187 -62 callgsubr
        return
      </CharString>
      <CharString index="47">
        40 -67 callsubr
        -37 rlineto
        -50 vlineto
        78 -10 rlineto
        -335 27 callgsubr
        return
      </CharString>
      <CharString index="48">
        798 rmoveto
        -103 -22 -65 -70 hvcurveto
        56 -2 rlineto
        27 12 34 53 50 13 -34 -27 vhcurveto
        59 2 rlineto
        70 -16 65 -102 vhcurveto
        return
      </CharString>
      <CharString index="49">
        651 -87 callsubr
        return
      </CharString>
      <CharString index="50">
        -30 vlineto
        -86 -41 -77 -81 -14 -19 2 8 -23 vhcurveto
        -22 76 rlineto
        -64 hlineto
        -19 -127 rlineto
        -21 57 49 -10 67 hhcurveto
        return
      </CharString>
      <CharString index="51">
        rmoveto
        -15 callsubr
        -14 callgsubr
        -415 162 rmoveto
        73 216 80 -216 rlineto
        endchar
      </CharString>
      <CharString index="52">
        -26 -93 rlineto
        -150 477 hlineto
        -65 callgsubr
        -304 29 callsubr
        return
      </CharString>
      <CharString index="53">
        45 vlineto
        -79 25 rlineto
        328 vlineto
        75 -57 29 -65 -59 -85 -24 -16 -34 vhcurveto
        269 -90 callsubr
        -563 -36 callgsubr
        -50 -2 callsubr
        6 21 28 6 51 hhcurveto
        54 6 callgsubr
        vlineto
        return
      </CharString>
      <CharString index="54">
        71 5 56 63 10 12 -3 -3 8 vhcurveto
        18 -80 rlineto
        65 hlineto
        19 145 rlineto
        11 -12 -55 13 -36 hhcurveto
        -147 -83 -83 -141 hvcurveto
        -83 -39 rlineto
        -48 83 -350 -36 callgsubr
        return
      </CharString>
      <CharString index="55">
        rmoveto
        133 161 rlineto
        22 -92 vlineto
        -72 -160 rlineto
        return
      </CharString>
      <CharString index="56">
        5 callsubr
        -75 -38 -44 -54 -53 38 -41 75 hvcurveto
        47 vmoveto
        -35 -4 23 24 25 4 25 35 35 5 -25 -25 -24 -5 -23 -35 hvcurveto
        return
      </CharString>
      <CharString index="57">
        45 37 35 45 return
      </CharString>
      <CharString index="58">
        rmoveto
        40 34 30 42 41 -34 32 -40 -41 -37 -32 -41 -42 37 -30 41 hvcurveto
        232 hmoveto
        38 35 30 42 41 -35 32 -38 -42 -35 -32 -41 -42 35 -30 42 hvcurveto
        return
      </CharString>
      <CharString index="59">
        -70 rmoveto
        233 717 rlineto
        -83 hlineto
        -233 -717 rlineto
        return
      </CharString>
      <CharString index="60">
        -47 244 -11 rmoveto
        149 71 74 106 91 -55 37 -72 39 hvcurveto
        93 45 23 65 47 vvcurveto
        70 -32 66 -156 -140 -61 -71 -85 -77 36 -48 62 -38 vhcurveto
        -79 -50 -36 -60 -63 vvcurveto
        -90 41 -58 156 vhcurveto
        24 380 rmoveto
        -54 29 -32 40 44 vvcurveto
        59 31 25 52 51 26 -27 -62 -43 -24 -34 -50 -31 vhcurveto
        -22 -317 rmoveto
        -49 -35 24 69 41 25 59 36 29 hvcurveto
        34 -18 rlineto
        44 -21 42 -35 -54 vvcurveto
        -64 -40 -30 -57 vhcurveto
        endchar
      </CharString>
      <CharString index="61">
        rmoveto
        67 hlineto
        28 88 rlineto
        -2 15 17 -2 17 hhcurveto
        179 70 116 138 109 -40 92 -98 38 hvcurveto
        35 108 rlineto
        -70 hlineto
        -30 -92 rlineto
        2 -14 -16 1 -16 hhcurveto
        -177 -68 -115 -143 -104 40 -91 94 -39 hvcurveto
        32 99 rmoveto
        -16 34 -5 48 55 vvcurveto
        109 18 80 80 10 9 -1 -2 8 vhcurveto
        -21 -374 rmoveto
        -11 -10 1 3 -9 hvcurveto
        106 326 rlineto
        18 -34 6 -50 -58 vvcurveto
        -106 -16 -82 -84 vhcurveto
        endchar
      </CharString>
      <CharString index="62">
        558 rmoveto
        23 35 -154 137 -97 -40 -4 -23 rlineto
        return
      </CharString>
      <CharString index="63">
        38 89 -37 49 hhcurveto
        return
      </CharString>
      <CharString index="64">
        435 -93 callsubr
        return
      </CharString>
      <CharString index="65">
        rmoveto
        156 79 74 114 74 -32 54 -84 35 hvcurveto
        -91 38 rlineto
        -53 22 -35 27 49 vvcurveto
        62 52 18 59 21 39 -5 -6 17 vhcurveto
        22 -91 rlineto
        53 hlineto
        11 145 rlineto
        18 -56 -59 9 -60 hhcurveto
        -135 -78 -67 -116 -99 60 -50 48 -21 hvcurveto
        92 -40 rlineto
        58 -26 28 -21 -48 vvcurveto
        -51 -45 -26 -69 -39 -36 9 6 -21 vhcurveto
        -11 callsubr
        -21 55 74 -10 56 hhcurveto
        return
      </CharString>
      <CharString index="66">
        207 612 80 rmoveto
        -68 -3 rlineto
        82 41 57 123 90 vvcurveto
        155 -81 142 -215 -193 -114 -118 -186 -138 69 -70 71 -40 vhcurveto
        -68 4 rlineto
        -48 hlineto
        -20 74 rlineto
        -49 -154 275 51 hlineto
        -46 56 -39 71 134 vvcurveto
        123 26 123 129 134 25 -144 -91 -175 -41 -48 -42 -49 vhcurveto
        -51 273 154 -47 vlineto
        -21 -74 rlineto
        endchar
      </CharString>
</ttFont>
